<svg width="913" height="792" viewBox="0 0 913 792" fill="none" xmlns="http://www.w3.org/2000/svg">
<g style="mix-blend-mode:screen">
<path d="M0 787.106C40.4861 778.64 80.6324 767.993 120.439 756.604C160.245 745.215 199.712 732.597 238.766 718.982C316.98 691.834 393.563 660.573 468.163 625.343C505.381 607.652 542.024 588.887 578.092 569.048C614.112 549.216 649.501 528.317 683.919 506.026C692.609 500.599 701.104 494.846 709.599 489.14C718.095 483.434 726.59 477.798 734.988 471.86C751.74 460.155 767.793 447.564 783.072 434.145C790.675 427.424 797.917 420.341 804.771 412.921C811.659 405.569 817.879 397.67 823.364 389.308C828.877 381.037 832.974 371.977 835.5 362.471C837.981 353.01 837.611 343.071 834.432 333.802C830.986 324.604 825.314 316.314 817.878 309.61C810.436 302.79 802.165 296.848 793.242 291.912C775.218 282.119 756.205 274.092 736.493 267.951C697.172 255.217 656.516 246.449 615.836 238.192C575.155 229.934 534.208 222.697 493.722 213.303C483.6 210.984 473.528 208.362 463.552 205.463C453.528 202.635 443.716 199.163 434.182 195.072C431.755 194.028 429.473 192.914 427.167 191.685C424.784 190.506 422.58 189.024 420.614 187.278C418.526 185.483 417.047 183.132 416.366 180.528C415.829 177.878 416.186 175.133 417.386 172.688C419.834 168.131 423.257 164.116 427.434 160.905C431.42 157.645 435.637 154.653 440.056 151.952C457.838 141.523 476.456 132.456 495.737 124.837C514.863 116.95 534.281 109.76 553.82 102.894C592.923 89.1855 632.487 76.7993 672.22 64.9466C751.712 41.3802 831.883 19.9247 912.516 0L912.71 0.742246C832.174 20.7829 752.052 42.4936 672.633 66.1295C632.923 78.0286 593.408 90.5077 554.378 104.262C534.961 111.221 515.543 118.388 496.44 126.298C477.269 133.924 458.757 142.983 441.075 153.39C436.73 156.055 432.586 159.008 428.672 162.227C424.717 165.273 421.468 169.073 419.133 173.384C418.108 175.482 417.794 177.834 418.235 180.111C418.842 182.36 420.134 184.387 421.949 185.933C425.873 188.979 430.239 191.463 434.91 193.309C444.373 197.328 454.103 200.745 464.037 203.538C473.964 206.391 484.013 208.919 494.11 211.285C534.524 220.563 575.495 227.707 616.224 235.918C656.953 244.129 697.682 252.804 737.246 265.515C757.14 271.675 776.332 279.742 794.528 289.592C803.656 294.606 812.116 300.658 819.723 307.615C827.524 314.631 833.479 323.31 837.102 332.944C840.463 342.687 840.876 353.14 838.291 363.098C835.722 372.904 831.526 382.254 825.864 390.793C820.293 399.301 813.984 407.347 807.004 414.846C800.108 422.348 792.817 429.509 785.159 436.302C769.819 449.83 753.702 462.53 736.882 474.342C728.556 480.303 719.891 485.939 711.468 491.715C703.046 497.491 694.478 503.313 685.764 508.671C651.322 531.077 615.909 552.092 579.864 572.017C543.82 591.941 506.999 610.822 469.79 628.636C395.148 664.042 318.517 695.48 240.247 722.809C201.136 736.525 161.645 749.166 121.774 760.733C81.8704 772.215 41.6755 782.931 0.970913 791.559L0 787.106Z" fill="url(#paint0_linear_324_1839)"/>
</g>
<defs>
<linearGradient id="paint0_linear_324_1839" x1="456.294" y1="791.559" x2="456.294" y2="-1.85561" gradientUnits="userSpaceOnUse">
<stop stop-color="#135195"/>
<stop offset="1"/>
</linearGradient>
</defs>
</svg>
