<svg width="428" height="532" viewBox="0 0 428 532" fill="none" xmlns="http://www.w3.org/2000/svg">
<path id="galaxy_dust1" style="mix-blend-mode:multiply" opacity="0.5" d="M110.993 291.209C110.748 291.516 110.537 291.849 110.364 292.203L112.76 290.741C112.161 290.843 111.577 291.019 110.993 291.209ZM110.993 291.209C110.748 291.516 110.537 291.849 110.364 292.203L112.76 290.741C112.161 290.843 111.577 291.019 110.993 291.209ZM110.993 291.209C110.748 291.516 110.537 291.849 110.364 292.203L112.76 290.741C112.161 290.843 111.577 291.019 110.993 291.209ZM407.267 247.951L408.129 247.205C407.762 247.344 407.457 247.608 407.267 247.951ZM407.267 247.951L408.129 247.205C407.762 247.344 407.457 247.608 407.267 247.951ZM110.993 291.209C110.748 291.516 110.537 291.849 110.364 292.203L112.76 290.741C112.161 290.843 111.577 291.019 110.993 291.209ZM359.643 -6C359.643 -6 430.509 65.2442 376.253 153.85C321.997 242.456 209.074 270.208 56.2546 292.305C-96.5647 314.401 109.429 338.895 118.282 377.579C127.135 416.262 65.1365 432.966 75.9176 437.394C86.6987 441.823 121.671 435.173 158.207 485.022C194.743 534.871 245.668 543.727 263.388 517.846C281.108 491.964 257.852 451.789 245.668 467.295C233.485 482.801 203.596 496.1 189.206 486.133C174.817 476.166 158.207 462.867 152.685 437.394C147.163 411.922 134.892 305.107 262.234 286.284C389.576 267.461 470.376 272.356 484.78 226.95C499.184 181.544 482.559 191.511 484.78 184.861C487 178.212 510.242 178.212 515.779 163.817C521.315 149.422 505.816 140.551 523.521 77.4178C541.227 14.2845 637 -6 637 -6H359.643ZM131.751 315.278C130.89 321.106 128.327 326.549 124.385 330.925C120.442 335.301 115.295 338.414 109.59 339.874C102.286 341.54 94.7479 340.342 87.4145 338.983C74.895 336.644 61.9811 333.619 51.9743 325.713C46.9198 321.709 42.5811 314.548 46.1309 309.126C48.0446 306.203 51.726 304.829 55.2174 304.172C69.2269 301.556 83.4994 306.276 97.7427 306.656C106.888 306.904 133.431 300.533 131.737 315.278H131.751ZM126.258 296.514C120.072 298.369 113.552 298.833 107.165 297.873C105.544 297.624 103.455 296.514 104.024 294.95C104.337 294.35 104.856 293.883 105.485 293.635C107.26 292.66 109.123 291.857 111.051 291.238C113.607 287.643 118.735 286.532 123.278 286.152C125.166 285.89 127.087 286.03 128.917 286.561C129.824 286.849 130.631 287.389 131.242 288.119C131.853 288.849 132.242 289.739 132.365 290.683C132.467 293.664 129.151 295.578 126.258 296.514ZM313.787 272.24C308.631 272.079 279.443 270.603 277.529 265.093C275.075 257.976 301.356 250.801 305.607 249.339C329.437 241.111 354.305 236.275 379.482 234.973C384.171 234.74 389.021 234.652 393.418 236.318C395.154 236.847 396.645 237.977 397.626 239.504C399.627 243.187 396.267 247.512 392.819 249.894C387.078 253.869 380.446 256.281 373.901 258.663C354.472 265.649 334.458 272.795 313.787 272.181V272.24ZM416.324 256.237C414.98 260.022 410.145 260.943 406.098 261.264L396.471 262.024C394.718 262.17 392.513 262.024 391.797 260.446C391.081 258.868 392.688 256.924 394.207 255.799C398.674 252.488 403.409 249.555 408.363 247.03L408.085 247.278C409.007 246.994 409.999 247.04 410.89 247.41C414.528 248.667 417.61 252.569 416.324 256.179V256.237ZM504.56 161.625C503.047 164.128 501.16 166.386 498.965 168.318C495.108 171.577 485.817 176.897 480.689 177.35C471.603 178.168 470.04 167.339 470.463 160.733C471.668 144.264 477.119 128.389 486.284 114.655C488.87 110.767 492.873 106.632 497.431 107.698C500.002 108.312 501.886 110.475 503.406 112.638C508.239 119.836 510.915 128.265 511.12 136.934C511.324 145.602 509.048 154.149 504.56 161.566V161.625ZM512.843 97.7023C512.185 100.844 510.257 104.542 506.999 104.293C499.257 103.694 499.973 84.0234 500.455 79.3469C500.718 76.8186 501.565 73.8227 504.019 73.1212C504.72 72.9737 505.445 72.9796 506.143 73.1385C506.841 73.2974 507.497 73.6056 508.066 74.0419C511.353 76.2633 512.711 80.4283 513.252 84.3741C513.876 88.7881 513.738 93.2767 512.843 97.6438V97.7023ZM407.267 247.951L408.129 247.205C407.762 247.344 407.457 247.608 407.267 247.951ZM112.76 290.668C112.161 290.829 111.577 291.004 110.993 291.194C110.748 291.502 110.537 291.835 110.364 292.188L112.76 290.668ZM110.993 291.194C110.748 291.502 110.537 291.835 110.364 292.188L112.76 290.726C112.161 290.843 111.577 291.019 110.993 291.209V291.194ZM407.267 247.936L408.129 247.191C407.76 247.333 407.454 247.602 407.267 247.951V247.936ZM407.267 247.936L408.129 247.191C407.76 247.333 407.454 247.602 407.267 247.951V247.936ZM110.993 291.194C110.748 291.502 110.537 291.835 110.364 292.188L112.76 290.726C112.161 290.843 111.577 291.019 110.993 291.209V291.194ZM110.993 291.194C110.748 291.502 110.537 291.835 110.364 292.188L112.76 290.726C112.161 290.843 111.577 291.019 110.993 291.209V291.194ZM110.993 291.194C110.748 291.502 110.537 291.835 110.364 292.188L112.76 290.726C112.161 290.843 111.577 291.019 110.993 291.209V291.194Z" fill="url(#paint0_linear_324_1375)"/>
<defs>
<linearGradient id="paint0_linear_324_1375" x1="318.521" y1="531.992" x2="318.521" y2="-6" gradientUnits="userSpaceOnUse">
<stop stop-color="white"/>
<stop offset="0.99" stop-color="#070019"/>
</linearGradient>
</defs>
</svg>
