<svg width="143" height="97" viewBox="0 0 143 97" fill="none" xmlns="http://www.w3.org/2000/svg">
<g id="gamefi-rocket">
<g id="gamefi-rocket__tail">
<path id="Vector" opacity="0.3" d="M2.64257 50.3495C4.04257 53.8495 5.84257 57.2495 8.14257 60.2495C10.2426 63.1495 12.5426 65.8495 15.1426 68.3495C17.6426 70.7495 20.2426 72.9495 23.0426 74.9495C24.4426 75.9495 25.8426 76.8495 27.1426 77.8495L29.2426 79.1496C29.9426 79.5496 30.6426 80.0495 31.2426 80.4495C33.8426 81.9495 36.3426 83.5496 38.8426 85.1496C39.9426 85.8495 40.9426 86.5496 42.0426 87.2495C45.6426 84.3495 49.2426 81.5495 53.0426 78.9495C51.0426 77.2495 49.0426 75.5495 47.0426 73.9495C44.5426 71.9495 42.0426 70.0496 39.4426 68.1496L35.9426 65.5496C34.8426 64.6496 33.7426 63.7495 32.6426 62.8495C30.5426 61.0495 28.6426 59.1495 26.7426 57.1495C25.0426 55.1495 23.4426 53.1495 22.1426 50.9495C19.6426 47.1495 18.3426 42.6495 18.3426 38.1495C18.4426 36.1495 18.8426 34.2495 19.5426 32.3495C20.3426 30.5495 21.4426 28.8495 22.7426 27.4495C24.1426 25.9495 25.7426 24.7495 27.5426 23.7495C29.2426 22.8495 31.0426 22.1495 32.9426 21.8495C37.2426 21.3495 41.5426 21.9495 45.5426 23.5495C50.2426 25.3495 54.7426 27.8495 58.8426 30.9495C60.9426 32.4495 62.9426 34.1495 64.9426 35.9495C65.8426 36.8495 66.7426 37.7495 67.5426 38.5495C67.9426 38.9495 68.2426 39.3495 68.5426 39.7495C68.7426 40.0495 69.0426 40.4495 68.6426 39.9495C72.6426 45.9495 80.7426 47.5495 86.6426 43.5495C92.4426 39.6495 94.0426 31.7495 90.3426 25.7495C89.5426 24.5495 88.5426 23.3495 87.5426 22.3495C86.7426 21.5495 86.0426 20.8495 85.3426 20.1495C83.9426 18.8495 82.4426 17.6495 81.0426 16.5495C78.2426 14.3495 75.2426 12.3495 72.2426 10.5495C66.0426 6.74955 59.2426 3.74955 52.2426 1.84955C48.4426 0.849547 44.5426 0.249546 40.6426 0.0495464C36.4426 -0.150454 32.2426 0.249547 28.2426 1.34955C24.1426 2.44955 20.2426 4.24955 16.6426 6.64955C13.2426 8.94955 10.1426 11.8495 7.54257 15.1495C4.94257 18.4495 2.94257 22.2495 1.64257 26.2495C0.34257 30.2495 -0.15743 34.4495 0.04257 38.6495C0.34257 42.6495 1.14257 46.6495 2.64257 50.3495Z" fill="url(#paint0_linear_352_5)"/>
<path id="Vector_2" d="M70.9425 39.8497L70.7425 39.6497C58.8425 21.2497 43.9425 15.2497 26.3425 21.7497L20.8425 6.74967C45.7425 -2.45033 68.2425 6.14967 84.2425 30.9497L84.3425 31.1497L70.9425 39.8497Z" fill="url(#paint1_linear_352_5)"/>
<path id="Vector_3" d="M75.6426 35.2495C75.4426 34.8495 75.1426 34.5495 74.8426 34.2495C74.4426 33.8495 74.1426 33.4495 73.7426 32.9495C72.9426 32.1495 72.0426 31.2495 71.1426 30.4495C69.3426 28.8495 67.3426 27.2495 65.3426 25.7495C61.3426 22.8495 57.0426 20.3495 52.5426 18.2495C48.1426 16.2495 43.4426 14.9495 38.6426 14.5495C34.0426 14.1495 29.4426 15.1495 25.3426 17.2495C23.6426 18.1495 21.4426 17.4495 20.5426 15.7495C19.6426 14.0495 20.2426 11.9495 21.9426 11.0495C24.5426 9.54953 27.3426 8.44954 30.2426 7.84954C33.1426 7.14954 36.0426 6.94953 39.0426 7.04953C44.7426 7.34953 50.3426 8.64954 55.6426 10.8495C60.7426 12.9495 65.6426 15.6495 70.2426 18.7495C72.5426 20.3495 74.7426 21.9495 76.8426 23.7495C77.9426 24.6495 78.9426 25.5495 80.0426 26.6495C80.5426 27.1495 81.0426 27.6495 81.6426 28.2495C82.2426 28.8495 82.7426 29.5495 83.2426 30.3495V30.4495C84.6426 32.5495 84.1426 35.3495 82.0426 36.7495C79.9426 38.1495 77.1426 37.6495 75.7426 35.5495L75.6426 35.2495Z" fill="url(#paint2_linear_352_5)"/>
<path id="Vector_4" d="M79.3426 32.1498C78.8426 32.2498 78.2426 32.3498 77.6426 32.4498C77.1426 32.5498 76.6426 32.5498 76.0426 32.5498C75.0426 32.5498 74.1426 32.5498 73.1426 32.4498C71.5426 32.2498 69.8426 31.9498 68.2426 31.5498C65.5426 30.8498 63.0426 29.6498 60.8426 28.0498C58.6426 26.5498 56.7426 24.6498 55.2426 22.4498C54.3426 21.1498 53.5426 19.8498 52.8426 18.4498C52.4426 17.6498 52.0426 16.8498 51.6426 16.0498C51.1426 15.0498 50.8426 14.0498 50.4426 13.0498C52.1426 11.9498 54.1426 11.1498 56.1426 10.8498C56.6426 10.7498 57.0426 10.7498 57.5426 10.6498C58.0426 10.5498 58.4426 10.6498 58.9426 10.5498C59.8426 10.5498 60.7426 10.5498 61.5426 10.6498C64.8426 11.0498 68.0426 12.3498 70.6426 14.2498C73.2426 16.1498 75.4426 18.6498 76.8426 21.4498C77.6426 22.9498 78.1426 24.6498 78.5426 26.2498C78.7426 27.1498 78.8426 28.0498 78.9426 29.0498C79.2426 29.9498 79.2426 31.0498 79.3426 32.1498Z" fill="url(#paint3_linear_352_5)"/>
</g>
<g id="gamefi-rocket__body">
<path d="M125.243 37.0494C142.743 54.5494 145.543 86.3494 138.943 93.0494C132.343 99.7494 100.443 96.8494 82.9426 79.3494C72.1426 68.5494 54.0426 31.4494 65.7426 19.8494C77.4426 8.24937 114.443 26.2494 125.243 37.0494Z" fill="url(#paint4_linear_352_5)"/>
<path d="M65.7426 19.7493C68.1426 17.5493 71.2426 16.2493 74.4426 16.0493C68.8426 18.4493 64.4426 22.8493 62.0426 28.3493C62.2426 25.2493 63.5426 22.1493 65.7426 19.7493Z" fill="url(#paint5_linear_352_5)"/>
<path d="M138.943 93.0494C132.243 99.7494 100.443 96.8494 82.9426 79.3494C80.9426 77.3494 79.1426 75.0494 77.6426 72.7494C77.6426 51.4494 94.8426 34.1494 116.243 34.1494C118.443 34.1494 120.543 34.3494 122.643 34.6494C123.543 35.4494 124.443 36.2494 125.343 37.0494C142.743 54.5494 145.643 86.3494 138.943 93.0494Z" fill="url(#paint6_linear_352_5)"/>
<path d="M90.8426 19.5494C92.8426 10.5494 85.2426 3.34941 78.1426 2.14941C78.1426 2.14941 82.9426 12.7494 77.9426 17.3494L90.8426 19.5494Z" fill="url(#paint7_linear_352_5)"/>
<path d="M65.2425 43.1493C56.2425 45.1493 49.0425 37.5493 47.8425 30.4493C47.8425 30.4493 58.4425 35.2493 63.0425 30.2493L65.2425 43.1493Z" fill="url(#paint8_linear_352_5)"/>
<path d="M74.1426 26.8493C76.2426 24.5493 59.0426 13.0493 59.0426 13.0493C59.0426 13.0493 71.9426 29.1493 74.1426 26.8493Z" fill="url(#paint9_linear_352_5)"/>
</g>
<g id="gamefi-rocket__window">
<path id="Vector_5" d="M78.9426 30.3496C82.4426 27.4496 86.5426 26.6496 88.1426 28.5496C89.7426 30.4496 88.2426 34.3496 84.8426 37.3496C81.3426 40.2496 77.2426 41.0496 75.6426 39.1496C74.0426 37.2496 75.5426 33.3496 78.9426 30.3496Z" fill="url(#paint10_linear_352_5)"/>
<path id="Vector_6" d="M79.4425 31.1495C82.0425 28.9495 85.1425 28.2495 86.2425 29.6495C87.4425 31.0495 86.2425 33.9495 83.6425 36.1495C81.0425 38.3495 77.9425 39.0495 76.8425 37.6495C75.6425 36.2495 76.7425 33.3495 79.4425 31.1495Z" fill="url(#paint11_linear_352_5)"/>
<path id="Vector_7" opacity="0.3" d="M83.2758 35.6521C85.6014 33.698 86.6514 31.1199 85.621 29.8937C84.5907 28.6675 81.8702 29.2575 79.5447 31.2116C77.2191 33.1657 76.1691 35.7438 77.1994 36.97C78.2298 38.1962 80.9502 37.6062 83.2758 35.6521Z" fill="white"/>
<path id="Vector_8" opacity="0.3" d="M86.3425 29.8495C86.3425 29.7495 86.2425 29.7495 86.2425 29.6495C85.1425 28.2495 82.0425 28.9495 79.4425 31.1495L79.3425 31.2495C79.4425 31.4495 79.5425 31.6495 79.6425 31.7495C80.6425 32.9495 83.4425 32.3495 85.7425 30.4495C85.9425 30.2495 86.1425 30.0495 86.3425 29.8495Z" fill="white"/>
</g>
<g id="gamefi-rocket__cannon">
<path id="Vector_9" d="M115.543 44.2495L98.5426 34.7495C98.5426 34.7495 96.5426 33.4495 93.1426 36.7495C90.1426 39.6495 90.6426 41.7495 90.9426 42.3495C90.9426 42.4495 91.0426 42.5495 91.1426 42.6495L104.643 56.5495" fill="url(#paint12_linear_352_5)"/>
<path id="Vector_10" d="M106.743 47.3495C109.843 43.9495 114.043 42.7495 116.043 44.6495C118.043 46.5495 117.143 50.7495 114.043 54.1495C110.943 57.5495 106.743 58.7495 104.743 56.8495C102.643 54.9495 103.543 50.6495 106.743 47.3495Z" fill="url(#paint13_linear_352_5)"/>
<path id="Vector_11" opacity="0.6" d="M113.084 53.1473C115.34 50.72 116.053 47.7161 114.678 46.438C113.302 45.1598 110.359 46.0913 108.103 48.5186C105.847 50.9459 105.134 53.9498 106.509 55.228C107.885 56.5061 110.828 55.5746 113.084 53.1473Z" fill="#090F23"/>
<path id="Vector_12" opacity="0.6" d="M113.084 53.1473C115.34 50.72 116.053 47.7161 114.678 46.438C113.302 45.1598 110.359 46.0913 108.103 48.5186C105.847 50.9459 105.134 53.9498 106.509 55.228C107.885 56.5061 110.828 55.5746 113.084 53.1473Z" fill="#090F23"/>
<path id="Vector_13" d="M104.343 56.4495L91.4426 43.0495C91.4426 43.0495 90.1426 41.2495 86.0426 43.3495C82.6426 45.0495 82.2426 47.0496 82.2426 47.7495C82.2426 47.9495 82.2426 48.0496 82.3426 48.2495L90.6426 64.6496" fill="url(#paint14_linear_352_5)"/>
<path id="Vector_14" d="M95.3426 56.7495C99.1426 54.5495 103.343 54.6495 104.643 56.8495C105.943 59.1495 103.843 62.7495 100.043 64.9495C96.2426 67.1495 92.0425 67.0495 90.7425 64.8495C89.4425 62.5495 91.5426 58.9495 95.3426 56.7495Z" fill="url(#paint15_linear_352_5)"/>
<path id="Vector_15" opacity="0.6" d="M99.4249 63.8322C102.154 62.2629 103.652 59.7488 102.771 58.2167C101.89 56.6846 98.9636 56.7147 96.2345 58.284C93.5055 59.8533 92.0074 62.3675 92.8884 63.8996C93.7694 65.4317 96.6959 65.4015 99.4249 63.8322Z" fill="#090F23"/>
<path id="Vector_16" opacity="0.6" d="M99.4249 63.8322C102.154 62.2629 103.652 59.7488 102.771 58.2167C101.89 56.6846 98.9636 56.7147 96.2345 58.284C93.5055 59.8533 92.0074 62.3675 92.8884 63.8996C93.7694 65.4317 96.6959 65.4015 99.4249 63.8322Z" fill="#090F23"/>
</g>
</g>
<defs>
<linearGradient id="paint0_linear_352_5" x1="11.7324" y1="7.71655" x2="73.3024" y2="66.2766" gradientUnits="userSpaceOnUse">
<stop stop-color="#5AB0E5"/>
<stop offset="1" stop-color="white" stop-opacity="0"/>
</linearGradient>
<linearGradient id="paint1_linear_352_5" x1="20.8113" y1="21.5121" x2="84.3313" y2="21.5121" gradientUnits="userSpaceOnUse">
<stop stop-color="#F09002" stop-opacity="0"/>
<stop offset="0.18" stop-color="#F09002" stop-opacity="0.01"/>
<stop offset="0.27" stop-color="#F09002" stop-opacity="0.04"/>
<stop offset="0.34" stop-color="#F09002" stop-opacity="0.1"/>
<stop offset="0.4" stop-color="#F09002" stop-opacity="0.18"/>
<stop offset="0.45" stop-color="#F09002" stop-opacity="0.28"/>
<stop offset="0.5" stop-color="#F09002" stop-opacity="0.41"/>
<stop offset="0.55" stop-color="#F09002" stop-opacity="0.56"/>
<stop offset="0.59" stop-color="#F09002" stop-opacity="0.73"/>
<stop offset="0.63" stop-color="#F09002" stop-opacity="0.92"/>
<stop offset="0.65" stop-color="#F09002"/>
<stop offset="0.77" stop-color="#F08D04"/>
<stop offset="0.84" stop-color="#EE850C"/>
<stop offset="0.9" stop-color="#EC7718"/>
<stop offset="0.95" stop-color="#E8632A"/>
<stop offset="1" stop-color="#E34742"/>
</linearGradient>
<linearGradient id="paint2_linear_352_5" x1="29.4322" y1="1.54323" x2="74.5322" y2="44.4232" gradientUnits="userSpaceOnUse">
<stop stop-color="#F09002" stop-opacity="0"/>
<stop offset="0.11" stop-color="#F09002" stop-opacity="0.01"/>
<stop offset="0.2" stop-color="#F09002" stop-opacity="0.06"/>
<stop offset="0.28" stop-color="#F09002" stop-opacity="0.13"/>
<stop offset="0.36" stop-color="#F09002" stop-opacity="0.23"/>
<stop offset="0.43" stop-color="#F09002" stop-opacity="0.36"/>
<stop offset="0.51" stop-color="#F09002" stop-opacity="0.52"/>
<stop offset="0.58" stop-color="#F09002" stop-opacity="0.71"/>
<stop offset="0.65" stop-color="#F09002" stop-opacity="0.92"/>
<stop offset="0.67" stop-color="#F09002"/>
<stop offset="0.78" stop-color="#F08D04"/>
<stop offset="0.85" stop-color="#EE850C"/>
<stop offset="0.9" stop-color="#EC7718"/>
<stop offset="0.95" stop-color="#E8632A"/>
<stop offset="1" stop-color="#E34742"/>
</linearGradient>
<linearGradient id="paint3_linear_352_5" x1="50.5614" y1="8.1731" x2="79.6914" y2="32.6231" gradientUnits="userSpaceOnUse">
<stop stop-color="#F09002" stop-opacity="0"/>
<stop offset="0.04" stop-color="#F09002" stop-opacity="0.03"/>
<stop offset="0.1" stop-color="#F09002" stop-opacity="0.1"/>
<stop offset="0.16" stop-color="#F09002" stop-opacity="0.22"/>
<stop offset="0.23" stop-color="#F09002" stop-opacity="0.39"/>
<stop offset="0.31" stop-color="#F09002" stop-opacity="0.61"/>
<stop offset="0.39" stop-color="#F09002" stop-opacity="0.88"/>
<stop offset="0.42" stop-color="#F09002"/>
<stop offset="0.47" stop-color="#EF8909"/>
<stop offset="0.69" stop-color="#E86528"/>
<stop offset="0.88" stop-color="#E44F3B"/>
<stop offset="1" stop-color="#E34742"/>
</linearGradient>
<linearGradient id="paint4_linear_352_5" x1="76.9177" y1="81.1546" x2="112.729" y2="19.0103" gradientUnits="userSpaceOnUse">
<stop stop-color="white"/>
<stop offset="0.33" stop-color="#F9F9F9"/>
<stop offset="0.78" stop-color="#E8E8E8"/>
<stop offset="1" stop-color="#DDDDDD"/>
</linearGradient>
<linearGradient id="paint5_linear_352_5" x1="95.235" y1="97.418" x2="95.235" y2="2.89245" gradientUnits="userSpaceOnUse">
<stop stop-color="#A172FF"/>
<stop offset="1" stop-color="#1FE3CF"/>
</linearGradient>
<linearGradient id="paint6_linear_352_5" x1="142.28" y1="49.1644" x2="47.8408" y2="49.1644" gradientUnits="userSpaceOnUse">
<stop stop-color="#A9332C"/>
<stop offset="0.38" stop-color="#C53D37"/>
<stop offset="0.76" stop-color="#DB443F"/>
<stop offset="1" stop-color="#E34742"/>
</linearGradient>
<linearGradient id="paint7_linear_352_5" x1="37.8798" y1="68.9952" x2="115.241" y2="21.444" gradientUnits="userSpaceOnUse">
<stop stop-color="#A172FF"/>
<stop offset="1" stop-color="#543CA0"/>
</linearGradient>
<linearGradient id="paint8_linear_352_5" x1="63.2692" y1="-16.708" x2="166.843" y2="62.184" gradientUnits="userSpaceOnUse">
<stop stop-color="#A172FF"/>
<stop offset="1" stop-color="#543CA0"/>
</linearGradient>
<linearGradient id="paint9_linear_352_5" x1="67.014" y1="27.228" x2="66.4025" y2="12.5773" gradientUnits="userSpaceOnUse">
<stop stop-color="#A172FF"/>
<stop offset="1" stop-color="#543CA0"/>
</linearGradient>
<linearGradient id="paint10_linear_352_5" x1="75.2991" y1="33.2764" x2="88.5023" y2="34.4222" gradientUnits="userSpaceOnUse">
<stop stop-color="#A172FF"/>
<stop offset="1" stop-color="#543CA0"/>
</linearGradient>
<linearGradient id="paint11_linear_352_5" x1="76.5852" y1="33.1533" x2="86.4444" y2="34.0089" gradientUnits="userSpaceOnUse">
<stop stop-color="#00F1FC"/>
<stop offset="1" stop-color="#5AB0E5"/>
</linearGradient>
<linearGradient id="paint12_linear_352_5" x1="91.8013" y1="47.2563" x2="115.31" y2="42.843" gradientUnits="userSpaceOnUse">
<stop stop-color="#A172FF"/>
<stop offset="1" stop-color="#1FE3CF"/>
</linearGradient>
<linearGradient id="paint13_linear_352_5" x1="104.929" y1="56.8344" x2="116.064" y2="44.4225" gradientUnits="userSpaceOnUse">
<stop stop-color="#A172FF"/>
<stop offset="1" stop-color="#543CA0"/>
</linearGradient>
<linearGradient id="paint14_linear_352_5" x1="81.6816" y1="52.4702" x2="104.463" y2="55.1588" gradientUnits="userSpaceOnUse">
<stop stop-color="#A172FF"/>
<stop offset="1" stop-color="#1FE3CF"/>
</linearGradient>
<linearGradient id="paint15_linear_352_5" x1="91.2667" y1="64.6497" x2="105.011" y2="56.4172" gradientUnits="userSpaceOnUse">
<stop stop-color="#A172FF"/>
<stop offset="1" stop-color="#543CA0"/>
</linearGradient>
</defs>
</svg>
