<svg width="101" height="102" viewBox="0 0 101 102" fill="none" xmlns="http://www.w3.org/2000/svg">
<g id="gamefi-moon">
<path id="Vector" d="M100.9 50.5415C100.909 59.4743 98.5537 68.2503 94.0728 75.9763C89.5918 83.7023 83.1455 90.1027 75.3897 94.5262C67.8024 98.8999 59.194 101.187 50.4378 101.157C43.8047 101.147 37.2383 99.8304 31.1138 97.2815C24.9892 94.7327 19.4264 91.0017 14.7428 86.3017C10.0592 81.6016 6.34663 76.0245 3.81707 69.8888C1.28752 63.753 -0.00951677 57.1788 5.25667e-05 50.5415C5.25667e-05 49.3271 0.0485912 48.1371 0.14568 46.9712C1.05233 33.9142 6.99283 21.7203 16.7136 12.9626C26.4344 4.20487 39.1751 -0.431567 52.2472 0.0316486C65.3193 0.494864 77.7003 6.0215 86.7776 15.4453C95.8549 24.8691 100.919 37.453 100.9 50.5415Z" fill="url(#paint0_radial_355_93)"/>
<path id="Vector_2" d="M0.146652 48.5499C0.146652 49.6914 0.00102438 50.8329 0.00102438 52.023C-0.040532 58.44 1.18267 64.8022 3.60068 70.7457C6.01868 76.6893 9.58405 82.0974 14.0928 86.6609C18.6015 91.2243 23.9652 94.8536 29.8769 97.3409C35.7887 99.8282 42.1325 101.125 48.5455 101.157C56.9678 101.174 65.2436 98.9532 72.5265 94.7205C80.0042 90.3892 86.208 84.1612 90.5122 76.6647C94.8163 69.1683 97.0685 60.6685 97.0415 52.023C97.0415 51.0515 96.3862 49.5943 96.3619 48.5013C96.3619 47.9427 96.3619 47.3598 96.3619 46.8012C96.3619 45.5625 96.0706 44.3724 96.0706 43.158C96.107 42.5352 96.107 41.9108 96.0706 41.2879C96.0706 40.7293 95.8036 40.2193 95.7794 39.6607C95.5685 38.4994 95.5032 37.3163 95.5852 36.1389C95.7308 35.3617 96.0949 34.6331 95.2696 34.0988C94.4444 33.5645 94.5658 33.9045 94.1774 33.2244C93.8869 32.765 93.5537 32.334 93.1822 31.9372C92.523 31.3556 91.9289 30.7041 91.4104 29.9942C91.4104 29.8485 90.9734 29.4356 90.9734 29.3141C90.9734 29.1927 91.3133 28.7313 91.1434 28.4155C90.4637 28.2698 89.7598 28.4155 89.0802 28.4155C88.4006 28.4155 88.1336 27.4683 88.0365 26.6911C87.9955 26.2785 88.0538 25.8621 88.2064 25.4767C88.2554 25.0572 88.2554 24.6333 88.2064 24.2138V24.8695C88.3168 24.0637 88.3168 23.2466 88.2064 22.4408C87.8851 21.8072 87.4489 21.2389 86.92 20.7649C86.3138 20.278 85.5811 19.9747 84.8083 19.8906C83.716 19.5992 83.8859 18.3848 83.4248 17.4619C83.205 17.1162 82.9351 16.8051 82.6238 16.5389C81.8943 15.7427 81.2287 14.8899 80.6335 13.9887C79.4441 12.4343 78.5461 12.4829 76.7256 12.3857C74.9487 12.2072 73.216 11.7224 71.6042 10.9528C69.6061 9.61348 67.2354 8.94181 64.8322 9.03408C63.4419 9.52352 62.0235 9.92904 60.5846 10.2485C59.3374 10.2145 58.1287 9.80854 57.1136 9.08263C54.8946 7.55358 52.4324 6.41209 49.832 5.70667C47.4315 5.25623 44.9773 5.16619 42.5503 5.4395C40.0535 5.92363 37.6134 6.66428 35.2686 7.64968C32.6518 8.90544 30.205 10.4887 27.9869 12.3615C25.9966 13.7459 23.448 14.0616 21.5305 15.5189C20.6759 16.1107 19.9426 16.8609 19.3703 17.729C19.1761 18.0933 19.079 18.5548 18.8848 18.9434C18.508 19.5744 18.0511 20.154 17.5256 20.6678C13.375 25.3067 6.3118 26.934 3.2535 32.3501C2.74378 33.2487 1.5059 38.082 1.21464 39.0535C0.632103 40.9236 4.8312 42.2837 4.32148 44.1781C4.10462 44.7252 3.82786 45.2465 3.49624 45.7325C3.26272 46.3039 2.94352 46.8362 2.54962 47.3112C2.11272 47.7241 0.680642 47.8698 0.146652 48.5499Z" fill="url(#paint1_radial_355_93)"/>
<g id="Vector_3" style="mix-blend-mode:multiply" opacity="0.2">
<path d="M84.4446 73.4204C85.6256 74.494 86.5328 75.8347 87.0903 77.3307C87.3986 78.3182 87.3205 79.386 86.8718 80.318C86.7086 80.6408 86.4956 80.9359 86.2407 81.1924C85.8342 81.3957 85.4122 81.5663 84.9786 81.7024C84.2438 82.0648 83.5449 82.4958 82.8912 82.9897C82.5514 83.2568 82.3329 83.2811 81.7504 83.7426C81.1678 84.2041 80.8037 84.8112 80.294 85.297C79.3471 86.5982 78.1192 87.6691 76.7017 88.4301C75.6066 88.9338 74.4116 89.1829 73.2065 89.1587C71.9395 89.0597 70.7074 88.6956 69.59 88.09C68.8035 87.7713 67.9915 87.5194 67.1627 87.3371C66.0947 87.0457 65.0025 86.6814 63.886 86.4871C62.4068 86.1253 60.8935 85.9218 59.3714 85.8799C58.1335 85.9285 56.9441 86.6328 56.9441 87.7015C56.9441 88.7701 58.1335 89.6688 58.8859 90.4702C59.1529 90.7374 59.2015 90.956 59.5655 91.3203C59.9296 91.6846 60.0995 92.1704 60.585 92.4375C61.5533 92.8886 62.5718 93.2229 63.619 93.4333C64.9297 93.7491 66.1676 93.8705 67.3569 94.2348C68.8313 94.5327 70.2895 94.9056 71.7259 95.352C72.5879 95.6934 73.4035 96.1422 74.1532 96.6878C67.0027 99.7678 59.2917 101.331 51.5071 101.278C26.2397 101.278 5.75391 85.637 5.75391 66.3527V63.924H6.26364C6.80742 63.9669 7.35117 63.8406 7.82043 63.5623C8.2897 63.284 8.66154 62.8675 8.88505 62.3696C8.98897 62.0046 9.11876 61.6474 9.27341 61.3009V60.378C9.88022 59.7951 10.5356 61.1066 10.6812 61.3495C11.6764 63.001 12.4045 65.7455 15.1959 65.6969C17.9872 65.6484 18.2299 62.8553 17.8658 61.3738C17.629 60.0359 17.9252 58.6584 18.691 57.5364C19.9046 55.3505 20.9483 53.1403 22.3319 51.0273C22.864 49.9508 23.7105 49.0614 24.7591 48.4771C25.7037 47.887 26.7486 47.4754 27.8417 47.2627C28.4913 47.1225 29.1681 47.1818 29.7835 47.4328C30.4456 47.8516 30.9758 48.4495 31.3126 49.1571C31.9393 50.6406 32.3244 52.215 32.4534 53.8203C32.6233 55.0833 32.2835 56.9292 33.5942 57.9249C34.6006 58.5417 35.7111 58.9697 36.871 59.1879C37.5892 59.3841 38.3406 59.427 39.0765 59.3141C39.8124 59.2011 40.5164 58.9347 41.1429 58.5321C41.9093 58.0817 42.6324 57.5614 43.3031 56.9777C43.7885 56.5406 44.2255 55.982 44.7352 55.5934C44.9295 55.4497 45.1013 55.2778 45.2449 55.0833C45.4666 54.8272 45.7395 54.6204 46.0459 54.4761C47.1778 54.0834 48.3971 54.0161 49.5653 54.2818C50.1219 54.332 50.6612 54.5011 51.1469 54.7776C51.6327 55.0542 52.0534 55.4317 52.3809 55.8848C52.9887 56.8244 53.7057 57.6886 54.5169 58.4593C54.9667 58.8083 55.3423 59.2438 55.6216 59.7401C55.9009 60.2365 56.0782 60.7836 56.1431 61.3495C56.216 62.7582 55.1722 63.6568 54.0072 64.6526C52.7468 65.6809 51.3892 66.5838 49.9537 67.3485C49.5284 67.5507 49.1291 67.8035 48.7644 68.1014C48.392 68.6259 47.9121 69.0648 47.3566 69.3887C46.531 69.8147 45.6155 70.037 44.6866 70.037C43.7577 70.037 42.8423 69.8147 42.0167 69.3887C40.1475 68.4597 38.1872 67.7272 36.1671 67.2028C35.0909 67.0109 33.9841 67.0854 32.9433 67.4198C31.9026 67.7543 30.9594 68.3385 30.1961 69.1215C29.9306 69.5843 29.7595 70.0953 29.6928 70.6248C29.6262 71.1543 29.6652 71.6917 29.8077 72.206C30.2389 73.1672 31.0332 73.9182 32.0165 74.2947C33.6976 75.0336 35.4685 75.548 37.2836 75.8249C38.1341 75.9629 38.9949 76.0278 39.8564 76.0191C40.6817 75.9949 41.4584 76.1892 42.2837 76.1892C43.8062 76.2624 45.3321 76.2137 46.8469 76.0435C48.5177 76.0533 50.1852 75.8906 51.8227 75.5577C53.3898 74.9984 54.7918 74.0548 55.9004 72.8132C57.114 71.6231 57.6966 70.1902 58.7645 68.9515C59.2178 68.3509 59.7126 67.7828 60.2452 67.2514C60.9005 66.7171 61.3131 66.4256 62.284 65.6484C63.2549 64.8712 64.7355 64.094 65.2452 63.0496C65.4657 62.6348 65.5885 62.175 65.6043 61.7055C65.6202 61.2359 65.5286 60.7689 65.3366 60.3401C65.1446 59.9114 64.8572 59.5322 64.4965 59.2315C64.1357 58.9307 63.711 58.7165 63.2549 58.605C60.5121 57.4878 56.9926 56.5891 55.512 54.3304C55.2286 53.8305 55.0239 53.2898 54.9052 52.7274C54.7302 52.2968 54.6717 51.8278 54.7353 51.3673C55.1237 49.8372 56.9198 48.9629 58.7888 48.5743C60.8336 48.0744 62.9234 47.7815 65.0268 47.6999C66.3411 47.7858 67.6266 48.1238 68.8133 48.6957C70.658 49.4972 69.3472 51.343 70.6579 52.436C71.7861 53.0094 73.0334 53.309 74.2988 53.3103C75.0565 53.2762 75.8154 53.3416 76.5561 53.5046C77.2843 53.7718 77.5027 54.3304 77.9639 54.7919C78.8656 55.5907 79.912 56.2091 81.0465 56.6134C81.6842 56.829 82.2651 57.186 82.7455 57.6578C83.2552 58.2164 83.0611 58.7507 83.2552 59.4065C83.4256 60.1066 83.3213 60.8454 82.964 61.4709C82.7866 62.1333 82.4631 62.7474 82.0174 63.2682C81.5088 63.814 80.9568 64.3176 80.3668 64.774C79.7843 65.1626 78.9105 65.4784 78.5707 66.037C77.9396 67.0571 79.226 68.0286 80.0513 68.7086C80.7554 69.3399 81.4125 70.0217 82.0174 70.7488C82.7213 71.6474 83.6436 72.4975 84.4446 73.4204Z" fill="#190078"/>
</g>
<g id="Vector_4" style="mix-blend-mode:multiply" opacity="0.2">
<path d="M40.0747 45.9754C37.3319 40.0493 33.7639 34.366 34.1522 27.5655C34.395 23.6552 35.827 19.2106 40.0504 18.2877C43.4242 17.5591 47.332 19.502 50.2447 21.0079C51.8348 21.7854 53.2862 22.8192 54.5409 24.0681C55.7511 25.5647 56.5836 27.3308 56.9681 29.2171C58.3759 33.856 61.0702 42.8909 55.4147 45.8783C53.0294 47.047 50.4116 47.6626 47.7558 47.6795C45.1 47.6963 42.4745 47.1138 40.0747 45.9754Z" fill="#190078"/>
</g>
<g id="Vector_5" style="mix-blend-mode:multiply" opacity="0.2">
<path d="M38.0831 14.2802C38.8525 14.6398 39.6701 14.8853 40.5103 15.0089C40.5103 14.6446 40.7773 14.5717 40.8744 14.2802C40.9359 14.0084 40.9359 13.7263 40.8744 13.4545C40.8101 13.2912 40.7006 13.1496 40.5587 13.0463C40.4168 12.9431 40.2485 12.8824 40.0734 12.8716C39.7989 12.8959 39.5227 12.8959 39.2481 12.8716C39.054 12.8716 39.0783 12.6773 38.8598 12.7016C38.2773 12.7016 37.986 13.6245 38.0345 14.0859L38.0831 14.2802Z" fill="#190078"/>
</g>
<g id="Vector_6" style="mix-blend-mode:multiply" opacity="0.2">
<path d="M25.316 38.0333C27.243 38.9722 29.3082 39.5954 31.4326 39.8792C31.2142 38.9563 32.0637 38.762 32.3307 38.0333C32.5281 37.3718 32.5696 36.6735 32.4521 35.9932C32.2874 35.5741 32.0095 35.209 31.6495 34.9388C31.2894 34.6686 30.8614 34.5039 30.4132 34.4631C29.7336 34.4631 28.9811 34.6331 28.3258 34.4631C27.6704 34.2931 27.8889 33.9287 27.3792 33.9773C25.9228 34.0988 25.1461 36.4061 25.316 37.4747V38.0333Z" fill="#190078"/>
</g>
<g id="Vector_7" style="mix-blend-mode:multiply" opacity="0.2">
<path d="M68.8122 15.8831C69.953 15.3245 72.4045 13.7459 73.8851 14.4988C75.0273 15.181 76.0251 16.0804 76.8221 17.1461C77.2115 17.5487 77.4985 18.0391 77.659 18.5758C77.8195 19.1126 77.8488 19.6802 77.7444 20.2306C77.4969 20.7349 77.1185 21.1632 76.6488 21.4708C76.179 21.7785 75.6353 21.9541 75.0744 21.9793C74.387 21.9205 73.7099 21.7736 73.0598 21.5421C72.2384 21.3721 71.4279 21.1531 70.6326 20.8864C69.9939 20.5834 69.4176 20.1632 68.9336 19.6477C68.6423 19.3806 68.2539 19.2105 68.0355 18.8705C67.8928 18.5925 67.8184 18.2844 67.8184 17.9719C67.8184 17.6593 67.8928 17.3513 68.0355 17.0732C68.2539 16.4903 68.8365 15.276 68.8122 15.8831Z" fill="#190078"/>
</g>
<g id="Vector_8" style="mix-blend-mode:multiply" opacity="0.2">
<path d="M64.4191 35.6289C65.1473 36.2118 66.9677 37.329 66.8463 38.5434C66.7595 39.5169 66.4876 40.4649 66.0453 41.3364C65.7783 41.9679 65.0744 42.8666 64.322 42.9151C63.9065 42.9203 63.4979 42.8094 63.142 42.5948C62.7861 42.3803 62.497 42.0707 62.3074 41.7008C62.1237 41.2328 62.0014 40.7429 61.9433 40.2435C61.795 39.6516 61.6815 39.0515 61.6035 38.4462C61.6039 37.9224 61.7027 37.4034 61.8948 36.9161C61.9331 36.625 62.0064 36.3395 62.1132 36.066C62.2525 35.8847 62.4332 35.7394 62.6401 35.6422C62.847 35.545 63.0742 35.4988 63.3026 35.5074C63.8366 35.4589 64.7832 35.4589 64.4191 35.6289Z" fill="#190078"/>
</g>
<g id="Vector_9" style="mix-blend-mode:multiply" opacity="0.2">
<path d="M47.793 66.474C48.2056 68.2956 48.2784 71.963 51.0212 71.9387C52.429 71.9387 52.9872 71.0401 52.7688 69.7529C52.7356 69.0222 52.5032 68.3145 52.0967 67.7066C51.6902 67.0986 51.1252 66.6135 50.4629 66.304C50.0565 66.1571 49.6318 66.0672 49.2008 66.0369C48.691 66.0369 48.2299 66.8383 47.793 67.0812V66.474Z" fill="#190078"/>
</g>
</g>
<defs>
<radialGradient id="paint0_radial_355_93" cx="0" cy="0" r="1" gradientUnits="userSpaceOnUse" gradientTransform="translate(59.4639 24.0331) scale(58.2721 58.8861)">
<stop stop-color="#2395C7"/>
<stop offset="0.22" stop-color="#2487BB"/>
<stop offset="0.63" stop-color="#27629D"/>
<stop offset="1" stop-color="#2A3B7C"/>
</radialGradient>
<radialGradient id="paint1_radial_355_93" cx="0" cy="0" r="1" gradientUnits="userSpaceOnUse" gradientTransform="translate(60.9152 27.9319) scale(55.4946 56.0962)">
<stop offset="0.28" stop-color="#1B5190"/>
<stop offset="0.43" stop-color="#1A4C8D"/>
<stop offset="0.61" stop-color="#183E83"/>
<stop offset="0.79" stop-color="#142772"/>
<stop offset="0.99" stop-color="#0F075B"/>
<stop offset="1" stop-color="#0F0459"/>
</radialGradient>
</defs>
</svg>
