<svg width="251" height="207" viewBox="0 0 251 207" fill="none" xmlns="http://www.w3.org/2000/svg">
<path d="M61.3563 101.263C61.3563 101.263 41.2652 165.088 43.975 198.324C21.3825 138.732 7.01018 75.9903 1.22853 11.7163C1.22853 11.7163 32.8704 74.3851 61.3563 101.263Z" fill="#461642"/>
<path d="M43.5991 197.873C43.5991 197.873 -4.94871 60.745 0.413629 12.3954L102.218 8.86861L131.909 2.60008L133.45 25.6262L248.957 14.4479C248.957 14.4479 256.111 54.7972 240.458 86.1964L209.344 140.936C209.344 140.936 190.743 178.925 168.476 188.731C168.159 189.117 127.281 220.633 43.5991 197.873Z" fill="#5B254E"/>
<path d="M3.28267 10.0032C3.28267 10.0032 10.7802 59.0355 63.7117 99.3685C108.225 95.4529 151.96 84.1263 193.087 65.8633L189.866 46.9478L211.789 53.0839C226.256 42.4342 238.964 29.5768 249.422 15.0076C207.045 11.1297 164.267 11.5382 121.74 16.2273L133.315 1.82089C89.9663 -1.56623 46.1874 1.18849 3.28267 10.0032Z" fill="#985965"/>
<path d="M190.833 42.7616L200.777 64.539L185.887 159.658C185.887 159.658 214.801 83.3031 214.559 48.7947L190.833 42.7616Z" fill="#461642"/>
<path d="M12.6521 33.7054C12.6521 33.7054 51.0242 85.1369 67.3417 89.4976C83.6592 93.8584 160.526 84.1585 196.159 66.5155C153.804 87.7912 108.267 100.772 62.2889 104.678C43.2007 82.9428 26.571 59.1652 12.6521 33.7054Z" fill="#B06979"/>
<path d="M205.673 50.2969L212.474 66.1892L218.38 47.4068C213.904 47.3939 209.567 48.3804 205.673 50.2969Z" fill="#B06979"/>
</svg>
