<svg width="407" height="649" viewBox="0 0 407 649" fill="none" xmlns="http://www.w3.org/2000/svg">
<path d="M396.277 481.775L396.277 481.775L396.272 481.778C356.059 501.437 309.724 504.616 267.053 490.643C224.382 476.67 188.717 446.639 167.589 406.891C146.462 367.143 141.527 320.792 153.828 277.628C166.127 234.465 194.697 197.868 233.502 175.565C273.065 153.86 319.608 148.597 363.159 160.905C406.712 173.214 443.808 202.116 466.5 241.42C489.192 280.723 495.674 327.301 484.557 371.173C473.441 415.044 445.612 452.719 407.034 476.129C403.482 478.179 399.897 480.061 396.277 481.775Z" fill="url(#paint0_radial_238_13847)" stroke="black"/>
<g style="mix-blend-mode:screen">
<path d="M441.083 120.378L441.086 120.38C476.706 141.072 506.257 170.792 526.76 206.542L526.76 206.543C558.304 261.179 566.889 326.085 550.628 386.985C534.366 447.884 494.59 499.787 440.049 531.276C435.068 534.152 430.338 536.881 425.531 538.81L425.518 538.815L425.506 538.82C370.405 564.399 307.574 567.855 249.937 548.477C192.301 529.099 144.243 488.36 115.652 434.643C87.0603 380.925 80.1094 318.314 96.2289 259.69C112.348 201.066 150.312 150.889 202.31 119.48L202.407 119.421L202.469 119.327L202.505 119.272C238.768 98.3361 279.943 87.4023 321.836 87.586C363.768 87.7699 404.917 99.0856 441.083 120.378Z" fill="url(#paint1_radial_238_13847)" style="mix-blend-mode:screen"/>
<path d="M441.083 120.378L441.086 120.38C476.706 141.072 506.257 170.792 526.76 206.542L526.76 206.543C558.304 261.179 566.889 326.085 550.628 386.985C534.366 447.884 494.59 499.787 440.049 531.276C435.068 534.152 430.338 536.881 425.531 538.81L425.518 538.815L425.506 538.82C370.405 564.399 307.574 567.855 249.937 548.477C192.301 529.099 144.243 488.36 115.652 434.643C87.0603 380.925 80.1094 318.314 96.2289 259.69C112.348 201.066 150.312 150.889 202.31 119.48L202.407 119.421L202.469 119.327L202.505 119.272C238.768 98.3361 279.943 87.4023 321.836 87.586C363.768 87.7699 404.917 99.0856 441.083 120.378Z" stroke="black"/>
</g>
<g style="mix-blend-mode:screen">
<path d="M396.862 488.144L396.862 488.144L396.853 488.149C392.914 490.424 389.078 492.637 385.033 494.317L385.019 494.322L385.006 494.328C340.65 515.837 289.577 519.154 242.534 503.577C195.49 488.001 156.144 454.747 132.775 410.811C109.405 366.875 103.836 315.684 117.236 268.009C130.637 220.335 161.963 179.893 204.622 155.193L204.371 154.761L204.63 155.188C226.308 142.064 250.411 133.439 275.526 129.82C300.641 126.201 326.264 127.66 350.894 134.112C375.523 140.564 398.664 151.879 418.96 167.395C439.256 182.911 456.3 202.316 469.092 224.472C481.883 246.628 490.167 271.09 493.456 296.425C496.745 321.76 494.974 347.458 488.247 372.014C481.52 396.57 469.972 419.49 454.28 439.43C438.588 459.371 419.068 475.933 396.862 488.144Z" fill="url(#paint2_radial_238_13847)" style="mix-blend-mode:screen"/>
<path d="M396.862 488.144L396.862 488.144L396.853 488.149C392.914 490.424 389.078 492.637 385.033 494.317L385.019 494.322L385.006 494.328C340.65 515.837 289.577 519.154 242.534 503.577C195.49 488.001 156.144 454.747 132.775 410.811C109.405 366.875 103.836 315.684 117.236 268.009C130.637 220.335 161.963 179.893 204.622 155.193L204.371 154.761L204.63 155.188C226.308 142.064 250.411 133.439 275.526 129.82C300.641 126.201 326.264 127.66 350.894 134.112C375.523 140.564 398.664 151.879 418.96 167.395C439.256 182.911 456.3 202.316 469.092 224.472C481.883 246.628 490.167 271.09 493.456 296.425C496.745 321.76 494.974 347.458 488.247 372.014C481.52 396.57 469.972 419.49 454.28 439.43C438.588 459.371 419.068 475.933 396.862 488.144Z" stroke="black"/>
</g>
<path d="M182.05 264.322C183.58 263.141 185.222 262.114 186.951 261.257L187.072 261.441L188.975 260.342L188.921 260.231C189.473 259.916 190.042 259.631 190.626 259.377C192.056 259.157 193.414 258.603 194.59 257.759L194.6 257.751C195.662 256.946 196.811 255.919 197.551 254.813C198.287 253.713 198.692 252.406 197.979 251.171C197.591 250.498 197.142 249.833 196.704 249.183C196.487 248.862 196.273 248.545 196.07 248.233C195.493 247.344 194.979 246.457 194.635 245.504C194.86 245.295 195.23 245.165 195.706 245.087C195.934 245.049 196.155 245.028 196.364 245.007C196.412 245.002 196.459 244.998 196.506 244.993C196.626 244.981 196.748 244.967 196.856 244.948C196.949 244.931 197.092 244.901 197.218 244.829C197.371 244.741 197.47 244.601 197.526 244.514C197.591 244.412 197.651 244.293 197.705 244.176C197.802 243.965 197.902 243.707 197.997 243.463L198.026 243.386C198.134 243.109 198.235 242.854 198.333 242.654C198.381 242.554 198.423 242.482 198.456 242.433C198.467 242.418 198.475 242.408 198.48 242.402L198.598 242.334L198.664 242.184C199.863 239.457 200.763 236.607 201.349 233.684C201.864 231.978 202.538 230.324 203.362 228.745C204.008 227.634 204.222 227.18 204.208 226.554C204.204 226.38 204.187 226.218 204.168 226.031C204.124 225.598 204.066 225.033 204.123 223.88C204.16 223.125 204.341 222.585 204.602 222.179C204.864 221.772 205.228 221.467 205.684 221.215C206.144 220.959 206.684 220.766 207.288 220.578C207.477 220.519 207.675 220.46 207.879 220.399C208.304 220.272 208.749 220.139 209.179 219.989L209.206 219.979L209.232 219.966C212.815 218.219 216.165 216.031 219.205 213.453C219.993 212.945 220.648 212.296 221.26 211.69L221.36 211.591C222.022 210.936 222.643 210.338 223.39 209.907L223.403 209.9L223.415 209.892C225.145 208.753 226.94 207.716 228.792 206.787L228.805 206.781L228.817 206.773C230.597 205.746 232.233 204.518 233.848 203.305L233.883 203.279C235.517 202.051 237.133 200.84 238.901 199.82L238.91 199.814L238.92 199.809L238.929 199.803L238.939 199.798L238.948 199.792L238.958 199.787L238.967 199.781L238.977 199.776L238.986 199.77L238.996 199.765L239.005 199.759L239.015 199.754L239.024 199.748L239.034 199.743L239.043 199.738L239.053 199.732L239.062 199.726L239.072 199.721L239.081 199.715L239.091 199.71L239.1 199.704L239.11 199.699L239.119 199.693L239.129 199.688L239.139 199.682L239.148 199.677L239.158 199.671L239.167 199.666L239.177 199.66L239.186 199.655L239.196 199.649L239.205 199.644L239.215 199.638L239.224 199.633L239.234 199.627L239.244 199.622L239.253 199.616L239.263 199.611L239.272 199.605L239.282 199.6L239.291 199.594L239.301 199.589L239.31 199.583L239.32 199.578L239.33 199.572L239.339 199.567L239.349 199.561L239.358 199.556L239.368 199.55L239.377 199.545L239.387 199.539L239.397 199.533L239.406 199.528L239.416 199.522L239.425 199.517L239.435 199.511L239.444 199.506L239.454 199.5L239.464 199.495L239.473 199.489L239.483 199.484L239.492 199.478L239.502 199.473L239.512 199.467L239.521 199.462L239.531 199.456L239.54 199.45L239.55 199.445L239.56 199.439L239.569 199.434L239.579 199.428L239.588 199.423L239.598 199.417L239.608 199.412L239.617 199.406L239.627 199.401L239.636 199.395L239.646 199.39L239.656 199.384L239.665 199.378L239.675 199.373L239.684 199.367L239.694 199.362L239.704 199.356L239.713 199.351L239.723 199.345L239.732 199.34L239.742 199.334L239.752 199.328L239.761 199.323L239.771 199.317L239.781 199.312L239.79 199.306L239.8 199.301L239.809 199.295L239.819 199.29L239.829 199.284L239.838 199.278L239.848 199.273L239.858 199.267L239.867 199.262L239.877 199.256L239.886 199.251L239.896 199.245L239.906 199.24L239.915 199.234L239.925 199.228L239.935 199.223L239.944 199.217L239.954 199.212L239.964 199.206L239.973 199.201L239.983 199.195L239.992 199.189L240.002 199.184L240.012 199.178L240.021 199.173L240.031 199.167L240.041 199.162L240.05 199.156L240.06 199.15L240.07 199.145L240.079 199.139L240.089 199.134L240.099 199.128L240.108 199.123L240.118 199.117L240.128 199.111L240.137 199.106L240.147 199.1L240.157 199.095L240.166 199.089L240.176 199.084L240.185 199.078L240.195 199.072L240.205 199.067L240.214 199.061L240.224 199.056L240.234 199.05L240.243 199.045L240.253 199.039L240.263 199.033L240.272 199.028L240.282 199.022L240.292 199.017L240.301 199.011L240.311 199.005L240.321 199L240.33 198.994L240.34 198.989L240.35 198.983L240.359 198.978L240.369 198.972L240.379 198.966L240.388 198.961L240.398 198.955L240.408 198.95L240.418 198.944L240.427 198.938L240.437 198.933L240.447 198.927L240.456 198.922L240.466 198.916L240.476 198.911L240.485 198.905L240.495 198.899L240.505 198.894L240.514 198.888L240.524 198.883L240.534 198.877L240.543 198.871L240.553 198.866L240.563 198.86L240.572 198.855L240.582 198.849L240.592 198.843L240.601 198.838L240.611 198.832L240.621 198.827L240.631 198.821L240.64 198.815L240.65 198.81L240.66 198.804L240.669 198.799L240.679 198.793L240.689 198.788L240.698 198.782L240.708 198.776L240.718 198.771L240.727 198.765L240.737 198.76L240.747 198.754L240.757 198.748L240.766 198.743L240.776 198.737L240.786 198.732L240.795 198.726L240.805 198.72L240.815 198.715L240.824 198.709L240.834 198.704L240.844 198.698L240.853 198.692L240.863 198.687L240.873 198.681L240.883 198.676L240.892 198.67L240.902 198.664L240.912 198.659L240.921 198.653L240.931 198.648L240.941 198.642L240.95 198.636L240.96 198.631L240.97 198.625L240.98 198.62L240.989 198.614L240.999 198.608L241.009 198.603L241.018 198.597L241.028 198.592L241.038 198.586L241.047 198.58L241.057 198.575L241.067 198.569L241.077 198.564L241.086 198.558L241.096 198.552L241.106 198.547L241.115 198.541L241.125 198.536L241.135 198.53L241.145 198.524L241.154 198.519L241.164 198.513L241.174 198.508L241.183 198.502L241.193 198.496L241.203 198.491L241.212 198.485L241.222 198.48L241.232 198.474L241.242 198.468L241.251 198.463L241.261 198.457L241.271 198.452L241.28 198.446L241.29 198.44L241.3 198.435L241.309 198.429L241.319 198.423L241.329 198.418L241.339 198.412L241.348 198.407L241.358 198.401L241.368 198.395L241.377 198.39L241.387 198.384L241.397 198.379L241.407 198.373L241.416 198.367L241.426 198.362L241.436 198.356L241.445 198.351L241.455 198.345L241.465 198.339L241.474 198.334L241.484 198.328L241.494 198.323L241.504 198.317L241.513 198.311L241.523 198.306L241.533 198.3L241.542 198.295L241.552 198.289L241.562 198.283L241.572 198.278L241.581 198.272L241.591 198.267L241.601 198.261L241.61 198.255L241.62 198.25L241.63 198.244L241.639 198.239L241.649 198.233L241.659 198.227L241.669 198.222L241.678 198.216L241.688 198.211L241.698 198.205L241.707 198.199L241.717 198.194L241.727 198.188L241.737 198.183L241.746 198.177L241.756 198.171L241.766 198.166L241.775 198.16L241.785 198.155L241.795 198.149L241.804 198.143L241.814 198.138L241.824 198.132L241.834 198.127L241.843 198.121L241.853 198.115L241.863 198.11L241.872 198.104L241.882 198.099L241.892 198.093L241.901 198.087L241.911 198.082L241.921 198.076L241.93 198.071L241.94 198.065L241.95 198.059L241.96 198.054L241.969 198.048L241.979 198.043L241.989 198.037L241.998 198.031L242.008 198.026L242.018 198.02L242.027 198.015L242.037 198.009L242.047 198.003L242.056 197.998L242.066 197.992L242.076 197.987L242.086 197.981L242.095 197.975L242.105 197.97L242.115 197.964L242.124 197.959L242.134 197.953L242.144 197.947L242.153 197.942L242.163 197.936L242.173 197.931L242.182 197.925L242.192 197.92L242.202 197.914L242.211 197.908L242.221 197.903L242.231 197.897L242.241 197.892L242.25 197.886L242.26 197.88L242.27 197.875L242.279 197.869L242.289 197.864L242.299 197.858L242.308 197.852L242.318 197.847L242.328 197.841L242.337 197.836L242.347 197.83L242.357 197.825L242.366 197.819L242.376 197.813L242.386 197.808L242.395 197.802L242.405 197.797L242.415 197.791L242.424 197.785L242.434 197.78L242.444 197.774L242.453 197.769L242.463 197.763L242.473 197.758L242.482 197.752L242.492 197.746L242.502 197.741L242.511 197.735L242.521 197.73L242.531 197.724L242.54 197.718L242.55 197.713L242.56 197.707L242.569 197.702L242.579 197.696L242.589 197.691L242.598 197.685L242.608 197.679L242.618 197.674L242.627 197.668L242.637 197.663L242.647 197.657L242.656 197.652L242.666 197.646L242.675 197.64L242.685 197.635L242.695 197.629L242.704 197.624L242.714 197.618L242.724 197.613L242.733 197.607L242.743 197.601L242.753 197.596L242.762 197.59L242.772 197.585L242.782 197.579L242.791 197.574L242.801 197.568L242.81 197.562L242.82 197.557L242.83 197.551L242.839 197.546L242.849 197.54L242.859 197.535L242.868 197.529L242.878 197.524L242.888 197.518L242.897 197.512L242.907 197.507L242.916 197.501L242.926 197.496L242.936 197.49L242.945 197.485L242.955 197.479L242.965 197.474L242.974 197.468L242.984 197.462L242.993 197.457L243.003 197.451L243.013 197.446L243.022 197.44L243.032 197.435L243.041 197.429L243.051 197.424L243.061 197.418L243.07 197.412L243.08 197.407L243.089 197.401L243.099 197.396L243.109 197.39L243.118 197.385L243.128 197.379L243.138 197.374L243.147 197.368L243.157 197.363L243.166 197.357L243.176 197.352L243.186 197.346L243.195 197.34L243.205 197.335L243.214 197.329L243.224 197.324L243.233 197.318L243.243 197.313L243.253 197.307L243.262 197.302L243.272 197.296L243.281 197.291L243.291 197.285L243.301 197.28L243.31 197.274L243.32 197.268L243.329 197.263L243.339 197.257L243.348 197.252L243.358 197.246L243.368 197.241L243.377 197.235L243.387 197.23L243.396 197.224L243.406 197.219L243.415 197.213L243.425 197.208L243.435 197.202L243.444 197.197L243.454 197.191L243.463 197.186L243.473 197.18L243.482 197.175L243.492 197.169L243.501 197.164L243.511 197.158L243.521 197.153L243.53 197.147L243.54 197.142L243.549 197.136L243.559 197.13L243.568 197.125L243.578 197.119L243.587 197.114L243.597 197.108L243.606 197.103L243.616 197.097L243.626 197.092L243.635 197.086L243.645 197.081L243.654 197.075L243.664 197.07L243.673 197.064L243.683 197.059L243.692 197.053L243.702 197.048L243.711 197.042L243.721 197.037L243.73 197.031L243.74 197.026L243.749 197.02L243.759 197.015L243.768 197.009L243.778 197.004L243.787 196.998L243.797 196.993L243.806 196.988L243.816 196.982L243.825 196.977L243.835 196.971L243.844 196.965C245.472 195.977 247.081 194.364 248.594 192.847C250.137 191.3 251.572 189.862 252.912 189.089L252.913 189.088C277.883 174.567 306.255 166.914 335.168 166.899C364.08 166.885 392.51 174.51 417.589 189.006L417.59 189.007C442.055 203.1 462.366 223.439 476.446 247.944C487.114 266.634 494.006 287.236 496.728 308.572C499.45 329.907 497.949 351.558 492.31 372.284C486.671 393.01 477.006 412.406 463.866 429.362C450.726 446.317 434.37 460.5 415.734 471.099L415.731 471.1C414.02 472.088 412.281 472.952 410.544 473.813L410.483 473.844C408.825 474.666 407.167 475.487 405.563 476.405C404.991 476.292 404.398 476.02 403.787 475.64C403.12 475.224 402.458 474.694 401.808 474.144C401.608 473.975 401.407 473.802 401.207 473.63C400.77 473.253 400.338 472.882 399.931 472.563C399.344 472.102 398.741 471.695 398.161 471.52L398.132 471.512L398.102 471.507C396.028 471.149 393.913 471.107 391.828 471.383C389.84 471.233 387.842 471.302 385.87 471.589L385.842 471.593L385.814 471.601C384.014 472.079 382.927 473.464 382.196 475.153C381.48 476.808 381.066 478.849 380.666 480.818L380.65 480.901C380.239 482.926 379.839 484.87 379.158 486.399C378.482 487.916 377.573 488.93 376.189 489.24L376.183 489.241C375.393 489.427 373.868 489.826 371.961 490.324C369.873 490.87 367.328 491.536 364.792 492.172C362.356 492.782 359.921 493.368 357.88 493.802C355.82 494.24 354.215 494.512 353.409 494.517L353.408 494.517C343.114 494.596 333.845 490.23 324.528 485.244C323.312 484.593 322.095 483.931 320.875 483.268C312.786 478.871 304.561 474.4 295.606 472.502C293.194 471.822 290.706 471.457 288.203 471.415L288.184 471.415L288.165 471.416C287.429 471.459 286.686 471.6 285.988 471.733L285.904 471.749C285.176 471.887 284.5 472.011 283.86 472.034C280.449 471.822 277.108 470.958 274.017 469.489L274.007 469.485L273.997 469.48C270.343 467.938 267.229 465.471 264.069 462.913C263.945 462.812 263.82 462.711 263.696 462.61C260.673 460.161 257.587 457.66 253.987 455.959L253.966 455.949L253.944 455.941C244.819 452.629 236.147 448.171 228.136 442.674C221.366 437.517 215.143 431.676 209.564 425.244C204.725 418.676 200.886 411.427 198.172 403.735C195.861 395.034 195.037 386.009 195.735 377.042C196.142 372.769 195.265 368.468 193.218 364.689L193.189 364.635L193.147 364.59C189.802 360.935 186.243 357.482 182.489 354.251C178.26 347.503 176.26 339.596 176.776 331.657L176.778 331.621L176.775 331.585C176.291 325.54 174.768 319.62 172.272 314.089L172.267 314.078L172.262 314.068C172.098 313.745 171.938 313.433 171.783 313.132C170.614 310.849 169.738 309.139 169.358 307.376C168.939 305.428 169.125 303.385 170.347 300.424C171.969 297.16 173.331 293.772 174.42 290.291L174.429 290.262L174.435 290.232C174.673 288.936 175.101 287.683 175.705 286.514C176.15 285.844 176.71 285.241 177.307 284.645C177.469 284.483 177.636 284.32 177.804 284.155C178.247 283.722 178.698 283.282 179.094 282.834C179.647 282.208 180.137 281.525 180.415 280.732C180.696 279.928 180.75 279.04 180.477 278.027L180.467 277.991L180.451 277.956C179.435 275.653 179.095 273.11 179.47 270.626C179.938 268.383 180.812 266.246 182.05 264.322Z" fill="url(#paint3_radial_238_13847)" stroke="black"/>
<g style="mix-blend-mode:multiply" opacity="0.2">
<mask id="path-5-inside-1_238_13847" fill="white">
<path d="M334.873 189.25C336.024 184.017 338.412 179.129 341.839 174.993C344.201 172.437 347.445 170.867 350.913 170.6C352.127 170.53 353.344 170.651 354.519 170.959C355.792 171.796 356.997 172.734 358.12 173.762C360.407 175.284 362.834 176.586 365.368 177.652C366.716 178.188 367.153 178.781 369.474 179.694C371.795 180.608 374.174 180.642 376.444 181.304C381.823 181.861 387.001 183.621 391.594 186.453C394.896 188.782 397.624 191.83 399.572 195.366C401.406 199.209 402.408 203.396 402.515 207.657C402.903 210.475 403.529 213.255 404.386 215.966C405.325 219.555 406.092 223.337 407.396 226.903C408.819 231.803 410.761 236.536 413.188 241.022C415.403 244.532 419.449 246.797 422.564 244.999C425.679 243.2 426.306 238.237 427.382 234.705C427.713 233.481 428.269 232.973 428.721 231.303C429.173 229.634 430.305 228.323 430.271 226.465C429.964 222.897 429.232 219.38 428.091 215.987C426.816 211.654 425.097 207.858 424.167 203.794C422.566 199.016 421.21 194.158 420.105 189.239C419.656 186.164 419.599 183.042 419.933 179.949C440.888 195.51 458.36 215.25 471.246 237.923C513.568 311.228 502.288 396.983 446.076 429.438L438.996 433.525L438.143 432.046C437.357 430.396 436.078 429.032 434.481 428.138C432.884 427.245 431.047 426.868 429.221 427.057C427.983 427.37 426.724 427.594 425.455 427.729L422.765 429.282C420.05 428.503 422.775 424.394 423.239 423.563C426.386 417.896 433.166 411.165 428.349 403.149C423.532 395.133 414.984 399.129 411.276 402.679C407.772 405.617 403.261 407.076 398.708 406.742C390.303 406.9 382.112 407.592 373.636 407.134C369.606 407.402 365.596 406.443 362.137 404.384C358.834 402.637 355.884 400.298 353.433 397.485C351.937 395.836 350.976 393.773 350.677 391.565C350.789 388.939 351.643 386.395 353.142 384.227C356.416 379.912 360.36 376.146 364.824 373.07C368.221 370.451 374.171 368.331 374.878 362.852C374.99 358.894 374.377 354.953 373.071 351.22C372.439 348.806 371.306 346.554 369.744 344.609C368.182 342.665 366.227 341.07 364.004 339.931C361.407 338.465 358.679 337.243 355.854 336.279C353.767 335.607 351.407 335.279 349.42 334.454C348.676 334.132 347.887 333.923 347.08 333.834C345.962 333.622 344.902 333.178 343.968 332.532C340.928 329.909 338.689 326.485 337.507 322.649C336.721 320.949 336.311 319.1 336.303 317.226C336.296 315.351 336.691 313.495 337.463 311.783C339.184 308.438 340.502 304.903 341.39 301.253C341.654 299.361 342.294 297.538 343.273 295.893C344.252 294.247 345.55 292.812 347.091 291.671C351.075 289.089 355.443 290.605 360.297 292.309C365.406 294.235 370.311 296.654 374.945 299.532C376.247 300.425 377.652 301.158 379.132 301.715C381.284 301.912 383.367 302.566 385.242 303.633C387.867 305.311 390.048 307.593 391.604 310.288C393.16 312.983 394.045 316.013 394.186 319.125C394.609 326.111 395.757 333.031 397.613 339.774C398.856 343.219 400.927 346.305 403.645 348.761C406.363 351.218 409.646 352.971 413.207 353.868C415.001 353.859 416.777 353.495 418.432 352.798C420.087 352.1 421.588 351.082 422.848 349.803C424.928 346.935 425.787 343.367 425.237 339.88C424.575 333.76 423.108 327.756 420.875 322.024C419.853 319.325 418.6 316.718 417.132 314.233C415.679 311.88 414.944 309.299 413.562 306.905C411.225 302.365 408.527 298.02 405.494 293.912C402.724 289.048 399.457 284.484 395.744 280.294C391.488 276.689 386.389 274.209 380.914 273.083C375.412 271.565 370.259 272.286 364.86 271.272C362.35 270.968 359.865 270.489 357.424 269.838C354.769 268.836 353.228 268.129 349.336 266.621C345.445 265.112 340.699 262.124 336.801 262.403C335.222 262.462 333.677 262.879 332.281 263.624C330.886 264.368 329.678 265.42 328.75 266.698C327.822 267.977 327.198 269.449 326.925 271.001C326.653 272.554 326.74 274.147 327.179 275.658C328.516 285.495 331.792 297.218 327.688 305.315C326.706 306.978 325.472 308.482 324.032 309.773C323.07 311.005 321.801 311.964 320.352 312.555C315.241 314.003 309.684 310.264 305.421 305.495C300.539 300.404 296.184 294.834 292.424 288.87C290.472 284.912 289.304 280.614 288.984 276.209C288.23 269.508 295.806 270.204 296.797 264.562C296.579 260.324 295.363 256.202 293.247 252.528C291.879 250.387 290.798 248.076 290.033 245.652C289.592 243.09 290.854 241.516 291.427 239.402C292.245 235.442 292.295 231.365 291.573 227.393C291.133 225.18 291.201 222.894 291.772 220.707C292.546 218.288 294.429 217.952 296.015 216.285C297.771 214.612 300.099 213.671 302.521 213.655C304.748 213.055 307.08 212.96 309.345 213.377C311.788 213.934 314.18 214.688 316.499 215.631C318.608 216.667 320.992 218.671 323.189 218.717C327.22 218.831 327.897 213.464 328.497 209.925C329.157 206.82 330.044 203.766 331.15 200.788C332.591 197.233 333.524 193.127 334.873 189.25Z"/>
</mask>
<path d="M334.873 189.25C336.024 184.017 338.412 179.129 341.839 174.993C344.201 172.437 347.445 170.867 350.913 170.6C352.127 170.53 353.344 170.651 354.519 170.959C355.792 171.796 356.997 172.734 358.12 173.762C360.407 175.284 362.834 176.586 365.368 177.652C366.716 178.188 367.153 178.781 369.474 179.694C371.795 180.608 374.174 180.642 376.444 181.304C381.823 181.861 387.001 183.621 391.594 186.453C394.896 188.782 397.624 191.83 399.572 195.366C401.406 199.209 402.408 203.396 402.515 207.657C402.903 210.475 403.529 213.255 404.386 215.966C405.325 219.555 406.092 223.337 407.396 226.903C408.819 231.803 410.761 236.536 413.188 241.022C415.403 244.532 419.449 246.797 422.564 244.999C425.679 243.2 426.306 238.237 427.382 234.705C427.713 233.481 428.269 232.973 428.721 231.303C429.173 229.634 430.305 228.323 430.271 226.465C429.964 222.897 429.232 219.38 428.091 215.987C426.816 211.654 425.097 207.858 424.167 203.794C422.566 199.016 421.21 194.158 420.105 189.239C419.656 186.164 419.599 183.042 419.933 179.949C440.888 195.51 458.36 215.25 471.246 237.923C513.568 311.228 502.288 396.983 446.076 429.438L438.996 433.525L438.143 432.046C437.357 430.396 436.078 429.032 434.481 428.138C432.884 427.245 431.047 426.868 429.221 427.057C427.983 427.37 426.724 427.594 425.455 427.729L422.765 429.282C420.05 428.503 422.775 424.394 423.239 423.563C426.386 417.896 433.166 411.165 428.349 403.149C423.532 395.133 414.984 399.129 411.276 402.679C407.772 405.617 403.261 407.076 398.708 406.742C390.303 406.9 382.112 407.592 373.636 407.134C369.606 407.402 365.596 406.443 362.137 404.384C358.834 402.637 355.884 400.298 353.433 397.485C351.937 395.836 350.976 393.773 350.677 391.565C350.789 388.939 351.643 386.395 353.142 384.227C356.416 379.912 360.36 376.146 364.824 373.07C368.221 370.451 374.171 368.331 374.878 362.852C374.99 358.894 374.377 354.953 373.071 351.22C372.439 348.806 371.306 346.554 369.744 344.609C368.182 342.665 366.227 341.07 364.004 339.931C361.407 338.465 358.679 337.243 355.854 336.279C353.767 335.607 351.407 335.279 349.42 334.454C348.676 334.132 347.887 333.923 347.08 333.834C345.962 333.622 344.902 333.178 343.968 332.532C340.928 329.909 338.689 326.485 337.507 322.649C336.721 320.949 336.311 319.1 336.303 317.226C336.296 315.351 336.691 313.495 337.463 311.783C339.184 308.438 340.502 304.903 341.39 301.253C341.654 299.361 342.294 297.538 343.273 295.893C344.252 294.247 345.55 292.812 347.091 291.671C351.075 289.089 355.443 290.605 360.297 292.309C365.406 294.235 370.311 296.654 374.945 299.532C376.247 300.425 377.652 301.158 379.132 301.715C381.284 301.912 383.367 302.566 385.242 303.633C387.867 305.311 390.048 307.593 391.604 310.288C393.16 312.983 394.045 316.013 394.186 319.125C394.609 326.111 395.757 333.031 397.613 339.774C398.856 343.219 400.927 346.305 403.645 348.761C406.363 351.218 409.646 352.971 413.207 353.868C415.001 353.859 416.777 353.495 418.432 352.798C420.087 352.1 421.588 351.082 422.848 349.803C424.928 346.935 425.787 343.367 425.237 339.88C424.575 333.76 423.108 327.756 420.875 322.024C419.853 319.325 418.6 316.718 417.132 314.233C415.679 311.88 414.944 309.299 413.562 306.905C411.225 302.365 408.527 298.02 405.494 293.912C402.724 289.048 399.457 284.484 395.744 280.294C391.488 276.689 386.389 274.209 380.914 273.083C375.412 271.565 370.259 272.286 364.86 271.272C362.35 270.968 359.865 270.489 357.424 269.838C354.769 268.836 353.228 268.129 349.336 266.621C345.445 265.112 340.699 262.124 336.801 262.403C335.222 262.462 333.677 262.879 332.281 263.624C330.886 264.368 329.678 265.42 328.75 266.698C327.822 267.977 327.198 269.449 326.925 271.001C326.653 272.554 326.74 274.147 327.179 275.658C328.516 285.495 331.792 297.218 327.688 305.315C326.706 306.978 325.472 308.482 324.032 309.773C323.07 311.005 321.801 311.964 320.352 312.555C315.241 314.003 309.684 310.264 305.421 305.495C300.539 300.404 296.184 294.834 292.424 288.87C290.472 284.912 289.304 280.614 288.984 276.209C288.23 269.508 295.806 270.204 296.797 264.562C296.579 260.324 295.363 256.202 293.247 252.528C291.879 250.387 290.798 248.076 290.033 245.652C289.592 243.09 290.854 241.516 291.427 239.402C292.245 235.442 292.295 231.365 291.573 227.393C291.133 225.18 291.201 222.894 291.772 220.707C292.546 218.288 294.429 217.952 296.015 216.285C297.771 214.612 300.099 213.671 302.521 213.655C304.748 213.055 307.08 212.96 309.345 213.377C311.788 213.934 314.18 214.688 316.499 215.631C318.608 216.667 320.992 218.671 323.189 218.717C327.22 218.831 327.897 213.464 328.497 209.925C329.157 206.82 330.044 203.766 331.15 200.788C332.591 197.233 333.524 193.127 334.873 189.25Z" fill="#190078"/>
<path d="M358.407 322.224L357.944 322.414L357.948 322.424L357.952 322.433L358.407 322.224ZM357.564 316.514L357.073 316.422L357.069 316.444L357.066 316.466L357.564 316.514ZM358.861 313.398L359.273 313.681L359.273 313.681L358.861 313.398ZM361.309 311.066L361.101 310.611L361.073 310.624L361.046 310.641L361.309 311.066ZM366.311 310.901L366.63 310.516L366.567 310.463L366.49 310.434L366.311 310.901ZM371.864 317.084L371.446 317.36L371.457 317.376L371.469 317.391L371.864 317.084ZM374.1 320.957L373.636 321.145L373.649 321.177L373.667 321.207L374.1 320.957ZM375.423 324.23L374.923 324.221L374.922 324.286L374.937 324.349L375.423 324.23ZM369.394 331.936L369.118 331.519L368.726 331.779L368.961 332.186L369.394 331.936ZM370.004 332.992L369.829 333.461L371.133 333.948L370.437 332.742L370.004 332.992ZM425.492 376.99L425.986 376.916L425.986 376.916L425.492 376.99ZM425.282 379.851L425.738 380.056L425.751 380.027L425.76 379.997L425.282 379.851ZM420.846 384.102L420.66 383.638L420.642 383.645L420.625 383.654L420.846 384.102ZM408.579 387.054L408.572 386.553L408.562 386.554L408.579 387.054ZM394.46 385.816L394.565 385.327L394.174 386.226L394.46 385.816ZM389.98 383.614L390.321 383.249L390.309 383.237L390.296 383.227L389.98 383.614ZM384.852 377.186L384.385 377.363L384.393 377.386L384.404 377.407L384.852 377.186ZM385.656 360.103L385.247 359.816L385.224 359.848L385.207 359.884L385.656 360.103ZM358.869 322.035C358.159 320.305 357.882 318.427 358.062 316.562L357.066 316.466C356.871 318.493 357.172 320.534 357.944 322.414L358.869 322.035ZM358.055 316.607C358.253 315.559 358.667 314.562 359.273 313.681L358.449 313.115C357.765 314.11 357.296 315.237 357.073 316.422L358.055 316.607ZM359.273 313.681C359.879 312.8 360.662 312.054 361.572 311.491L361.046 310.641C360.018 311.276 359.133 312.119 358.449 313.115L359.273 313.681ZM361.518 311.52C362.24 311.19 363.02 311.006 363.812 310.98L363.78 309.98C362.854 310.011 361.944 310.225 361.101 310.611L361.518 311.52ZM363.812 310.98C364.605 310.953 365.394 311.085 366.133 311.368L366.49 310.434C365.626 310.104 364.705 309.95 363.78 309.98L363.812 310.98ZM365.992 311.286C368.101 313.031 369.938 315.078 371.446 317.36L372.281 316.808C370.718 314.444 368.814 312.324 366.63 310.516L365.992 311.286ZM371.469 317.391C372.362 318.536 373.091 319.799 373.636 321.145L374.563 320.769C373.983 319.338 373.207 317.994 372.258 316.777L371.469 317.391ZM373.667 321.207C373.891 321.596 374.215 322.158 374.482 322.737C374.758 323.337 374.93 323.87 374.923 324.221L375.923 324.24C375.934 323.641 375.669 322.925 375.39 322.319C375.102 321.692 374.755 321.093 374.533 320.707L373.667 321.207ZM374.937 324.349C375.189 325.382 375.092 326.23 374.792 326.948C374.489 327.674 373.965 328.3 373.315 328.858C372.665 329.417 371.909 329.892 371.162 330.325C370.435 330.746 369.68 331.146 369.118 331.519L369.67 332.353C370.2 332.001 370.883 331.642 371.663 331.19C372.424 330.749 373.245 330.237 373.967 329.617C374.69 328.995 375.333 328.249 375.715 327.333C376.101 326.408 376.209 325.342 375.909 324.112L374.937 324.349ZM368.961 332.186L369.571 333.242L370.437 332.742L369.827 331.686L368.961 332.186ZM370.179 332.524C365.159 330.649 361.093 326.873 358.861 322.016L357.952 322.433C360.295 327.532 364.562 331.494 369.829 333.461L370.179 332.524ZM424.036 374.603C424.536 375.341 424.865 376.182 424.997 377.065L425.986 376.916C425.831 375.886 425.448 374.904 424.864 374.042L424.036 374.603ZM424.997 377.065C425.13 377.947 425.064 378.849 424.804 379.706L425.76 379.997C426.064 378.998 426.141 377.946 425.986 376.916L424.997 377.065ZM424.826 379.646C424.009 381.464 422.514 382.896 420.66 383.638L421.032 384.567C423.126 383.728 424.814 382.111 425.738 380.056L424.826 379.646ZM420.625 383.654C416.869 385.5 412.751 386.49 408.572 386.554L408.587 387.553C412.914 387.488 417.177 386.462 421.066 384.551L420.625 383.654ZM408.562 386.554C403.86 386.718 399.16 386.306 394.565 385.327L394.356 386.305C399.031 387.301 403.814 387.72 408.597 387.553L408.562 386.554ZM394.174 386.226C394.563 386.497 394.81 386.695 394.949 386.827C394.982 386.859 395.007 386.885 395.024 386.904C395.041 386.924 395.046 386.933 395.045 386.931C395.044 386.929 395.04 386.923 395.035 386.912C395.03 386.901 395.022 386.881 395.015 386.854C395.001 386.802 394.987 386.694 395.043 386.572C395.101 386.445 395.2 386.379 395.267 386.35C395.327 386.325 395.372 386.323 395.379 386.322C395.394 386.322 395.374 386.324 395.302 386.307C395.166 386.275 394.954 386.203 394.676 386.084C393.561 385.61 391.702 384.536 390.321 383.249L389.639 383.98C391.119 385.36 393.082 386.492 394.284 387.004C394.584 387.132 394.857 387.23 395.074 387.281C395.178 387.305 395.301 387.327 395.42 387.322C395.494 387.319 395.811 387.297 395.952 386.987C396.02 386.839 396.007 386.698 395.984 386.607C395.961 386.518 395.921 386.445 395.889 386.394C395.824 386.291 395.733 386.193 395.639 386.103C395.445 385.919 395.149 385.687 394.747 385.406L394.174 386.226ZM390.296 383.227C388.2 381.52 386.497 379.385 385.301 376.964L384.404 377.407C385.664 379.957 387.458 382.205 389.664 384.002L390.296 383.227ZM385.32 377.009C384.304 374.326 383.85 371.463 383.985 368.593L382.986 368.546C382.845 371.552 383.321 374.552 384.385 377.363L385.32 377.009ZM383.985 368.593C384.12 365.724 384.842 362.909 386.106 360.323L385.207 359.884C383.883 362.593 383.128 365.541 382.986 368.546L383.985 368.593ZM386.065 360.391C388.074 357.534 391.107 355.556 394.532 354.868L394.335 353.888C390.659 354.626 387.403 356.749 385.247 359.816L386.065 360.391ZM341.839 174.993L341.105 174.315L341.087 174.335L341.069 174.355L341.839 174.993ZM334.873 189.25L335.817 189.578L335.836 189.522L335.849 189.465L334.873 189.25ZM331.15 200.788L330.224 200.412L330.218 200.426L330.213 200.44L331.15 200.788ZM328.497 209.925L327.519 209.717L327.514 209.737L327.511 209.758L328.497 209.925ZM323.189 218.717L323.217 217.717L323.21 217.717L323.189 218.717ZM316.499 215.631L316.94 214.734L316.909 214.718L316.876 214.705L316.499 215.631ZM309.345 213.377L309.567 212.402L309.547 212.397L309.526 212.393L309.345 213.377ZM302.521 213.655L302.527 214.655L302.656 214.654L302.781 214.621L302.521 213.655ZM296.015 216.285L295.325 215.561L295.308 215.578L295.291 215.595L296.015 216.285ZM291.772 220.707L290.819 220.402L290.811 220.428L290.804 220.454L291.772 220.707ZM291.573 227.393L292.557 227.215L292.556 227.206L292.554 227.198L291.573 227.393ZM291.427 239.402L292.392 239.663L292.4 239.634L292.406 239.604L291.427 239.402ZM290.033 245.652L289.047 245.822L289.059 245.889L289.079 245.954L290.033 245.652ZM293.247 252.528L294.114 252.029L294.102 252.009L294.09 251.99L293.247 252.528ZM296.797 264.562L297.782 264.735L297.801 264.624L297.795 264.511L296.797 264.562ZM288.984 276.209L289.981 276.136L289.98 276.116L289.978 276.097L288.984 276.209ZM292.424 288.87L291.527 289.312L291.55 289.359L291.578 289.403L292.424 288.87ZM305.421 305.495L306.166 304.829L306.155 304.816L306.143 304.803L305.421 305.495ZM320.352 312.555L320.624 313.517L320.678 313.502L320.729 313.481L320.352 312.555ZM324.032 309.773L323.364 309.028L323.298 309.087L323.244 309.157L324.032 309.773ZM327.688 305.315L328.549 305.823L328.565 305.795L328.58 305.767L327.688 305.315ZM327.179 275.658L328.17 275.523L328.16 275.45L328.139 275.379L327.179 275.658ZM326.925 271.001L325.94 270.829L325.94 270.829L326.925 271.001ZM328.75 266.698L329.559 267.286L329.559 267.286L328.75 266.698ZM332.281 263.624L331.811 262.741L331.811 262.741L332.281 263.624ZM336.801 262.403L336.838 263.403L336.855 263.402L336.872 263.401L336.801 262.403ZM357.424 269.838L357.071 270.774L357.118 270.791L357.166 270.804L357.424 269.838ZM364.86 271.272L365.044 270.289L365.012 270.283L364.98 270.28L364.86 271.272ZM380.914 273.083L380.648 274.047L380.68 274.055L380.712 274.062L380.914 273.083ZM395.744 280.294L396.492 279.631L396.445 279.577L396.39 279.531L395.744 280.294ZM405.494 293.912L404.625 294.407L404.654 294.458L404.69 294.506L405.494 293.912ZM413.562 306.905L412.673 307.363L412.684 307.384L412.696 307.405L413.562 306.905ZM417.132 314.233L417.993 313.724L417.988 313.716L417.983 313.708L417.132 314.233ZM420.875 322.024L419.94 322.378L419.943 322.387L420.875 322.024ZM425.237 339.88L424.243 339.988L424.246 340.012L424.249 340.036L425.237 339.88ZM422.848 349.803L423.561 350.505L423.614 350.451L423.658 350.39L422.848 349.803ZM418.432 352.798L418.043 351.876L418.043 351.876L418.432 352.798ZM413.207 353.868L412.962 354.837L413.085 354.868L413.211 354.868L413.207 353.868ZM397.613 339.774L396.648 340.039L396.659 340.077L396.672 340.113L397.613 339.774ZM394.186 319.125L393.187 319.17L393.188 319.178L393.188 319.185L394.186 319.125ZM385.242 303.633L385.781 302.79L385.759 302.776L385.736 302.764L385.242 303.633ZM379.132 301.715L378.78 302.651L378.906 302.698L379.04 302.711L379.132 301.715ZM374.945 299.532L375.511 298.707L375.492 298.694L375.473 298.682L374.945 299.532ZM360.297 292.309L360.65 291.373L360.639 291.369L360.628 291.365L360.297 292.309ZM347.091 291.671L346.547 290.832L346.521 290.849L346.496 290.867L347.091 291.671ZM341.39 301.253L342.362 301.489L342.374 301.441L342.381 301.391L341.39 301.253ZM337.463 311.783L336.574 311.325L336.562 311.348L336.552 311.371L337.463 311.783ZM337.507 322.649L338.463 322.354L338.443 322.29L338.415 322.229L337.507 322.649ZM343.968 332.532L343.315 333.289L343.356 333.324L343.399 333.355L343.968 332.532ZM347.08 333.834L346.893 334.817L346.931 334.824L346.97 334.828L347.08 333.834ZM349.42 334.454L349.023 335.372L349.03 335.375L349.037 335.378L349.42 334.454ZM355.854 336.279L356.177 335.333L356.169 335.33L356.161 335.328L355.854 336.279ZM364.004 339.931L363.512 340.801L363.53 340.811L363.547 340.82L364.004 339.931ZM369.744 344.609L368.964 345.236L368.964 345.236L369.744 344.609ZM373.071 351.22L372.103 351.473L372.113 351.513L372.127 351.551L373.071 351.22ZM374.878 362.852L375.87 362.98L375.876 362.931L375.877 362.881L374.878 362.852ZM364.824 373.07L365.391 373.893L365.413 373.878L365.434 373.862L364.824 373.07ZM353.142 384.227L352.345 383.622L352.332 383.64L352.319 383.658L353.142 384.227ZM350.677 391.565L349.678 391.523L349.674 391.612L349.686 391.7L350.677 391.565ZM353.433 397.485L354.187 396.828L354.181 396.82L354.174 396.813L353.433 397.485ZM362.137 404.384L362.648 403.525L362.626 403.512L362.604 403.5L362.137 404.384ZM373.636 407.134L373.69 406.136L373.63 406.132L373.569 406.136L373.636 407.134ZM398.708 406.742L398.781 405.745L398.735 405.742L398.689 405.743L398.708 406.742ZM411.276 402.679L411.918 403.445L411.943 403.424L411.967 403.401L411.276 402.679ZM428.349 403.149L429.207 402.634L429.207 402.634L428.349 403.149ZM423.239 423.563L424.112 424.05L424.113 424.048L423.239 423.563ZM422.765 429.282L422.489 430.243L422.897 430.36L423.265 430.148L422.765 429.282ZM425.455 427.729L425.35 426.734L425.139 426.757L424.955 426.863L425.455 427.729ZM429.221 427.057L429.118 426.062L429.046 426.07L428.976 426.088L429.221 427.057ZM438.143 432.046L437.24 432.476L437.257 432.512L437.277 432.546L438.143 432.046ZM438.996 433.525L438.13 434.025L438.63 434.891L439.496 434.391L438.996 433.525ZM471.246 237.923L470.376 238.417L470.38 238.423L471.246 237.923ZM419.933 179.949L420.53 179.146L419.127 178.105L418.939 179.842L419.933 179.949ZM420.105 189.239L419.116 189.383L419.121 189.421L419.13 189.458L420.105 189.239ZM424.167 203.794L425.141 203.571L425.13 203.523L425.115 203.477L424.167 203.794ZM428.091 215.987L427.132 216.27L427.137 216.288L427.143 216.306L428.091 215.987ZM430.271 226.465L431.27 226.447L431.27 226.413L431.267 226.38L430.271 226.465ZM427.382 234.705L428.339 234.997L428.343 234.982L428.347 234.967L427.382 234.705ZM413.188 241.022L412.309 241.498L412.325 241.528L412.343 241.556L413.188 241.022ZM407.396 226.903L408.357 226.624L408.347 226.591L408.335 226.56L407.396 226.903ZM404.386 215.966L405.353 215.713L405.347 215.689L405.339 215.665L404.386 215.966ZM402.515 207.657L401.515 207.682L401.516 207.738L401.524 207.794L402.515 207.657ZM399.572 195.366L400.475 194.936L400.462 194.91L400.448 194.884L399.572 195.366ZM391.594 186.453L392.17 185.635L392.145 185.618L392.119 185.601L391.594 186.453ZM376.444 181.304L376.164 182.264L376.251 182.289L376.341 182.298L376.444 181.304ZM369.474 179.694L369.84 178.764L369.84 178.764L369.474 179.694ZM365.368 177.652L364.981 178.574L364.99 178.578L364.999 178.581L365.368 177.652ZM358.12 173.762L357.444 174.5L357.501 174.552L357.566 174.595L358.12 173.762ZM354.519 170.959L355.068 170.123L354.931 170.033L354.772 169.992L354.519 170.959ZM350.913 170.6L350.856 169.601L350.846 169.602L350.836 169.603L350.913 170.6ZM341.069 174.355C337.541 178.613 335.081 183.646 333.896 189.035L335.849 189.465C336.966 184.387 339.284 179.644 342.609 175.632L341.069 174.355ZM333.928 188.921C333.244 190.887 332.665 192.914 332.087 194.854C331.506 196.809 330.924 198.683 330.224 200.412L332.077 201.163C332.817 199.337 333.422 197.382 334.004 195.425C334.591 193.454 335.152 191.489 335.817 189.578L333.928 188.921ZM330.213 200.44C329.09 203.463 328.189 206.564 327.519 209.717L329.475 210.133C330.125 207.076 330.999 204.069 332.088 201.136L330.213 200.44ZM327.511 209.758C327.201 211.584 326.899 213.666 326.208 215.301C325.868 216.106 325.464 216.722 324.988 217.126C324.535 217.51 323.977 217.739 323.217 217.717L323.161 219.716C324.416 219.752 325.455 219.352 326.281 218.651C327.084 217.971 327.643 217.045 328.05 216.08C328.855 214.176 329.192 211.805 329.483 210.092L327.511 209.758ZM323.21 217.717C322.377 217.699 321.419 217.3 320.3 216.673C319.751 216.365 319.209 216.03 318.641 215.688C318.085 215.352 317.509 215.013 316.94 214.734L316.058 216.529C316.543 216.767 317.056 217.067 317.609 217.4C318.15 217.726 318.736 218.089 319.322 218.417C320.471 219.062 321.804 219.688 323.168 219.716L323.21 217.717ZM316.876 214.705C314.507 213.741 312.063 212.971 309.567 212.402L309.123 214.352C311.513 214.897 313.854 215.634 316.122 216.557L316.876 214.705ZM309.526 212.393C307.115 211.95 304.632 212.051 302.261 212.69L302.781 214.621C304.865 214.06 307.046 213.971 309.164 214.36L309.526 212.393ZM302.514 212.655C299.837 212.673 297.265 213.713 295.325 215.561L296.705 217.009C298.276 215.512 300.36 214.67 302.527 214.655L302.514 212.655ZM295.291 215.595C294.563 216.36 293.877 216.724 292.976 217.424C292.113 218.094 291.288 218.936 290.819 220.402L292.724 221.011C293.029 220.058 293.533 219.523 294.202 219.003C294.833 218.514 295.881 217.876 296.74 216.974L295.291 215.595ZM290.804 220.454C290.195 222.788 290.123 225.227 290.592 227.588L292.554 227.198C292.144 225.134 292.207 223.001 292.739 220.959L290.804 220.454ZM290.589 227.572C291.288 231.417 291.24 235.365 290.447 239.2L292.406 239.604C293.25 235.519 293.302 231.313 292.557 227.215L290.589 227.572ZM290.462 239.14C290.334 239.613 290.165 240.065 289.976 240.542C289.792 241.005 289.579 241.518 289.403 242.038C289.037 243.115 288.789 244.325 289.047 245.822L291.018 245.483C290.835 244.418 290.998 243.56 291.296 242.681C291.452 242.223 291.634 241.785 291.835 241.278C292.03 240.786 292.234 240.248 292.392 239.663L290.462 239.14ZM289.079 245.954C289.871 248.461 290.989 250.852 292.405 253.067L294.09 251.99C292.768 249.923 291.725 247.691 290.986 245.351L289.079 245.954ZM292.381 253.027C294.417 256.564 295.588 260.533 295.798 264.614L297.795 264.511C297.569 260.115 296.308 255.839 294.114 252.029L292.381 253.027ZM295.812 264.389C295.402 266.722 293.701 267.719 291.657 269.174C290.685 269.865 289.638 270.676 288.906 271.815C288.15 272.993 287.779 274.44 287.99 276.32L289.978 276.097C289.812 274.627 290.106 273.649 290.589 272.896C291.097 272.105 291.864 271.481 292.816 270.803C294.619 269.52 297.201 268.045 297.782 264.735L295.812 264.389ZM287.987 276.281C288.316 280.815 289.518 285.239 291.527 289.312L293.32 288.427C291.426 284.586 290.293 280.413 289.981 276.136L287.987 276.281ZM291.578 289.403C295.374 295.425 299.77 301.048 304.699 306.188L306.143 304.803C301.307 299.761 296.994 294.244 293.269 288.336L291.578 289.403ZM304.675 306.162C306.856 308.601 309.402 310.818 312.102 312.241C314.804 313.665 317.741 314.334 320.624 313.517L320.079 311.593C317.852 312.224 315.455 311.747 313.035 310.472C310.613 309.195 308.249 307.158 306.166 304.829L304.675 306.162ZM320.729 313.481C322.339 312.825 323.75 311.758 324.82 310.388L323.244 309.157C322.389 310.252 321.262 311.104 319.975 311.629L320.729 313.481ZM324.699 310.518C326.216 309.159 327.515 307.575 328.549 305.823L326.827 304.806C325.897 306.382 324.729 307.806 323.364 309.028L324.699 310.518ZM328.58 305.767C330.762 301.461 330.948 296.273 330.47 291.048C329.996 285.871 328.821 280.312 328.17 275.523L326.188 275.792C326.874 280.84 328.006 286.062 328.478 291.23C328.947 296.35 328.718 301.072 326.796 304.863L328.58 305.767ZM328.139 275.379C327.743 274.015 327.665 272.577 327.91 271.174L325.94 270.829C325.642 272.532 325.737 274.279 326.219 275.937L328.139 275.379ZM327.91 271.174C328.156 269.771 328.72 268.441 329.559 267.286L327.941 266.111C326.923 267.512 326.239 269.126 325.94 270.829L327.91 271.174ZM329.559 267.286C330.398 266.13 331.49 265.179 332.752 264.506L331.811 262.741C330.282 263.557 328.958 264.709 327.941 266.111L329.559 267.286ZM332.752 264.506C334.014 263.833 335.411 263.456 336.838 263.403L336.764 261.404C335.034 261.468 333.34 261.926 331.811 262.741L332.752 264.506ZM336.872 263.401C338.571 263.279 340.545 263.872 342.686 264.765C343.744 265.206 344.803 265.702 345.864 266.193C346.914 266.68 347.968 267.163 348.975 267.553L349.698 265.688C348.759 265.324 347.76 264.868 346.704 264.379C345.659 263.894 344.558 263.378 343.456 262.919C341.277 262.01 338.929 261.249 336.73 261.406L336.872 263.401ZM348.975 267.553C352.778 269.027 354.451 269.785 357.071 270.774L357.777 268.902C355.086 267.887 353.678 267.231 349.698 265.688L348.975 267.553ZM357.166 270.804C359.653 271.467 362.183 271.955 364.739 272.265L364.98 270.28C362.516 269.981 360.078 269.51 357.681 268.872L357.166 270.804ZM364.675 272.255C367.458 272.778 370.18 272.853 372.797 272.987C375.439 273.123 378.009 273.319 380.648 274.047L381.18 272.119C378.316 271.329 375.559 271.126 372.899 270.99C370.215 270.852 367.661 270.781 365.044 270.289L364.675 272.255ZM380.712 274.062C386.024 275.155 390.97 277.56 395.097 281.057L396.39 279.531C392.007 275.817 386.755 273.263 381.115 272.103L380.712 274.062ZM394.995 280.957C398.662 285.096 401.889 289.603 404.625 294.407L406.363 293.417C403.559 288.493 400.251 283.873 396.492 279.631L394.995 280.957ZM404.69 294.506C407.691 298.571 410.361 302.87 412.673 307.363L414.451 306.448C412.09 301.86 409.364 297.469 406.298 293.318L404.69 294.506ZM412.696 307.405C413.353 308.543 413.859 309.73 414.403 310.983C414.94 312.218 415.512 313.513 416.281 314.759L417.983 313.708C417.299 312.6 416.777 311.428 416.238 310.186C415.706 308.962 415.153 307.662 414.428 306.405L412.696 307.405ZM416.271 314.742C417.71 317.178 418.938 319.732 419.94 322.378L421.81 321.67C420.768 318.917 419.49 316.259 417.993 313.724L416.271 314.742ZM419.943 322.387C422.145 328.037 423.59 333.955 424.243 339.988L426.231 339.772C425.56 333.564 424.072 327.475 421.807 321.661L419.943 322.387ZM424.249 340.036C424.757 343.26 423.963 346.561 422.039 349.216L423.658 350.39C425.892 347.308 426.816 343.473 426.225 339.724L424.249 340.036ZM422.136 349.101C420.968 350.286 419.577 351.23 418.043 351.876L418.82 353.719C420.596 352.97 422.208 351.878 423.561 350.505L422.136 349.101ZM418.043 351.876C416.509 352.523 414.864 352.86 413.202 352.868L413.211 354.868C415.137 354.858 417.044 354.468 418.82 353.719L418.043 351.876ZM413.451 352.898C410.048 352.041 406.912 350.366 404.315 348.019L402.974 349.503C405.814 352.07 409.243 353.901 412.962 354.837L413.451 352.898ZM404.315 348.019C401.719 345.673 399.741 342.725 398.553 339.434L396.672 340.113C397.971 343.713 400.134 346.936 402.974 349.503L404.315 348.019ZM398.577 339.509C396.74 332.832 395.603 325.981 395.184 319.064L393.188 319.185C393.615 326.24 394.775 333.229 396.648 340.039L398.577 339.509ZM395.185 319.079C395.037 315.807 394.106 312.621 392.47 309.788L390.738 310.788C392.214 313.344 393.053 316.218 393.187 319.17L395.185 319.079ZM392.47 309.788C390.834 306.954 388.54 304.555 385.781 302.79L384.703 304.475C387.193 306.067 389.262 308.232 390.738 310.788L392.47 309.788ZM385.736 302.764C383.738 301.626 381.517 300.93 379.223 300.719L379.04 302.711C381.051 302.895 382.997 303.506 384.747 304.502L385.736 302.764ZM379.484 300.779C378.08 300.251 376.746 299.555 375.511 298.707L374.379 300.356C375.747 301.295 377.225 302.066 378.78 302.651L379.484 300.779ZM375.473 298.682C370.784 295.77 365.819 293.322 360.65 291.373L359.944 293.245C364.992 295.148 369.839 297.538 374.417 300.381L375.473 298.682ZM360.628 291.365C358.226 290.522 355.814 289.675 353.489 289.39C351.124 289.1 348.784 289.382 346.547 290.832L347.635 292.51C349.382 291.378 351.219 291.127 353.246 291.375C355.315 291.629 357.514 292.392 359.966 293.252L360.628 291.365ZM346.496 290.867C344.849 292.087 343.461 293.622 342.414 295.381L344.133 296.404C345.044 294.873 346.252 293.537 347.686 292.475L346.496 290.867ZM342.414 295.381C341.367 297.141 340.682 299.09 340.4 301.115L342.381 301.391C342.626 299.631 343.222 297.935 344.133 296.404L342.414 295.381ZM340.419 301.017C339.549 304.59 338.259 308.051 336.574 311.325L338.353 312.24C340.11 308.825 341.455 305.217 342.362 301.489L340.419 301.017ZM336.552 311.371C335.721 313.214 335.295 315.212 335.303 317.23L337.303 317.222C337.296 315.491 337.662 313.776 338.375 312.194L336.552 311.371ZM335.303 317.23C335.311 319.248 335.753 321.239 336.599 323.068L338.415 322.229C337.689 320.66 337.31 318.953 337.303 317.222L335.303 317.23ZM336.551 322.943C337.789 326.959 340.132 330.544 343.315 333.289L344.622 331.775C341.723 329.275 339.589 326.011 338.463 322.354L336.551 322.943ZM343.399 333.355C344.448 334.08 345.638 334.578 346.893 334.817L347.267 332.852C346.286 332.665 345.356 332.276 344.537 331.71L343.399 333.355ZM346.97 334.828C347.679 334.906 348.371 335.09 349.023 335.372L349.817 333.537C348.982 333.175 348.096 332.94 347.19 332.84L346.97 334.828ZM349.037 335.378C350.107 335.822 351.26 336.125 352.362 336.395C353.488 336.671 354.548 336.909 355.548 337.231L356.161 335.328C355.073 334.977 353.91 334.715 352.837 334.453C351.741 334.184 350.72 333.911 349.804 333.531L349.037 335.378ZM355.532 337.226C358.298 338.169 360.97 339.366 363.512 340.801L364.495 339.06C361.845 337.564 359.06 336.316 356.177 335.333L355.532 337.226ZM363.547 340.82C365.645 341.896 367.491 343.4 368.964 345.236L370.524 343.983C368.874 341.929 366.808 340.245 364.46 339.041L363.547 340.82ZM368.964 345.236C370.438 347.071 371.508 349.196 372.103 351.473L374.038 350.967C373.371 348.417 372.174 346.038 370.524 343.983L368.964 345.236ZM372.127 351.551C373.393 355.168 373.987 358.988 373.878 362.824L375.877 362.881C375.993 358.801 375.362 354.737 374.015 350.89L372.127 351.551ZM373.886 362.724C373.581 365.084 372.155 366.772 370.249 368.241C369.294 368.978 368.25 369.635 367.199 370.29C366.167 370.934 365.11 371.586 364.213 372.278L365.434 373.862C366.236 373.244 367.197 372.649 368.258 371.987C369.3 371.337 370.425 370.631 371.47 369.825C373.564 368.211 375.467 366.099 375.87 362.98L373.886 362.724ZM364.257 372.246C359.706 375.382 355.684 379.223 352.345 383.622L353.938 384.832C357.149 380.602 361.015 376.909 365.391 373.893L364.257 372.246ZM352.319 383.658C350.714 385.981 349.798 388.708 349.678 391.523L351.676 391.608C351.78 389.171 352.573 386.809 353.964 384.796L352.319 383.658ZM349.686 391.7C350.012 394.108 351.06 396.359 352.693 398.157L354.174 396.813C352.813 395.314 351.94 393.438 351.668 391.431L349.686 391.7ZM352.679 398.142C355.211 401.048 358.258 403.463 361.669 405.268L362.604 403.5C359.41 401.81 356.558 399.549 354.187 396.828L352.679 398.142ZM361.625 405.244C365.26 407.406 369.471 408.413 373.702 408.132L373.569 406.136C369.742 406.391 365.933 405.48 362.648 403.525L361.625 405.244ZM373.582 408.133C382.103 408.593 390.411 407.898 398.726 407.742L398.689 405.743C390.196 405.902 382.121 406.591 373.69 406.136L373.582 408.133ZM398.635 407.74C403.448 408.092 408.216 406.55 411.918 403.445L410.633 401.912C407.329 404.684 403.074 406.059 398.781 405.745L398.635 407.74ZM411.967 403.401C413.714 401.729 416.593 399.972 419.533 399.567C420.986 399.367 422.425 399.5 423.758 400.105C425.085 400.707 426.378 401.809 427.492 403.664L429.207 402.634C427.913 400.48 426.33 399.076 424.584 398.284C422.843 397.494 421.011 397.345 419.261 397.586C415.795 398.063 412.546 400.078 410.584 401.956L411.967 403.401ZM427.492 403.664C429.685 407.312 429.265 410.64 427.865 413.836C427.156 415.455 426.2 417.022 425.202 418.567C424.221 420.088 423.173 421.622 422.365 423.077L424.113 424.048C424.878 422.67 425.858 421.239 426.883 419.652C427.891 418.091 428.92 416.412 429.697 414.638C431.269 411.048 431.831 407.001 429.207 402.634L427.492 403.664ZM422.366 423.075C422.181 423.407 421.299 424.781 420.859 426.132C420.64 426.805 420.473 427.629 420.655 428.405C420.75 428.812 420.943 429.21 421.272 429.546C421.598 429.88 422.015 430.107 422.489 430.243L423.041 428.321C422.837 428.262 422.744 428.191 422.702 428.147C422.661 428.106 422.625 428.049 422.602 427.948C422.546 427.708 422.579 427.308 422.761 426.751C423.121 425.646 423.833 424.55 424.112 424.05L422.366 423.075ZM423.265 430.148L425.955 428.595L424.955 426.863L422.265 428.416L423.265 430.148ZM425.561 428.723C426.877 428.584 428.182 428.351 429.466 428.027L428.976 426.088C427.784 426.389 426.572 426.605 425.35 426.734L425.561 428.723ZM429.324 428.052C430.945 427.883 432.576 428.219 433.993 429.011L434.969 427.266C433.191 426.272 431.148 425.852 429.118 426.062L429.324 428.052ZM433.993 429.011C435.409 429.803 436.543 431.014 437.24 432.476L439.045 431.616C438.171 429.779 436.746 428.26 434.969 427.266L433.993 429.011ZM437.277 432.546L438.13 434.025L439.862 433.025L439.009 431.546L437.277 432.546ZM439.496 434.391L446.576 430.304L445.576 428.572L438.496 432.659L439.496 434.391ZM446.576 430.304C475.008 413.889 492.015 384.026 496.603 349.13C501.19 314.234 493.373 274.25 472.112 237.423L470.38 238.423C491.44 274.902 499.145 314.447 494.62 348.869C490.095 383.29 473.357 412.532 445.576 428.572L446.576 430.304ZM472.115 237.429C459.161 214.635 441.596 194.79 420.53 179.146L419.337 180.752C440.181 196.23 457.559 215.865 470.376 238.417L472.115 237.429ZM418.939 179.842C418.595 183.019 418.655 186.225 419.116 189.383L421.095 189.095C420.658 186.103 420.602 183.066 420.928 180.057L418.939 179.842ZM419.13 189.458C420.242 194.41 421.606 199.301 423.218 204.112L425.115 203.477C423.525 198.73 422.178 193.905 421.081 189.02L419.13 189.458ZM423.192 204.018C423.671 206.109 424.35 208.12 425.057 210.122C425.768 212.138 426.504 214.136 427.132 216.27L429.051 215.705C428.403 213.505 427.642 211.438 426.943 209.457C426.238 207.462 425.593 205.543 425.141 203.571L423.192 204.018ZM427.143 216.306C428.259 219.623 428.974 223.062 429.274 226.551L431.267 226.38C430.953 222.732 430.205 219.136 429.039 215.669L427.143 216.306ZM429.271 226.484C429.284 227.197 429.078 227.83 428.762 228.555C428.467 229.231 428.008 230.113 427.756 231.042L429.687 231.565C429.887 230.824 430.22 230.216 430.595 229.355C430.949 228.543 431.292 227.592 431.27 226.447L429.271 226.484ZM427.756 231.042C427.554 231.79 427.332 232.271 427.107 232.735C426.878 233.207 426.611 233.725 426.417 234.444L428.347 234.967C428.484 234.461 428.661 234.114 428.906 233.607C429.155 233.094 429.437 232.486 429.687 231.565L427.756 231.042ZM426.425 234.414C426.149 235.322 425.9 236.327 425.646 237.298C425.388 238.284 425.12 239.256 424.796 240.166C424.135 242.016 423.302 243.418 422.064 244.133L423.064 245.865C424.94 244.781 425.978 242.802 426.679 240.838C427.035 239.841 427.321 238.797 427.581 237.804C427.844 236.795 428.077 235.855 428.339 234.997L426.425 234.414ZM422.064 244.133C420.863 244.826 419.43 244.778 417.96 244.094C416.482 243.407 415.055 242.106 414.034 240.489L412.343 241.556C413.537 243.449 415.24 245.035 417.117 245.908C419.002 246.784 421.149 246.97 423.064 245.865L422.064 244.133ZM414.068 240.547C411.674 236.123 409.76 231.456 408.357 226.624L406.436 227.182C407.879 232.15 409.847 236.949 412.309 241.498L414.068 240.547ZM408.335 226.56C407.053 223.052 406.312 219.375 405.353 215.713L403.418 216.219C404.338 219.735 405.132 223.621 406.457 227.246L408.335 226.56ZM405.339 215.665C404.499 213.007 403.886 210.283 403.505 207.521L401.524 207.794C401.92 210.668 402.558 213.502 403.432 216.267L405.339 215.665ZM403.514 207.632C403.404 203.231 402.369 198.905 400.475 194.936L398.67 195.797C400.443 199.512 401.412 203.561 401.515 207.682L403.514 207.632ZM400.448 194.884C398.427 191.214 395.597 188.052 392.17 185.635L391.017 187.27C394.196 189.512 396.821 192.445 398.696 195.849L400.448 194.884ZM392.119 185.601C387.398 182.691 382.075 180.882 376.547 180.309L376.341 182.298C381.571 182.84 386.605 184.551 391.069 187.304L392.119 185.601ZM376.724 180.344C375.521 179.993 374.284 179.808 373.151 179.609C371.992 179.405 370.901 179.181 369.84 178.764L369.108 180.625C370.367 181.121 371.627 181.371 372.805 181.578C374.01 181.79 375.097 181.953 376.164 182.264L376.724 180.344ZM369.84 178.764C368.738 178.33 368.094 177.978 367.558 177.667C367.018 177.354 366.497 177.025 365.738 176.723L364.999 178.581C365.588 178.815 365.958 179.051 366.554 179.397C367.154 179.745 367.889 180.145 369.108 180.625L369.84 178.764ZM365.756 176.73C363.279 175.689 360.908 174.417 358.674 172.93L357.566 174.595C359.905 176.152 362.388 177.484 364.981 178.574L365.756 176.73ZM358.795 173.025C357.633 171.96 356.386 170.99 355.068 170.123L353.97 171.795C355.199 172.603 356.361 173.507 357.444 174.5L358.795 173.025ZM354.772 169.992C353.496 169.657 352.175 169.526 350.856 169.601L350.97 171.598C352.08 171.534 353.192 171.645 354.265 171.927L354.772 169.992ZM350.836 169.603C347.116 169.889 343.638 171.573 341.105 174.315L342.574 175.672C344.765 173.301 347.773 171.844 350.99 171.597L350.836 169.603Z" fill="black" mask="url(#path-5-inside-1_238_13847)"/>
</g>
<g style="mix-blend-mode:multiply" opacity="0.2">
<path d="M241.455 376.104L241.455 376.104L241.454 376.092C241.194 370.347 241.91 364.55 243.575 358.932C246.043 353.035 249.906 347.725 254.842 343.452L254.859 343.437L254.875 343.421C260.653 337.443 269.142 328.718 278.43 322.824C287.731 316.921 297.665 313.961 306.454 319.186C313.743 323.84 319.771 330.083 324.092 337.452C328.384 344.772 330.883 353.018 331.405 361.584C329.138 364.661 326.938 367.783 324.741 370.9C320.55 376.848 316.372 382.775 311.775 388.329C304.747 396.819 296.783 404.372 286.412 409.638C280.419 412.645 273.581 415.033 267.072 415.404C260.575 415.774 254.44 414.135 249.763 409.127C246.029 405.109 244.004 399.574 242.888 393.655C241.772 387.739 241.574 381.497 241.455 376.104Z" fill="#190078"/>
<path d="M241.455 376.104L241.455 376.104L241.454 376.092C241.194 370.347 241.91 364.55 243.575 358.932C246.043 353.035 249.906 347.725 254.842 343.452L254.859 343.437L254.875 343.421C260.653 337.443 269.142 328.718 278.43 322.824C287.731 316.921 297.665 313.961 306.454 319.186C313.743 323.84 319.771 330.083 324.092 337.452C328.384 344.772 330.883 353.018 331.405 361.584C329.138 364.661 326.938 367.783 324.741 370.9C320.55 376.848 316.372 382.775 311.775 388.329C304.747 396.819 296.783 404.372 286.412 409.638C280.419 412.645 273.581 415.033 267.072 415.404C260.575 415.774 254.44 414.135 249.763 409.127C246.029 405.109 244.004 399.574 242.888 393.655C241.772 387.739 241.574 381.497 241.455 376.104Z" stroke="black"/>
</g>
<g style="mix-blend-mode:multiply" opacity="0.2">
<path d="M241.807 423.044L241.695 423.186C241.396 423.405 240.766 423.582 240.054 423.486C239.34 423.389 238.623 423.026 238.175 422.25L238.166 422.235L238.157 422.221C238.069 422.092 238.04 422.01 238.028 421.961C238.016 421.912 238.014 421.867 238.018 421.778C238.018 421.769 238.018 421.76 238.019 421.749C238.022 421.663 238.028 421.527 238.005 421.377C237.979 421.201 237.918 421.02 237.804 420.82C237.341 419.906 236.827 419.015 236.267 418.157C235.998 417.639 235.833 417.099 235.785 416.603C235.739 416.124 235.805 415.729 235.941 415.445C236.284 415.056 236.72 414.806 237.23 414.707C237.327 414.709 237.436 414.732 237.571 414.779C237.673 414.814 237.757 414.85 237.854 414.891C237.92 414.918 237.992 414.948 238.079 414.983C238.337 415.085 238.674 415.196 239.048 415.145C240.22 417.749 241.148 420.406 241.807 423.044Z" fill="#190078"/>
<path d="M241.807 423.044L241.695 423.186C241.396 423.405 240.766 423.582 240.054 423.486C239.34 423.389 238.623 423.026 238.175 422.25L238.166 422.235L238.157 422.221C238.069 422.092 238.04 422.01 238.028 421.961C238.016 421.912 238.014 421.867 238.018 421.778C238.018 421.769 238.018 421.76 238.019 421.749C238.022 421.663 238.028 421.527 238.005 421.377C237.979 421.201 237.918 421.02 237.804 420.82C237.341 419.906 236.827 419.015 236.267 418.157C235.998 417.639 235.833 417.099 235.785 416.603C235.739 416.124 235.805 415.729 235.941 415.445C236.284 415.056 236.72 414.806 237.23 414.707C237.327 414.709 237.436 414.732 237.571 414.779C237.673 414.814 237.757 414.85 237.854 414.891C237.92 414.918 237.992 414.948 238.079 414.983C238.337 415.085 238.674 415.196 239.048 415.145C240.22 417.749 241.148 420.406 241.807 423.044Z" stroke="black"/>
</g>
<g style="mix-blend-mode:multiply" opacity="0.2">
<path d="M317.536 420.472L317.536 420.472L317.533 420.467C317.288 420.122 317.23 419.92 317.22 419.791C317.21 419.655 317.243 419.53 317.328 419.282C317.331 419.27 317.335 419.259 317.339 419.247C317.42 419.012 317.526 418.701 317.563 418.294C317.601 417.865 317.561 417.354 317.377 416.701C317.016 415.419 316.328 414.237 315.597 413.126C315.34 412.735 315.08 412.357 314.825 411.985C314.343 411.284 313.877 410.606 313.472 409.907C312.815 408.482 312.558 406.909 312.728 405.362C312.898 403.825 313.483 402.375 314.417 401.169C316.263 399.63 318.441 398.546 320.785 398C321.395 397.901 321.985 397.953 322.584 398.066C322.888 398.124 323.188 398.196 323.496 398.271L323.552 398.284C323.839 398.354 324.135 398.426 324.43 398.484C325.059 398.609 325.727 398.682 326.42 398.545C326.934 398.443 327.442 398.229 327.945 397.865C330.779 404.866 332.539 412.247 333.162 419.748L331.682 420.603L331.647 420.623L331.616 420.649C330.199 421.806 327.378 422.826 324.513 422.999C321.637 423.171 318.926 422.482 317.536 420.472Z" fill="#190078"/>
<path d="M317.536 420.472L317.536 420.472L317.533 420.467C317.288 420.122 317.23 419.92 317.22 419.791C317.21 419.655 317.243 419.53 317.328 419.282C317.331 419.27 317.335 419.259 317.339 419.247C317.42 419.012 317.526 418.701 317.563 418.294C317.601 417.865 317.561 417.354 317.377 416.701C317.016 415.419 316.328 414.237 315.597 413.126C315.34 412.735 315.08 412.357 314.825 411.985C314.343 411.284 313.877 410.606 313.472 409.907C312.815 408.482 312.558 406.909 312.728 405.362C312.898 403.825 313.483 402.375 314.417 401.169C316.263 399.63 318.441 398.546 320.785 398C321.395 397.901 321.985 397.953 322.584 398.066C322.888 398.124 323.188 398.196 323.496 398.271L323.552 398.284C323.839 398.354 324.135 398.426 324.43 398.484C325.059 398.609 325.727 398.682 326.42 398.545C326.934 398.443 327.442 398.229 327.945 397.865C330.779 404.866 332.539 412.247 333.162 419.748L331.682 420.603L331.647 420.623L331.616 420.649C330.199 421.806 327.378 422.826 324.513 422.999C321.637 423.171 318.926 422.482 317.536 420.472Z" stroke="black"/>
</g>
<g style="mix-blend-mode:multiply" opacity="0.2">
<path d="M196.136 329.522C196.133 329.522 196.129 329.521 196.125 329.521L196.207 329.479L195.572 329.001C195.072 328.624 194.474 328.202 193.818 327.738C192.326 326.685 190.527 325.415 188.866 323.963C186.47 321.869 184.533 319.535 184.267 317.159C184.083 313.091 184.642 309.127 185.91 305.488L185.921 305.458L185.928 305.427C186.257 303.858 186.944 302.454 187.923 301.326C188.885 300.218 190.105 299.406 191.484 298.953C192.979 298.955 194.506 299.384 195.909 300.207C197.328 301.04 198.564 302.244 199.485 303.696C200.426 305.652 201.144 307.699 201.62 309.786L201.626 309.816L201.637 309.845C202.538 312.345 203.306 314.883 203.935 317.445C204.219 319.582 204.132 321.704 203.681 323.702L203.677 323.72L203.674 323.739C203.605 324.201 203.591 324.696 203.578 325.154C203.574 325.315 203.569 325.472 203.563 325.621C203.536 326.213 203.476 326.728 203.287 327.176C202.889 327.875 202.332 328.438 201.665 328.823C200.99 329.213 200.215 329.413 199.401 329.405L199.369 329.404L199.338 329.408C198.48 329.507 197.102 329.574 196.136 329.522ZM195.352 329.936C195.351 329.936 195.35 329.937 195.35 329.938C195.35 329.937 195.35 329.937 195.35 329.937C195.35 329.937 195.351 329.936 195.352 329.936Z" fill="#190078"/>
<path d="M196.136 329.522C196.133 329.522 196.129 329.521 196.125 329.521L196.207 329.479L195.572 329.001C195.072 328.624 194.474 328.202 193.818 327.738C192.326 326.685 190.527 325.415 188.866 323.963C186.47 321.869 184.533 319.535 184.267 317.159C184.083 313.091 184.642 309.127 185.91 305.488L185.921 305.458L185.928 305.427C186.257 303.858 186.944 302.454 187.923 301.326C188.885 300.218 190.105 299.406 191.484 298.953C192.979 298.955 194.506 299.384 195.909 300.207C197.328 301.04 198.564 302.244 199.485 303.696C200.426 305.652 201.144 307.699 201.62 309.786L201.626 309.816L201.637 309.845C202.538 312.345 203.306 314.883 203.935 317.445C204.219 319.582 204.132 321.704 203.681 323.702L203.677 323.72L203.674 323.739C203.605 324.201 203.591 324.696 203.578 325.154C203.574 325.315 203.569 325.472 203.563 325.621C203.536 326.213 203.476 326.728 203.287 327.176C202.889 327.875 202.332 328.438 201.665 328.823C200.99 329.213 200.215 329.413 199.401 329.405L199.369 329.404L199.338 329.408C198.48 329.507 197.102 329.574 196.136 329.522ZM195.352 329.936C195.351 329.936 195.35 329.937 195.35 329.938C195.35 329.937 195.35 329.937 195.35 329.937C195.35 329.937 195.351 329.936 195.352 329.936Z" stroke="black"/>
</g>
<g style="mix-blend-mode:multiply" opacity="0.2">
<path d="M261.933 313.274C261.468 312.637 260.892 311.722 260.558 311.047L260.686 310.505C260.8 310.021 260.911 309.458 261.031 308.844C261.299 307.483 261.617 305.868 262.135 304.288C262.886 301.997 263.998 300.001 265.785 299.162L265.789 299.16C268.909 297.661 272.228 296.691 275.566 296.301L275.581 296.299L275.597 296.296C276.733 296.091 278.238 296.048 279.606 296.284C280.991 296.523 282.11 297.025 282.647 297.8C283.236 298.793 283.492 299.964 283.377 301.188C283.263 302.412 282.782 303.644 281.975 304.742C280.826 306.036 279.519 307.211 278.086 308.239L278.063 308.255L278.043 308.274C276.443 309.715 274.766 311.08 273.02 312.362C271.438 313.27 269.727 313.919 267.977 314.274L267.924 314.285L267.876 314.306C266.961 314.706 266.014 315.01 265.055 315.212C264.376 315.166 263.749 314.972 263.221 314.654C262.678 314.326 262.251 313.874 261.973 313.338L261.955 313.305L261.933 313.274Z" fill="#190078"/>
<path d="M261.933 313.274C261.468 312.637 260.892 311.722 260.558 311.047L260.686 310.505C260.8 310.021 260.911 309.458 261.031 308.844C261.299 307.483 261.617 305.868 262.135 304.288C262.886 301.997 263.998 300.001 265.785 299.162L265.789 299.16C268.909 297.661 272.228 296.691 275.566 296.301L275.581 296.299L275.597 296.296C276.733 296.091 278.238 296.048 279.606 296.284C280.991 296.523 282.11 297.025 282.647 297.8C283.236 298.793 283.492 299.964 283.377 301.188C283.263 302.412 282.782 303.644 281.975 304.742C280.826 306.036 279.519 307.211 278.086 308.239L278.063 308.255L278.043 308.274C276.443 309.715 274.766 311.08 273.02 312.362C271.438 313.27 269.727 313.919 267.977 314.274L267.924 314.285L267.876 314.306C266.961 314.706 266.014 315.01 265.055 315.212C264.376 315.166 263.749 314.972 263.221 314.654C262.678 314.326 262.251 313.874 261.973 313.338L261.955 313.305L261.933 313.274Z" stroke="black"/>
</g>
<g style="mix-blend-mode:multiply" opacity="0.2">
<path d="M380.248 305.402C379.835 305.73 379.431 306.05 379.042 306.362C378.792 306.285 378.53 306.221 378.269 306.165C377.999 306.106 377.719 306.053 377.443 306.001C377.421 305.997 377.398 305.992 377.375 305.988C377.12 305.94 376.869 305.893 376.622 305.842C376.08 305.729 375.592 305.603 375.199 305.43C374.813 305.261 374.568 305.069 374.437 304.853C373.875 303.664 373.497 302.389 373.315 301.063C373.237 298.773 373.832 296.428 375.046 294.281C376.265 292.126 378.058 290.258 380.235 288.882L380.257 288.868L380.279 288.851C382.075 287.422 383.81 286.742 385.312 286.831C386.783 286.918 388.139 287.748 389.2 289.585L389.202 289.589C390.244 291.352 390.356 293.053 389.871 294.702C389.381 296.373 388.271 298.011 386.83 299.593C385.393 301.171 383.655 302.662 381.948 304.045C381.375 304.508 380.804 304.962 380.248 305.402Z" fill="#190078"/>
<path d="M380.248 305.402C379.835 305.73 379.431 306.05 379.042 306.362C378.792 306.285 378.53 306.221 378.269 306.165C377.999 306.106 377.719 306.053 377.443 306.001C377.421 305.997 377.398 305.992 377.375 305.988C377.12 305.94 376.869 305.893 376.622 305.842C376.08 305.729 375.592 305.603 375.199 305.43C374.813 305.261 374.568 305.069 374.437 304.853C373.875 303.664 373.497 302.389 373.315 301.063C373.237 298.773 373.832 296.428 375.046 294.281C376.265 292.126 378.058 290.258 380.235 288.882L380.257 288.868L380.279 288.851C382.075 287.422 383.81 286.742 385.312 286.831C386.783 286.918 388.139 287.748 389.2 289.585L389.202 289.589C390.244 291.352 390.356 293.053 389.871 294.702C389.381 296.373 388.271 298.011 386.83 299.593C385.393 301.171 383.655 302.662 381.948 304.045C381.375 304.508 380.804 304.962 380.248 305.402Z" stroke="black"/>
</g>
<defs>
<radialGradient id="paint0_radial_238_13847" cx="0" cy="0" r="1" gradientUnits="userSpaceOnUse" gradientTransform="translate(219.103 339.876) rotate(-120) scale(202.008 200.879)">
<stop stop-color="#C0D6FA"/>
<stop offset="0.17" stop-color="#B5C8F1"/>
<stop offset="0.49" stop-color="#98A3D8"/>
<stop offset="0.92" stop-color="#6A67B1"/>
<stop offset="1" stop-color="#605BA9"/>
</radialGradient>
<radialGradient id="paint1_radial_238_13847" cx="0" cy="0" r="1" gradientUnits="userSpaceOnUse" gradientTransform="translate(321.256 325.192) rotate(-120) scale(238.207 237.796)">
<stop offset="0.55" stop-color="#005CFF"/>
<stop offset="0.82" stop-color="#002361"/>
<stop offset="1"/>
</radialGradient>
<radialGradient id="paint2_radial_238_13847" cx="0" cy="0" r="1" gradientUnits="userSpaceOnUse" gradientTransform="translate(300.758 321.707) rotate(-120) scale(192.691 190.882)">
<stop offset="0.55" stop-color="#005CFF"/>
<stop offset="0.82" stop-color="#002361"/>
<stop offset="1"/>
</radialGradient>
<radialGradient id="paint3_radial_238_13847" cx="0" cy="0" r="1" gradientUnits="userSpaceOnUse" gradientTransform="translate(243.544 334.333) rotate(-120) scale(186.795 187.991)">
<stop offset="0.28" stop-color="#1B5190"/>
<stop offset="0.43" stop-color="#1A4C8D"/>
<stop offset="0.61" stop-color="#183E83"/>
<stop offset="0.79" stop-color="#142772"/>
<stop offset="0.99" stop-color="#0F075B"/>
<stop offset="1" stop-color="#0F0459"/>
</radialGradient>
</defs>
</svg>
