<svg xmlns="http://www.w3.org/2000/svg" fill="none" viewBox="63.57 69.44 355.63 345.84">
<g id="blue-planet">
<path id="Vector" d="M150.133 90.6747C189.813 68.9042 236.492 63.6256 280.171 75.9699C323.849 88.3142 361.052 117.299 383.809 156.715C406.566 196.131 413.066 242.843 401.918 286.842C390.769 330.841 362.858 368.627 324.164 392.105C320.6 394.163 317.001 396.052 313.367 397.773C273.037 417.489 226.568 420.678 183.773 406.664C140.979 392.651 105.211 362.533 84.0234 322.671C62.8355 282.81 57.8868 236.326 70.2224 193.037C82.5581 149.747 111.212 113.043 150.133 90.6747Z" fill="#AAD6FF"/>
<path id="Vector_2" d="M325.657 384.929C328.969 383.016 332.528 381.528 335.982 379.533C354.675 368.902 371.081 354.676 384.261 337.668C397.442 320.66 407.137 301.205 412.793 280.415C418.449 259.626 419.955 237.909 417.224 216.508C414.494 195.107 407.58 174.442 396.879 155.695C382.756 131.114 362.381 110.711 337.84 96.5736C312.684 82.0334 284.168 74.3848 255.168 74.3993C226.167 74.4137 197.708 82.0908 172.662 96.656C169.843 98.2839 166.716 102.636 163.585 104.538C161.964 105.474 160.272 106.451 158.651 107.387C155.056 109.462 152.092 112.306 148.568 114.34C146.699 115.278 144.887 116.324 143.14 117.474C141.519 118.41 140.488 120.043 138.908 121.05C135.892 123.61 132.569 125.783 129.014 127.517C126.513 128.395 123.785 128.554 123.624 131.855C123.462 135.156 124.244 134.233 122.924 136.504C122.08 138.121 121.39 139.814 120.863 141.562C120.285 144.458 119.394 147.282 118.206 149.983C117.783 150.227 117.32 152.193 116.968 152.396C116.615 152.599 114.704 152.382 114.074 153.406C114.795 155.632 116.402 157.439 117.546 159.421C118.69 161.402 116.39 163.767 114.298 165.353C113.17 166.163 111.863 166.691 110.488 166.892C109.187 167.452 107.957 168.162 106.822 169.008L108.725 167.91C106.201 168.938 103.829 170.307 101.676 171.979C100.378 173.977 99.4634 176.201 98.9778 178.537C98.585 181.12 98.9377 183.764 99.9943 186.158C100.987 189.83 97.1763 191.37 95.2739 194.261C94.6404 195.48 94.1919 196.789 93.9433 198.142C92.8602 201.603 91.5055 204.972 89.8918 208.217C87.3821 214.289 89.0346 216.825 91.8164 222.295C94.2887 227.774 95.7979 233.637 96.277 239.625C95.7528 247.694 97.7933 255.73 102.106 262.58C105.866 265.813 109.43 269.268 112.779 272.928C114.779 276.62 115.635 280.824 115.237 284.999C114.534 294.03 115.365 303.12 117.694 311.882C120.427 319.635 124.296 326.94 129.174 333.556C134.781 340.023 141.037 345.895 147.843 351.079C155.892 356.603 164.605 361.083 173.773 364.411C181.141 367.893 186.347 374.793 193.803 377.941C196.959 379.441 200.37 380.321 203.853 380.535C205.237 380.49 206.74 380 208.194 379.915C210.66 379.956 213.111 380.317 215.487 380.988C235.936 385.314 252.546 403.177 273.412 403.017C276.878 402.997 292.988 398.506 296.298 397.728C302.706 396.292 299.586 381.773 305.942 380.084C307.895 379.8 309.874 379.733 311.843 379.885C313.894 379.608 315.976 379.647 318.017 379.999C319.951 380.581 322.784 384.511 325.657 384.929Z" fill="url(#paint0_radial_366_2)"/>
<g id="Vector_3" style="mix-blend-mode:multiply" opacity="0.2">
<path d="M257.207 105.099C258.358 99.8657 260.746 94.9776 264.173 90.8426C266.535 88.2862 269.779 86.7157 273.247 86.4487C274.461 86.3791 275.678 86.5005 276.853 86.8082C278.126 87.6453 279.331 88.5826 280.454 89.6114C282.741 91.1332 285.168 92.4355 287.702 93.501C289.05 94.0372 289.487 94.6301 291.808 95.5435C294.129 96.4569 296.508 96.4914 298.778 97.1527C304.157 97.7101 309.335 99.47 313.928 102.302C317.23 104.631 319.958 107.679 321.906 111.216C323.74 115.058 324.742 119.245 324.849 123.506C325.237 126.324 325.863 129.104 326.72 131.815C327.659 135.404 328.426 139.186 329.73 142.752C331.153 147.652 333.095 152.385 335.522 156.871C337.737 160.381 341.783 162.646 344.898 160.848C348.013 159.049 348.64 154.086 349.716 150.555C350.047 149.33 350.603 148.822 351.055 147.152C351.507 145.483 352.639 144.173 352.605 142.315C352.298 138.746 351.566 135.229 350.425 131.836C349.15 127.503 347.431 123.707 346.501 119.643C344.9 114.865 343.544 110.007 342.439 105.088C341.99 102.013 341.933 98.8915 342.267 95.7982C363.222 111.359 380.694 131.099 393.58 153.772C435.902 227.077 424.622 312.832 368.41 345.287L361.33 349.374L360.477 347.895C359.691 346.245 358.412 344.881 356.815 343.987C355.218 343.094 353.381 342.717 351.555 342.906C350.317 343.219 349.058 343.443 347.789 343.578L345.099 345.131C342.384 344.352 345.109 340.243 345.573 339.412C348.72 333.745 355.5 327.014 350.683 318.998C345.866 310.982 337.318 314.978 333.61 318.528C330.106 321.466 325.595 322.925 321.042 322.592C312.637 322.749 304.446 323.441 295.97 322.983C291.94 323.251 287.93 322.292 284.471 320.233C281.168 318.486 278.218 316.147 275.767 313.334C274.271 311.685 273.31 309.622 273.011 307.414C273.123 304.789 273.977 302.244 275.476 300.076C278.75 295.761 282.694 291.995 287.158 288.919C290.555 286.3 296.504 284.18 297.212 278.701C297.324 274.743 296.711 270.802 295.405 267.069C294.773 264.656 293.64 262.403 292.078 260.458C290.516 258.514 288.561 256.92 286.338 255.78C283.741 254.314 281.013 253.092 278.188 252.128C276.101 251.456 273.741 251.128 271.754 250.303C271.01 249.982 270.221 249.772 269.414 249.683C268.296 249.471 267.236 249.027 266.302 248.381C263.262 245.758 261.023 242.334 259.841 238.498C259.055 236.799 258.645 234.949 258.637 233.075C258.63 231.2 259.025 229.344 259.797 227.632C261.518 224.287 262.836 220.752 263.724 217.102C263.988 215.21 264.628 213.387 265.607 211.742C266.586 210.096 267.884 208.661 269.425 207.52C273.409 204.938 277.777 206.454 282.631 208.158C287.74 210.084 292.645 212.503 297.279 215.381C298.581 216.274 299.986 217.007 301.466 217.564C303.618 217.761 305.701 218.415 307.576 219.482C310.201 221.16 312.382 223.442 313.938 226.137C315.494 228.832 316.379 231.862 316.52 234.974C316.943 241.96 318.091 248.88 319.946 255.623C321.19 259.068 323.261 262.154 325.979 264.61C328.697 267.067 331.98 268.82 335.541 269.717C337.335 269.708 339.111 269.344 340.766 268.647C342.421 267.949 343.922 266.931 345.182 265.652C347.262 262.784 348.121 259.216 347.571 255.729C346.909 249.609 345.442 243.605 343.209 237.873C342.187 235.174 340.934 232.567 339.466 230.082C338.013 227.729 337.278 225.148 335.896 222.754C333.559 218.214 330.861 213.869 327.828 209.761C325.058 204.897 321.791 200.333 318.078 196.143C313.822 192.538 308.723 190.058 303.248 188.932C297.746 187.414 292.593 188.135 287.194 187.121C284.684 186.817 282.199 186.338 279.758 185.687C277.103 184.685 275.562 183.978 271.67 182.47C267.778 180.961 263.033 177.974 259.135 178.252C257.556 178.311 256.011 178.728 254.615 179.473C253.22 180.217 252.012 181.269 251.084 182.547C250.156 183.826 249.532 185.298 249.259 186.85C248.987 188.403 249.074 189.996 249.513 191.507C250.85 201.344 254.126 213.067 250.022 221.164C249.04 222.827 247.806 224.331 246.366 225.622C245.404 226.854 244.135 227.814 242.686 228.404C237.575 229.852 232.018 226.113 227.755 221.345C222.873 216.254 218.518 210.684 214.758 204.719C212.806 200.761 211.638 196.463 211.318 192.058C210.564 185.357 218.14 186.053 219.131 180.411C218.913 176.173 217.697 172.051 215.581 168.377C214.213 166.236 213.132 163.925 212.367 161.501C211.926 158.939 213.188 157.366 213.761 155.251C214.579 151.291 214.629 147.214 213.907 143.242C213.467 141.029 213.535 138.743 214.106 136.556C214.88 134.137 216.763 133.801 218.349 132.134C220.105 130.461 222.433 129.52 224.855 129.504C227.082 128.905 229.414 128.809 231.679 129.226C234.122 129.783 236.514 130.537 238.833 131.48C240.942 132.516 243.326 134.52 245.523 134.566C249.554 134.68 250.231 129.313 250.831 125.774C251.491 122.669 252.378 119.615 253.484 116.637C254.925 113.082 255.858 108.976 257.207 105.099Z" fill="#190078"/>
</g>
<g id="Vector_4" style="mix-blend-mode:multiply" opacity="0.2">
<path d="M251.915 269.735C238.698 287.651 227.545 307.469 206.638 318.084C194.584 324.133 179.006 327.757 169.397 317.468C161.746 309.234 161.194 294.899 160.955 284.115C160.691 278.304 161.417 272.443 163.103 266.764C165.601 260.784 169.515 255.402 174.515 251.074C186.061 239.129 208.626 215.998 226.717 226.76C234.075 231.457 240.161 237.759 244.523 245.199C248.886 252.64 251.412 261.026 251.915 269.735Z" fill="#190078"/>
</g>
<g id="Vector_5" style="mix-blend-mode:multiply" opacity="0.2">
<path d="M162.351 331.162C161.648 328.277 160.626 325.369 159.318 322.531C158.587 322.953 157.946 322.181 157.181 322.207C156.521 322.325 155.955 322.652 155.523 323.165C155.314 323.56 155.232 324.076 155.288 324.651C155.343 325.225 155.533 325.836 155.836 326.41C156.393 327.263 156.905 328.149 157.364 329.057C157.724 329.68 157.289 329.828 157.742 330.5C158.821 332.369 161.214 332.234 162.051 331.543L162.351 331.162Z" fill="#190078"/>
</g>
<g id="Vector_6" style="mix-blend-mode:multiply" opacity="0.2">
<path d="M253.686 328.023C253.064 320.136 251.195 312.378 248.149 305.045C245.656 307.42 243.471 305.045 240.688 305.51C238.245 306.076 235.975 307.209 234.056 308.819C233.045 310.108 232.413 311.662 232.232 313.307C232.05 314.953 232.326 316.625 233.028 318.138C234.288 320.319 236.216 322.426 236.896 324.837C237.577 327.249 236.028 327.208 237.125 328.756C240.205 333.21 248.891 331.519 251.932 329.036L253.686 328.023Z" fill="#190078"/>
</g>
<g id="Vector_7" style="mix-blend-mode:multiply" opacity="0.2">
<path d="M115.272 237.4C112.087 235.001 104.331 230.372 103.768 225.197C103.579 221.064 104.146 217.03 105.438 213.324C105.784 211.677 106.507 210.194 107.545 208.998C108.583 207.803 109.907 206.93 111.405 206.453C113.02 206.439 114.664 206.896 116.162 207.776C117.661 208.656 118.96 209.926 119.923 211.453C120.886 213.45 121.62 215.541 122.107 217.675C123.018 220.201 123.792 222.764 124.427 225.352C124.723 227.554 124.635 229.745 124.169 231.812C123.992 232.996 124.206 234.316 123.736 235.398C123.294 236.183 122.67 236.82 121.915 237.256C121.16 237.692 120.296 237.914 119.395 237.904C117.636 238.109 113.766 238.179 115.272 237.4Z" fill="#190078"/>
</g>
<g id="Vector_8" style="mix-blend-mode:multiply" opacity="0.2">
<path d="M180.199 218.39C180.903 215.411 181.6 208.574 185.573 206.71C188.742 205.187 192.114 204.201 195.508 203.804C197.886 203.375 201.765 203.623 203.068 205.53C203.72 206.622 204 207.905 203.875 209.234C203.751 210.564 203.228 211.888 202.365 213.056C201.186 214.386 199.846 215.592 198.378 216.645C196.759 218.104 195.061 219.485 193.293 220.781C191.659 221.723 189.89 222.396 188.076 222.764C187.11 223.187 186.108 223.506 185.091 223.715C184.313 223.673 183.583 223.455 182.963 223.082C182.344 222.708 181.852 222.189 181.529 221.569C180.561 220.241 179.112 217.731 180.199 218.39Z" fill="#190078"/>
</g>
<g id="Vector_9" style="mix-blend-mode:multiply" opacity="0.2">
<path d="M297.621 216.194C302.686 211.746 314.096 204.889 309.633 197.335C307.381 193.435 303.664 193.519 299.967 196.46C297.724 197.878 295.872 199.806 294.611 202.035C293.35 204.264 292.73 206.709 292.816 209.106C293.004 210.498 293.401 211.838 293.995 213.087C294.811 214.5 298.067 214.323 299.529 215.093L297.621 216.194Z" fill="#190078"/>
</g>
</g>
<defs>
<radialGradient id="paint0_radial_366_2" cx="0" cy="0" r="1" gradientUnits="userSpaceOnUse" gradientTransform="translate(163.544 242.333) rotate(-120) scale(186.795 187.991)">
<stop offset="0.28" stop-color="#1B5190"/>
<stop offset="0.43" stop-color="#1A4C8D"/>
<stop offset="0.61" stop-color="#183E83"/>
<stop offset="0.79" stop-color="#142772"/>
<stop offset="0.99" stop-color="#0F075B"/>
<stop offset="1" stop-color="#0F0459"/>
</radialGradient>
</defs>
</svg>