<svg width="717" height="713" viewBox="0 0 717 713" fill="none" xmlns="http://www.w3.org/2000/svg" style="display: block">
<g id="red-planet-big">
<path id="Vector" style="mix-blend-mode:screen" d="M98.6825 160.647C98.6659 167.441 100.567 174.087 104.145 179.743C107.724 185.399 112.818 189.81 118.783 192.418C124.747 195.026 131.314 195.713 137.65 194.392C143.986 193.071 149.807 189.801 154.374 184.997C158.942 180.193 162.051 174.072 163.307 167.408C164.563 160.744 163.91 153.838 161.43 147.564C158.951 141.291 154.756 135.933 149.378 132.17C144.001 128.407 137.682 126.407 131.222 126.424C122.599 126.448 114.335 130.061 108.238 136.474C102.14 142.887 98.7047 151.578 98.6825 160.647Z" fill="url(#paint0_radial_400_190)"/>
<path id="Vector_2" d="M121.182 162.898C121.165 164.796 121.713 166.657 122.757 168.243C123.801 169.829 125.293 171.068 127.044 171.803C128.795 172.538 130.725 172.734 132.588 172.368C134.451 172.002 136.163 171.09 137.505 169.747C138.848 168.405 139.761 166.693 140.127 164.83C140.493 162.966 140.296 161.037 139.561 159.286C138.827 157.535 137.587 156.043 136.001 154.999C134.415 153.955 132.555 153.406 130.656 153.424C128.143 153.424 125.734 154.422 123.957 156.199C122.18 157.976 121.182 160.385 121.182 162.898Z" fill="#7EA0FF"/>
<path id="Vector_3" d="M501.578 370.807C501.212 371.039 500.758 371.233 500.243 371.377C499.727 371.522 499.159 371.614 498.572 371.649C497.985 371.684 497.39 371.661 496.821 371.581C496.252 371.5 495.721 371.365 495.257 371.182C494.558 370.906 494.038 370.533 493.763 370.11C493.488 369.687 493.47 369.233 493.711 368.804C493.953 368.376 494.443 367.993 495.119 367.704C495.796 367.415 496.628 367.233 497.512 367.181C498.396 367.128 499.291 367.208 500.084 367.41C500.877 367.612 501.532 367.927 501.967 368.315C502.403 368.703 502.598 369.147 502.528 369.59C502.459 370.034 502.128 370.457 501.578 370.807Z" fill="#FFBFED"/>
<path id="Vector_4" style="mix-blend-mode:screen" d="M519.32 159.405C521.828 158.152 524.654 157.678 527.434 158.043C530.214 158.408 532.822 159.595 534.922 161.453C537.022 163.311 538.518 165.755 539.219 168.47C539.92 171.185 539.793 174.047 538.855 176.689C537.917 179.332 536.211 181.633 533.955 183.298C531.699 184.964 528.997 185.917 526.195 186.035C523.394 186.153 520.621 185.43 518.233 183.961C515.845 182.491 513.951 180.341 512.795 177.787C511.294 174.474 511.135 170.708 512.352 167.281C513.569 163.853 516.066 161.03 519.32 159.405Z" fill="url(#paint1_radial_400_190)"/>
<path id="Vector_5" d="M527.365 168.702C527.621 168.381 527.908 168.172 528.207 168.089C528.506 168.005 528.81 168.05 529.099 168.219C529.389 168.389 529.658 168.68 529.889 169.073C530.121 169.466 530.309 169.953 530.442 170.503C530.576 171.053 530.651 171.653 530.664 172.266C530.677 172.878 530.626 173.489 530.516 174.06C530.406 174.63 530.238 175.148 530.024 175.579C529.81 176.011 529.554 176.346 529.272 176.565C529.019 176.831 528.743 176.991 528.459 177.035C528.175 177.079 527.89 177.006 527.62 176.82C527.35 176.634 527.102 176.339 526.89 175.953C526.678 175.567 526.506 175.097 526.385 174.573C526.135 173.529 526.097 172.327 526.281 171.228C526.464 170.128 526.854 169.22 527.365 168.702Z" fill="#FFBFED"/>
<path id="Vector_6" style="mix-blend-mode:screen" d="M344.427 512.648C347.335 511.313 350.572 510.862 353.734 511.352C356.896 511.842 359.844 513.252 362.212 515.405C364.579 517.558 366.26 520.361 367.047 523.462C367.833 526.564 367.69 529.829 366.635 532.85C365.58 535.871 363.659 538.515 361.113 540.453C358.566 542.391 355.506 543.536 352.313 543.748C349.12 543.959 345.935 543.227 343.155 541.641C340.375 540.056 338.123 537.688 336.679 534.833C335.689 532.875 335.104 530.738 334.959 528.549C334.814 526.36 335.112 524.164 335.836 522.093C336.559 520.022 337.693 518.118 339.169 516.495C340.645 514.872 342.434 513.564 344.427 512.648Z" fill="url(#paint2_radial_400_190)"/>
<path id="Vector_7" d="M352.059 523.033C353.154 522.287 354.4 522.207 355.534 522.809C356.667 523.412 357.6 524.65 358.135 526.262C358.63 527.882 358.682 529.728 358.278 531.404C357.875 533.081 357.049 534.454 355.977 535.23C355.447 535.617 354.871 535.844 354.282 535.897C353.693 535.95 353.103 535.828 352.546 535.539C351.989 535.25 351.476 534.8 351.035 534.213C350.595 533.627 350.236 532.916 349.98 532.121C349.476 530.498 349.41 528.646 349.797 526.952C350.185 525.258 350.995 523.854 352.059 523.033Z" fill="#FFBFED"/>
<path id="Vector_8" style="mix-blend-mode:screen" d="M88.0566 265.588C88.9319 265.143 89.888 264.879 90.8676 264.811C91.8472 264.744 92.8304 264.875 93.7585 265.195C94.6866 265.516 95.5404 266.02 96.2694 266.678C96.9983 267.336 97.5874 268.134 98.0012 269.025C98.6061 270.326 98.8145 271.777 98.6006 273.196C98.3867 274.616 97.7597 275.94 96.798 277.006C95.8364 278.071 94.5825 278.83 93.1926 279.188C91.8026 279.546 90.3383 279.486 88.9818 279.018C87.6252 278.549 86.4367 277.691 85.5642 276.552C84.6917 275.412 84.1738 274.041 84.0751 272.609C83.9765 271.177 84.3015 269.748 85.0095 268.499C85.7175 267.251 86.7772 266.238 88.0566 265.588Z" fill="url(#paint3_radial_400_190)"/>
<path id="Vector_9" d="M90.9658 270.66C91.2328 270.525 91.5243 270.445 91.823 270.424C92.1218 270.403 92.4218 270.442 92.7052 270.538C92.9886 270.635 93.2496 270.786 93.4729 270.984C93.6962 271.183 93.8773 271.423 94.0053 271.692C94.2321 272.243 94.2428 272.858 94.0356 273.417C93.8283 273.975 93.418 274.436 92.8854 274.71C92.3542 274.957 91.7467 274.987 91.1933 274.794C90.6399 274.601 90.1848 274.2 89.9259 273.677C89.7902 273.412 89.7094 273.123 89.6884 272.826C89.6674 272.53 89.7064 272.232 89.8034 271.95C89.9003 271.669 90.0531 271.41 90.2528 271.188C90.4524 270.967 90.695 270.787 90.9658 270.66Z" fill="#FFBFED"/>
<path id="Vector_10" style="mix-blend-mode:screen" d="M247.599 293.956C248.676 293.374 249.852 293.029 251.058 292.941C252.264 292.853 253.474 293.023 254.616 293.442C255.758 293.862 256.81 294.521 257.707 295.382C258.604 296.242 259.329 297.286 259.838 298.45C260.583 300.152 260.839 302.05 260.576 303.905C260.312 305.761 259.541 307.494 258.357 308.887C257.174 310.281 255.631 311.273 253.92 311.741C252.209 312.208 250.407 312.131 248.737 311.518C247.067 310.905 245.605 309.783 244.531 308.293C243.457 306.803 242.82 305.01 242.698 303.137C242.577 301.265 242.977 299.396 243.848 297.763C244.72 296.131 246.024 294.807 247.599 293.956Z" fill="url(#paint4_radial_400_190)"/>
<path id="Vector_11" d="M248.464 302.214C248.726 302.048 249.012 301.949 249.306 301.924C249.6 301.899 249.895 301.948 250.173 302.069C250.451 302.19 250.706 302.38 250.922 302.627C251.139 302.874 251.313 303.173 251.433 303.506C251.569 303.837 251.65 304.199 251.671 304.57C251.692 304.941 251.653 305.314 251.556 305.666C251.458 306.018 251.305 306.342 251.105 306.619C250.905 306.897 250.661 307.121 250.39 307.28C249.857 307.589 249.247 307.627 248.692 307.385C248.137 307.144 247.68 306.642 247.42 305.989C247.284 305.657 247.203 305.295 247.182 304.924C247.161 304.553 247.2 304.181 247.298 303.829C247.395 303.477 247.548 303.153 247.749 302.876C247.949 302.598 248.192 302.373 248.464 302.214Z" fill="#FFBFED"/>
<path id="Vector_12" style="mix-blend-mode:screen" d="M111.094 239.145C113.602 237.98 116.413 237.556 119.172 237.924C121.931 238.293 124.514 239.438 126.594 241.216C128.674 242.993 130.157 245.322 130.856 247.908C131.555 250.494 131.438 253.221 130.52 255.744C129.602 258.266 127.924 260.47 125.699 262.078C123.473 263.685 120.801 264.623 118.02 264.773C115.238 264.923 112.473 264.278 110.074 262.92C107.675 261.562 105.75 259.552 104.543 257.144C102.952 253.92 102.748 250.225 103.973 246.857C105.199 243.489 107.757 240.719 111.094 239.145Z" fill="url(#paint5_radial_400_190)"/>
<path id="Vector_13" d="M114.691 247.028C115.221 246.897 115.797 246.819 116.387 246.8C116.976 246.78 117.568 246.819 118.128 246.914C118.687 247.008 119.204 247.158 119.648 247.352C120.093 247.547 120.456 247.784 120.717 248.049C121.245 248.584 121.327 249.202 120.943 249.767C120.56 250.332 119.744 250.798 118.674 251.062C117.604 251.326 116.368 251.367 115.238 251.175C114.108 250.984 113.177 250.576 112.649 250.041C112.386 249.776 112.231 249.488 112.192 249.193C112.153 248.898 112.23 248.602 112.42 248.323C112.61 248.043 112.908 247.784 113.298 247.562C113.687 247.34 114.161 247.158 114.691 247.028Z" fill="#FFBFED"/>
<path id="Vector_14" d="M716.282 356.215C716.282 364.516 716.283 372.816 715.318 380.942C713.25 410.894 707.353 440.461 697.771 468.927C697.678 469.269 697.53 469.594 697.332 469.888C693.149 482.399 688.228 494.653 682.593 506.585C671.937 529.437 658.848 551.084 643.551 571.154C635.009 582.426 625.78 593.164 615.915 603.307C583.905 636.504 545.739 663.208 503.528 681.943C477.46 693.547 450.056 701.911 421.935 706.845C374.045 715.462 324.893 714.266 277.482 703.33C230.071 692.393 185.397 671.946 146.188 643.237C101.658 610.512 65.2775 568.033 39.8542 519.08C35.292 510.342 31.0809 501.168 27.3961 491.906C9.67184 448.854 0.638705 402.745 0.812771 356.215C0.812771 353.07 0.812771 349.924 0.812771 346.779C0.812771 343.634 0.812771 341.711 0.812771 339.265L0.812771 335.333C0.812771 329.828 1.60214 324.411 2.21628 318.907C2.21628 315.849 2.83064 312.703 3.26931 309.558C3.70798 306.412 4.05877 303.617 4.49744 300.821C4.93611 298.025 5.55027 294.792 6.16441 292.083C6.95401 287.103 8.00679 282.21 9.14733 277.317C9.8492 274.259 10.6388 271.201 11.3407 268.143C14.0604 257.571 17.3065 247.173 20.9036 236.951L22.483 232.582C23.1849 230.66 23.8868 228.825 24.6764 226.903C25.466 224.98 26.8695 221.398 28.0101 218.69C29.1506 215.981 30.2914 213.36 31.5196 210.739C38.6824 194.815 47.0406 179.452 56.5236 164.78C57.5764 163.12 58.6294 161.46 59.7699 159.8C60.9105 158.14 62.6652 155.431 64.1566 153.334C71.5671 142.708 79.5629 132.499 88.1078 122.753C118.089 88.4268 154.392 60.1328 195.055 39.3991C245.445 13.6874 301.271 0.327625 357.889 0.43063C411.551 0.278729 464.551 12.2271 512.915 35.38C520.022 38.7002 526.865 42.2826 533.62 46.127C534.35 46.4529 535.054 46.8326 535.726 47.2629H536.516C579.674 72.1315 617.169 105.664 646.622 145.733C667.779 174.485 684.488 206.234 696.191 239.921C696.521 241.084 696.932 242.222 697.42 243.329C697.42 244.465 698.122 245.601 698.56 246.736C705.83 269.341 710.826 292.609 713.475 316.198C714.177 322.664 714.703 329.217 715.054 335.857C716.282 342.585 716.282 349.313 716.282 356.215Z" fill="url(#paint6_radial_400_190)"/>
<g id="Vector_15" style="mix-blend-mode:multiply" opacity="0.2">
<path d="M716.282 354.428C716.282 362.711 716.283 370.994 715.318 379.103C714.366 383.077 712.402 386.74 709.615 389.741C704.403 394.286 698.026 397.304 691.191 398.46C681.365 400.64 671.099 401.686 661.098 403.081C648.921 404.621 636.93 407.367 625.302 411.277C603.193 418.741 581.594 427.624 560.643 437.871C538.621 448.854 515.84 458.265 492.473 466.034C480.015 470.132 467.03 472.661 454.484 476.584C448.519 478.415 442.553 479.723 436.938 481.206C428.691 483.124 420.707 485.739 412.548 487.658C401.932 490.099 391.667 493.587 381.051 495.767C370.435 497.946 357.363 502.655 345.344 504.486C335.833 506.009 326.188 506.536 316.567 506.055C312.356 506.055 307.793 505.096 304.021 504.922C298.406 504.486 292.703 504.922 287.176 504.224C279.054 503.801 270.911 504.211 262.874 505.445C253.814 506.825 244.613 507.03 235.501 506.055C226.567 504.65 217.765 502.521 209.181 499.69C200.101 497.116 190.721 495.738 181.281 495.592C177.596 495.592 173.999 496.202 170.402 496.551L159.084 497.423C153.249 497.974 147.373 497.974 141.538 497.423C132.705 496.428 124.087 494.045 116.007 490.361C107.008 486.416 97.5903 483.491 87.9323 481.641C79.4131 479.079 70.4732 478.19 61.6121 479.026C60.1206 479.026 58.8047 479.026 57.3132 479.026C55.8217 479.026 53.5405 479.985 51.6981 480.246C49.3871 480.281 47.1114 480.817 45.0303 481.816C44.0343 482.527 43.0958 483.314 42.223 484.17C41.1702 484.868 40.4681 485.914 39.3276 486.524C37.7092 487.235 36.037 487.818 34.3267 488.268C32.0409 489.157 29.5664 489.457 27.1327 489.14C9.58883 446.376 0.646966 400.61 0.812561 354.428C0.812561 351.289 0.812561 348.15 0.812561 345.011C0.812561 341.872 0.812561 339.954 0.812561 337.513L0.812561 333.589C0.812561 328.096 1.60193 322.69 2.21607 317.197C2.21607 314.145 2.83043 311.006 3.2691 307.867C3.70777 304.729 4.05857 301.938 4.49724 299.148C4.9359 296.358 5.55006 293.132 6.1642 290.429C6.95381 285.459 8.00658 280.576 9.14712 275.694C9.84899 272.642 10.6386 269.59 11.3405 266.538C14.0602 255.988 17.3063 245.612 20.9034 235.411L22.4828 231.051C23.1847 229.133 23.8866 227.302 24.6762 225.384C25.4658 223.466 26.8693 219.891 28.0099 217.188C29.1504 214.485 30.2912 211.869 31.5194 209.253C38.6822 193.362 47.0404 178.031 56.5234 163.39C57.5762 161.733 58.6292 160.077 59.7698 158.42C60.9103 156.763 62.665 154.06 64.1565 151.968C71.5669 141.363 79.5628 131.175 88.1076 121.451C84.0413 128.316 82.2318 136.272 82.9314 144.208C83.3666 146.436 84.0736 148.602 85.0369 150.66C85.2188 150.962 85.3661 151.284 85.4757 151.619C88.3709 147.259 91.2662 142.9 94.2491 138.54C97.2321 134.181 102.057 127.118 106.356 121.886C110.655 116.655 114.252 113.167 118.113 109.069C119.429 107.587 122.85 103.14 125.131 103.402C125.921 105.843 123.64 109.157 122.587 111.162C121.534 113.167 118.815 116.917 117.586 119.881C117.586 121.015 116.621 123.107 118.288 123.02C119.955 122.933 119.955 121.886 120.306 121.712C122.236 120.404 123.991 118.835 125.921 117.353C127.851 115.87 131.624 113.516 134.694 111.423C137.765 109.331 142.327 105.843 146.1 102.704C156.452 95.3801 166.981 87.62 177.947 81.1678C189.507 74.3997 201.427 68.258 213.655 62.7701C220.147 59.8056 226.376 56.6667 232.956 54.0509C237.946 52.1172 243.079 50.5721 248.31 49.4297C252.714 48.6251 257.171 48.1299 261.645 47.9476C265.34 47.4662 269.061 47.2042 272.788 47.1629C276.034 47.1629 279.192 46.5525 282.438 46.5525C284.339 46.6156 286.224 46.9084 288.053 47.4245C288.58 47.4245 290.597 47.4243 290.948 48.3835C292.703 51.0864 284.895 50.5632 283.754 51.0864C279.377 53.9267 275.395 57.3274 271.91 61.2007C268.576 64.1652 265.155 66.6938 261.908 69.9199C258.318 72.5882 255.329 75.9743 253.135 79.86C252.609 81.3422 251.644 83.522 252.609 85.0043C253.574 86.4865 256.03 86.3993 257.697 86.0505C262.589 84.9981 267.421 83.6883 272.173 82.1268C278.227 80.2086 284.368 78.4648 290.422 76.1978C295.537 74.1842 300.864 72.7511 306.302 71.9254C311.741 71.2279 317.181 70.0944 322.708 69.4841C325.867 68.9347 329.065 68.643 332.271 68.6121C334.991 68.6121 337.535 67.8274 340.255 67.8274C345.168 67.8274 341.571 73.2333 339.114 74.6284C331.454 79.8479 322.975 83.7667 314.022 86.2248C303.609 87.8853 293.321 90.2449 283.228 93.2874C276.209 95.8159 268.927 97.9088 261.996 100.612C258.224 102.094 254.451 103.75 250.766 105.32C245.415 107.587 240.414 110.377 235.15 112.731C227.093 116.74 219.402 121.437 212.164 126.769C205.233 131.391 198.74 136.622 192.072 141.679C186.135 146.116 180.561 151.014 175.403 156.327C170.594 161.017 166.645 166.506 163.734 172.545C160.383 178.989 158.271 185.997 157.505 193.21C157.515 196.097 158.193 198.943 159.486 201.528C160.779 204.113 162.653 206.369 164.963 208.12C170.262 212.007 176.556 214.334 183.124 214.833C187.644 214.934 192.165 214.642 196.634 213.962C203.006 212.175 209.481 210.777 216.024 209.776C223.208 209.253 230.422 209.253 237.606 209.776C245.78 210.539 253.778 212.599 261.295 215.88C268.534 219.721 275.457 224.123 282 229.046C291.423 235.564 300.233 242.919 308.32 251.018C312.882 255.291 317.093 259.737 321.743 263.923C325.509 267.027 329.433 269.937 333.499 272.642C342.784 278.668 353.057 283.035 363.855 285.546C372.39 288.135 381.447 288.525 390.175 286.68C396.58 284.849 402.283 281.536 408.687 279.879C412.587 279.005 416.632 279.005 420.532 279.879C426.556 281.157 432.709 281.742 438.868 281.623C442.026 281.623 445.009 281.187 448.255 280.925C451.4 280.852 454.537 281.264 457.555 282.146C459.749 282.669 462.907 283.977 460.099 286.331C457.292 288.685 450.624 288.075 446.852 288.075C440.115 287.812 433.368 288.074 426.673 288.86C424.392 288.86 417.373 290.255 416.934 293.394C416.496 296.532 426.41 297.317 428.34 296.968C434.481 296.184 440.622 295.66 446.764 295.225C454.356 295.264 461.93 295.965 469.399 297.317C476.857 298.102 484.138 300.282 491.684 300.805C494.917 300.809 498.135 300.369 501.247 299.497C506.377 298.369 511.443 296.972 516.425 295.312C524.759 292.783 532.831 289.732 541.429 287.988C548.832 286.419 556.485 286.419 563.889 287.988L575.031 289.644C578.628 290.255 582.401 289.644 586.085 290.516C596.693 290.953 607.245 288.766 616.792 284.151C628.11 279.356 638.726 272.903 650.482 269.241C657.918 267.06 665.563 265.657 673.293 265.056C675.115 264.533 677.02 264.355 678.908 264.533C679.873 264.533 680.663 265.405 681.54 265.666C683.996 266.451 684.435 264.794 685.225 262.876C686.275 261.254 687.157 259.531 687.857 257.732C688.383 255.988 688.91 254.07 689.524 252.239C690.138 250.408 690.05 247.966 690.84 245.874C691.629 243.781 694.612 238.899 696.016 238.724C696.893 238.724 696.981 240.817 697.069 242.124C697.156 243.432 697.069 242.735 697.069 242.996C697.155 243.926 697.522 244.807 698.122 245.525C705.392 268.083 710.388 291.303 713.036 314.843C710.317 313.971 707.597 313.012 704.789 312.314C701.982 311.617 696.63 310.832 692.594 310.135C688.558 309.437 685.049 308.478 681.277 307.955C673.174 307.436 665.061 308.81 657.589 311.966C653.886 313.252 650.28 314.796 646.797 316.587C643.463 318.331 640.217 320.074 636.796 321.557C633.374 323.039 629.689 324.434 625.917 325.742C620.302 327.66 615.213 330.538 609.598 332.456C601.007 336.126 592.22 339.328 583.278 342.047C575.19 344.281 566.905 345.741 558.537 346.406C551.255 346.842 543.885 344.924 536.603 345.883C533.708 345.883 530.988 347.191 527.83 347.714C525.444 348.432 523.011 348.985 520.548 349.371C516.6 349.371 512.827 349.371 508.879 350.068C502.475 350.766 496.07 351.376 489.666 351.464C484.821 351.531 479.985 351.91 475.19 352.597C470.715 353.207 466.416 353.382 461.766 354.079C457.346 354.653 453.032 355.857 448.957 357.654C447.817 358.177 444.922 359.485 445.185 361.055C445.448 362.624 446.852 362.886 447.817 363.235C450.987 364.241 454.33 364.597 457.643 364.281C460.431 364.251 463.215 364.047 465.978 363.67C469.838 363.67 473.698 363.67 477.471 363.67C489.781 362.634 502.178 363.666 514.143 366.722C521.564 368.422 529.232 368.777 536.779 367.768C547.219 366.199 557.221 362.973 567.573 361.316C585.822 358.439 604.071 355.038 622.056 351.376C630.83 349.72 639.603 346.842 647.85 345.273L659.519 343.093C664.783 342.047 670.31 341.872 675.662 341.088C683.645 339.954 691.366 337.164 699.35 336.205C704.263 335.595 709.176 334.984 714.001 334.723C716.282 340.826 716.282 347.54 716.282 354.428Z" fill="#470024"/>
</g>
<g id="Vector_16" style="mix-blend-mode:multiply" opacity="0.2">
<path d="M642.036 570.945C587.869 643.051 508.707 691.991 420.303 708.027V707.585C415.388 702.462 410.121 697.958 404.854 693.188C399.167 687.708 393.157 682.576 386.859 677.819C375.379 669.832 363.451 662.518 351.133 655.914C338.331 648.031 324.774 641.462 310.666 636.306C302.991 633.585 295.165 631.315 287.229 629.505C277.485 627.562 267.303 627.12 257.384 625.972C225.891 621.894 193.889 625.096 163.81 635.335C157.576 637.378 151.503 639.888 145.64 642.842L144.323 643.549C99.7708 610.467 63.3708 567.525 37.9341 518.038C41.0797 516.769 44.3911 515.966 47.7654 515.653C50.3988 515.653 53.0324 515.653 55.6658 515.653C60.3893 516.294 64.9994 517.602 69.3594 519.539C81.0305 524.599 93.717 526.837 106.403 526.075C109.632 525.781 112.832 525.22 115.971 524.397C118.955 523.69 121.676 522.101 124.749 521.571C129.013 521.217 133.3 521.217 137.564 521.571C140.978 521.881 144.357 522.502 147.659 523.426C150.819 523.956 153.891 524.132 156.964 524.75C160.186 525.632 163.474 526.252 166.795 526.605C170.407 526.56 174.012 526.295 177.592 525.81C184.643 524.868 191.564 523.12 198.22 520.599C203.349 519.168 208.618 518.309 213.933 518.038C227.564 517.71 241.111 520.268 253.697 525.545C261.05 527.414 268.587 528.451 276.169 528.637C283.981 529.255 291.706 529.52 299.606 529.432C311.544 529.432 323.745 527.93 335.508 526.517C340.336 525.987 345.076 525.28 349.816 524.309C358.594 522.542 367.372 521.217 376.15 519.539C397.915 515.352 419.426 509.926 440.581 503.287C449.797 500.373 458.839 496.575 468.144 493.66C471.999 492.439 475.928 491.466 479.906 490.745C483.724 489.465 487.851 489.465 491.669 490.745C494.039 491.893 495.443 493.837 494.214 496.486C492.985 499.136 489.035 501.079 486.841 502.492C483.456 504.206 479.894 505.538 476.219 506.467C469.46 508.763 462.789 511.502 456.03 513.798C451.992 515.123 447.691 515.83 443.565 516.801C438.727 518.115 433.977 519.737 429.345 521.659C425.307 523.249 421.796 525.81 417.582 527.4C411.964 529.52 405.995 531.198 400.026 533.406C385.903 540.498 371.224 546.406 356.136 551.072C351.221 552.22 346.305 553.81 341.389 555.488C339.195 556.106 335.771 557.431 335.771 560.523C335.771 565.116 342.443 566.705 345.69 567.412C350.782 568.649 355.61 570.592 360.701 571.74C364.071 572.735 367.312 574.128 370.357 575.891C374.885 578.3 379.69 580.139 384.665 581.367C395.776 584.318 407.233 585.744 418.723 585.607C434.524 584.989 450.236 581.809 466.125 582.692C472.911 583.24 479.62 584.513 486.138 586.49C492.634 588.168 498.954 589.228 505.538 590.288C522.649 592.585 539.962 592.94 557.152 591.348C569.298 590.414 581.376 588.733 593.318 586.314C601.654 585.289 609.862 583.395 617.808 580.661C621.495 579.071 625.27 578.364 628.869 576.598C632.468 574.831 633.082 574.566 635.364 573.683C637.506 572.58 639.738 571.664 642.036 570.945Z" fill="#470024"/>
</g>
<g id="Vector_17" style="mix-blend-mode:multiply" opacity="0.2">
<path d="M698.284 469.536C693.942 482.397 688.859 494.999 683.06 507.278L682.18 507.716C677.869 510.05 673.926 513 670.476 516.473C667.852 518.949 664.889 521.042 661.676 522.691C659.476 523.742 657.452 525.23 655.252 526.281C653.052 527.332 650.588 528.908 648.299 530.222C644.593 532.578 641.116 535.276 637.915 538.278C636.683 539.329 635.715 540.555 634.395 541.606C633.075 542.657 632.371 543.007 631.403 543.883C630.435 544.758 627.707 547.385 625.683 549.049C621.357 552.303 616.696 555.092 611.779 557.368C608.59 558.766 605.294 559.908 601.923 560.783C598.227 561.922 594.53 562.885 590.834 563.848C587.138 564.812 583.53 566.037 579.922 567.176C575.927 568.374 571.834 569.224 567.69 569.715C561.178 570.679 554.754 570.416 548.241 571.817C544.897 572.518 541.641 573.569 538.209 574.357C534.777 575.145 531.785 576.196 528.441 576.634C522.748 577.421 516.973 577.421 511.281 576.634C509.288 576.503 507.289 576.503 505.297 576.634C504.064 576.634 502.744 576.196 501.424 576.196H499.136C493.727 575.583 488.265 575.583 482.856 576.196C477.4 576.721 471.768 576.984 466.312 577.334C463.649 577.598 460.966 577.598 458.304 577.334C455.17 577.07 452.02 577.07 448.887 577.334C442.008 577.669 435.112 577.346 428.295 576.371C428.38 573.832 429.38 571.408 431.111 569.54C431.639 568.665 431.727 568.052 432.695 567.526C433.772 566.998 434.89 566.559 436.039 566.213C436.792 565.803 437.589 565.479 438.415 565.249C440.326 564.772 442.266 564.421 444.223 564.199C446.307 563.677 448.424 563.297 450.559 563.06C452.935 563.06 455.487 563.06 457.863 563.06H464.112C468.09 563.316 472.037 563.932 475.904 564.899C479.6 565.95 483.384 567.176 487.256 568.052C498.773 572.305 511.106 573.922 523.337 572.78C524.833 572.78 526.329 572.78 527.737 571.905C530.465 571.292 532.929 570.153 535.657 569.54C542.609 567.964 549.737 566.826 556.514 564.637C559.594 563.498 562.674 562.36 565.314 560.959C567.954 559.557 570.682 557.631 573.498 556.317C576.314 555.004 579.13 553.515 582.298 552.289L590.658 548.611C597.303 545.736 603.795 542.52 610.107 538.979C616.012 535.45 621.712 531.59 627.179 527.42C633.691 522.691 639.763 517.261 646.451 512.708C651.274 509.519 656.268 506.596 661.412 503.951C664.871 502.597 668.06 500.64 670.828 498.171C673.331 494.691 675.623 491.065 677.692 487.313C680.012 483.646 682.996 480.439 686.492 477.855C688.252 476.542 690.188 475.491 691.948 474.177C693.708 472.864 696.172 471.112 698.284 469.536Z" fill="#470024"/>
</g>
<g id="Vector_18" style="mix-blend-mode:multiply" opacity="0.2">
<path d="M670.16 184.154C662.603 191.556 653.734 197.428 644.024 201.457C630.694 207.048 615.971 205.628 602.118 207.225C599.418 207.225 597.414 208.911 594.974 209.266C592.535 209.621 589.834 208.823 587.308 209.266C581.311 210.281 575.26 210.933 569.187 211.219C560.474 211.219 553.069 213.171 544.618 213.171C535.488 214.504 526.218 214.504 517.088 213.171C517.872 209.444 528.762 207.669 532.073 206.249C538.922 203.474 546.221 202.03 553.592 201.99C557.948 201.99 561.694 200.304 565.963 199.949C570.232 199.594 573.455 200.393 577.289 199.949C581.122 199.505 592.535 196.843 591.316 190.632C590.116 188.447 588.62 186.445 586.872 184.686C584.78 183.031 582.331 181.905 579.728 181.403C575.024 180.338 571.8 180.781 576.418 175.723C579.38 172.351 582.777 166.85 576.418 165.341C571.239 164.997 566.048 165.753 561.171 167.56C558.558 168.003 556.205 167.56 553.505 167.56C550.804 167.56 548.452 169.955 546.012 170.577C543.573 171.198 539.652 170.577 536.342 171.464C533.101 172.352 529.765 172.829 526.41 172.884C513.69 172.884 500.273 181.758 487.467 178.297L471.872 174.836C463.714 174.183 455.507 174.872 447.565 176.877C437.895 178.208 428.224 179.184 418.466 180.693C412.584 182.729 406.298 183.248 400.171 182.201C402.349 179.894 407.75 179.628 410.8 178.829C418.902 176.611 427.44 175.014 435.629 173.416C443.819 171.819 453.664 170.577 462.55 169.512C468.474 168.713 474.486 169.512 479.974 168.891C496.337 166.739 512.41 162.721 527.891 156.911C542.44 150.788 553.592 137.832 564.831 126.563C571.276 121.048 576.704 114.407 580.861 106.951C582.602 102.548 584.086 98.0446 585.304 93.4632C586.22 88.6978 585.89 83.7705 584.346 79.1763C619.231 108.305 648.354 143.932 670.16 184.154Z" fill="#470024"/>
</g>
<g id="Vector_19" style="mix-blend-mode:multiply" opacity="0.2">
<path d="M45.4277 208.79C48.4921 200.11 52.4683 191.789 57.288 183.97C58.7977 182.502 60.4318 181.172 62.1717 179.995C64.6136 177.698 68.0147 171.162 71.9391 171.162C75.8635 171.162 70.7183 178.935 76.7357 178.582C82.7532 178.228 87.9858 171.339 92.8695 168.159C95.4481 166.388 98.4757 165.407 101.59 165.332C104.294 166.039 103.422 166.922 103.858 169.66C106.079 169.313 108.097 168.15 109.526 166.392C113.281 162.008 117.696 158.252 122.608 155.263C125.137 153.85 135.689 146.43 139.09 149.787C142.491 153.143 132.724 164.184 131.503 165.774C125.699 173.378 121.62 182.184 119.555 191.566C118.769 198.903 120.198 206.31 123.655 212.807C127.112 219.304 132.433 224.587 138.916 227.957C141.924 229.579 144.836 231.378 147.637 233.345C151.619 235.696 155.994 237.283 160.544 238.027C170.692 241.413 181.03 244.186 191.503 246.329C202.632 247.467 213.866 246.871 224.817 244.563C231.144 242.532 237.937 242.532 244.264 244.563C248.208 247.201 251.516 250.703 253.945 254.809C257.653 258.539 261.885 261.694 266.503 264.172C271.823 267.882 277.927 270.355 283.945 273.623C287.607 275.654 290.66 278.393 294.322 280.512C297.783 282.1 301.034 284.118 304.003 286.519C306.539 288.38 308.636 290.786 310.144 293.566C311.652 296.345 312.533 299.429 312.724 302.595C312.724 306.658 309.497 307.011 307.491 310.102C312.287 313.812 318.567 314.342 323.363 317.699C324.758 318.67 328.945 320.525 328.334 322.733C327.288 326.443 316.735 325.648 314.904 325.648C294.322 325.648 273.567 325.03 252.985 325.648C245.743 325.837 238.533 326.694 231.445 328.21C230.136 328.297 228.86 328.664 227.702 329.288C226.544 329.913 225.531 330.78 224.73 331.831C228.357 334.433 232.669 335.878 237.113 335.983C247.665 337.308 258.043 340.046 268.596 341.547C279.148 343.049 287.607 347.554 297.462 349.939C301.386 350.91 305.224 352.323 309.235 353.207C314.427 354.09 319.671 354.621 324.933 354.797C346.299 356.74 367.927 351.617 389.467 351.705C397.509 351.824 405.549 351.411 413.537 350.469C420.605 349.466 427.538 347.659 434.206 345.08C438.392 343.579 442.927 342.961 446.764 341.724C450.601 340.488 455.049 338.544 459.409 337.573C466.961 335.588 474.719 334.521 482.52 334.393C489.409 334.393 496.037 336.248 502.927 335.718C513.828 334.834 523.508 330.418 534.235 328.916C553.635 326.03 572.613 320.75 590.746 313.194C597.95 310.588 605.452 308.926 613.072 308.248C615.165 308.248 617.083 306.923 619.176 306.658C621.269 306.393 622.839 306.658 624.758 306.658C628.66 305.374 632.361 303.53 635.746 301.182C640.559 297.558 645.599 294.253 650.833 291.289C656.502 288.904 662.868 287.579 668.711 285.547C670.979 284.841 673.246 283.781 675.514 282.986C677.781 282.191 679.438 282.986 680.659 281.484C676.243 284.494 671.344 286.706 666.182 288.02C661.216 289.945 656.523 292.529 652.229 295.705C649.87 298.227 647.271 300.506 644.467 302.506C638.472 307.22 631.833 311.029 624.758 313.812C612.81 317.081 601.473 322.645 589.874 325.383C578.275 328.122 565.368 330.418 553.246 333.068C527.5 338.911 501.438 343.217 475.194 345.964C464.697 346.963 454.29 348.764 444.06 351.352C440.049 352.324 436.909 354.797 432.898 355.768C428.886 356.74 423.13 358.771 418.247 360.361C408.305 363.806 398.45 366.721 388.683 370.519C383.537 372.551 374.642 372.551 372.723 378.822C376.607 380.783 381.017 381.403 385.282 380.589C388.589 380.898 391.916 380.898 395.223 380.589C399.204 379.519 403.085 378.1 406.822 376.349C410.398 374.759 413.799 373.346 417.549 372.021C421.299 370.696 422.781 369.018 426.793 369.018C429.047 369.372 431.341 369.372 433.595 369.018C435.601 368.399 436.735 367.251 439.177 368.134C438.217 370.254 433.857 371.932 431.851 372.992C429.845 374.052 426.444 374.494 423.915 376.879C421.386 379.264 419.991 380.765 423.915 382.797C429 384.356 434.369 384.719 439.613 383.857C454.962 383.415 469.787 376.879 485.31 380.147C494.031 381.913 502.752 384.122 511.473 385.623C522.117 387.33 532.934 387.626 543.653 386.506C554.206 385.182 564.496 381.914 575.223 380.854C580.892 380.324 586.822 378.734 592.665 377.674L614.903 373.699C624.147 371.932 633.479 369.724 642.723 368.134C649.787 366.986 657.025 366.544 664.176 365.308C666.407 365.042 668.661 365.042 670.891 365.308C673.421 365.308 672.635 366.014 674.292 366.456C676.602 367.016 678.874 367.724 681.095 368.576C683.362 369.547 687.635 369.194 688.159 372.197C672.287 383.503 650.048 384.652 631.996 389.863C619.7 393.308 607.665 397.636 595.543 401.522C581.153 406.115 566.676 410.355 551.938 414.772C537.2 419.188 525.078 424.488 511.56 428.992C500.485 432.702 489.758 437.207 478.508 440.475C472.752 442.153 467.607 444.892 461.938 446.746C456.27 448.601 450.863 450.015 445.282 452.135C440.625 453.815 435.879 455.23 431.066 456.374C424.787 458.052 419.206 460.702 413.101 462.822C406.997 464.942 400.369 465.825 394.264 468.299C389.496 470.452 384.603 472.31 379.613 473.863C371.503 476.072 363.479 478.015 355.369 479.87C349.613 481.283 344.119 483.933 338.363 484.993C331.844 486.063 325.257 486.653 318.654 486.759C312.375 486.759 306.444 488.261 300.078 488.173C294.764 487.818 289.433 487.818 284.119 488.173C275.435 489.176 266.693 489.56 257.956 489.321H248.014C244.348 489.94 240.605 489.94 236.939 489.321C237.462 488.084 243.218 487.466 245.224 487.113C249.022 486.714 252.85 486.714 256.648 487.113C260.654 487.421 264.677 487.421 268.683 487.113C273.218 486.494 278.014 486.583 282.549 485.699C289.141 484.502 295.662 482.939 302.084 481.018C305.921 479.87 308.799 477.485 312.462 476.072C315.559 475.208 318.704 474.53 321.88 474.04C326.939 472.803 331.735 471.92 336.968 471.125C339.758 471.125 342.723 471.125 345.689 470.507C350.2 469.595 354.611 468.235 358.857 466.444C366.444 463.794 373.508 460.967 380.834 457.611C384.827 456.188 388.378 453.719 391.124 450.456C396.27 443.125 383.973 444.538 380.223 445.51C369.8 449.045 359.09 451.646 348.218 453.283C343.421 453.283 338.886 454.431 334.003 454.696C329.119 454.961 322.316 456.286 316.125 456.198C309.933 456.109 305.049 457.522 299.381 457.699C291.445 457.699 283.421 458.759 275.485 459.466C267.549 460.172 258.043 462.116 248.886 463.176C242.259 463.971 235.718 464.147 229.003 465.119C219.235 466.444 209.904 469.094 200.224 471.037C194.817 472.097 189.497 473.687 184.177 474.747C178.352 475.464 172.448 475.135 166.736 473.775C157.143 472.097 147.462 471.39 137.869 468.917C124.65 465.299 112.498 458.478 102.462 449.043C93.0239 440.001 81.1078 434.058 68.2764 431.996C58.1561 430.681 47.8719 431.956 38.3638 435.705C31.0222 438.252 23.2627 439.332 15.515 438.885C6.18367 438.444 11.0672 430.052 11.2416 424.134C11.6777 407.794 11.2416 391.541 12.8986 375.289C13.4219 369.901 18.5673 320.79 26.6778 324.853C27.4641 328.758 27.9885 332.713 28.2475 336.689C28.2475 339.958 31.2127 341.724 31.5615 344.815C33.8289 344.815 36.0962 335.099 36.6195 332.98C38.3637 325.472 40.3696 317.964 41.9394 310.279C43.9962 300.683 44.6716 290.835 43.945 281.042C43.929 277.308 43.0002 273.637 41.2416 270.355C39.4974 267.97 38.3636 268.412 35.4857 268.323C30.5148 268.323 28.3345 262.759 28.3345 258.254C28.431 250.771 30.0027 243.384 32.9569 236.525C35.5731 229.989 38.887 223.717 41.0672 217.004C41.6777 214.354 44.2068 207.73 45.4277 208.79Z" fill="#470024"/>
</g>
<g id="Vector_20" style="mix-blend-mode:multiply" opacity="0.2">
<path d="M613.913 606.311C582.259 639.277 544.518 665.797 502.775 684.403C496.29 682.026 489.573 680.339 482.734 679.37C478.57 679.37 470.154 679.37 466.944 675.552C463.734 671.735 472.41 671.301 475.186 670.78C477.962 670.259 484.556 670.78 485.597 666.702C488.026 658.025 456.793 654.728 451.501 653.426C442.154 651.646 432.644 650.86 423.131 651.084C417.439 650.89 411.802 649.897 406.387 648.133C401.181 646.485 395.976 645.443 390.77 643.882C380.438 640.682 369.84 638.417 359.103 637.114C357.368 637.114 345.395 636.073 345.048 634.337C350.834 632.316 356.785 630.806 362.834 629.825C365.176 629.391 366.131 630.346 367.953 630.78C369.775 631.214 372.898 631.474 375.501 632.168C400.261 637.656 425.661 639.7 450.981 638.242C454.364 638.242 457.227 636.94 460.524 636.767C463.821 636.593 465.816 636.767 468.506 636.767C476.895 636.817 485.249 635.678 493.319 633.383C500.52 631.474 508.328 630.433 515.355 628.35C517.524 627.656 524.899 626.875 525.159 624.272C520.933 623.619 516.631 623.619 512.405 624.272C506.093 624.474 499.773 624.242 493.492 623.578C486.031 622.537 478.656 622.71 471.195 621.756C466.393 621.886 461.649 620.685 457.487 618.285C459.57 615.422 465.469 614.901 468.593 614.294C475.36 613.166 482.214 612.471 488.981 611.517C506.332 609.174 523.163 608.22 540.342 607.439C549.625 607.005 558.995 605.356 568.278 605.703C575.479 605.703 582.419 607.352 589.62 607.265C595.086 607.265 600.639 607.265 606.105 607.265C608.733 607.212 611.349 606.892 613.913 606.311Z" fill="#470024"/>
</g>
<g id="Group" style="mix-blend-mode:screen" opacity="0.5">
<path id="Vector_21" d="M183.108 257.936C182.058 263.542 179.344 270.375 182.32 275.894C183.916 278.407 186.327 280.294 189.149 281.238C196.762 285.69 205.587 287.621 214.362 286.757C221.414 286.027 228.302 284.163 234.76 281.238C238.952 278.227 241.809 273.703 242.727 268.623C243.686 266.417 243.852 263.946 243.198 261.631C242.543 259.316 241.109 257.299 239.138 255.921C237.963 255.108 236.735 254.377 235.461 253.731C233.341 253.168 231.171 252.816 228.982 252.68C224.183 252.197 219.359 252.022 214.537 252.154H204.645C201.67 252.355 198.731 252.913 195.89 253.819C191.25 255.045 185.735 254.782 183.108 257.936Z" fill="#B83138"/>
<path id="Vector_22" d="M246.14 276.946C248.379 274.565 250.908 272.475 253.669 270.726C255.332 272.04 258.046 272.303 258.922 274.493C259.453 275.301 259.683 276.271 259.571 277.233C259.459 278.194 259.012 279.085 258.309 279.749C257.612 280.569 256.709 281.188 255.694 281.543C254.678 281.897 253.586 281.973 252.531 281.764C250.342 281.238 247.19 280.274 246.84 277.646L246.14 276.946Z" fill="#B83138"/>
<path id="Vector_23" d="M222.509 291.575C225.81 289.714 229.303 288.216 232.927 287.107C234.765 286.669 236.341 285.618 238.18 285.18C239.99 284.746 241.836 284.482 243.695 284.392C246.059 284.392 247.197 284.391 248.948 285.881C250.232 287.188 251.377 288.627 252.362 290.173C253.033 290.907 253.518 291.791 253.777 292.752C254.036 293.712 254.061 294.72 253.85 295.692C253.071 298.471 251.595 301.004 249.56 303.051C246.296 306.198 242.381 308.59 238.092 310.059C233.448 312.341 228.378 313.624 223.209 313.825C220.666 313.356 218.153 312.742 215.68 311.986C212.003 311.11 208.239 311.11 204.474 310.409C200.71 309.708 195.72 307.518 197.208 302.7C198.553 300.209 200.453 298.06 202.76 296.419C205.068 294.779 207.721 293.691 210.515 293.239L216.993 292.101C218.813 291.762 220.658 291.586 222.509 291.575Z" fill="#B83138"/>
<path id="Vector_24" d="M265.402 283.691C263.416 286.049 262.087 288.889 261.55 291.925C262.425 291.925 262.863 292.364 263.826 292.364C264.448 292.292 265.046 292.083 265.577 291.75C267.241 291.225 268.466 290.962 268.991 289.122C269.436 287.967 269.436 286.687 268.991 285.531C267.825 284.643 266.481 284.015 265.052 283.691H265.402Z" fill="#B83138"/>
<path id="Vector_25" d="M304.792 360.429C292.528 358.501 280.164 357.272 267.761 356.749C253.768 357.076 240.291 362.106 229.503 371.028C225.125 374.795 220.135 378.474 220.223 384.782C220.328 386.872 220.951 388.903 222.036 390.693C223.121 392.482 224.634 393.973 226.439 395.031C232.307 398.828 238.843 401.473 245.699 402.828C252.279 404.799 259.016 406.205 265.835 407.033C272.116 407.777 278.463 407.777 284.745 407.033C291.314 405.955 297.784 404.343 304.092 402.214C309.399 401.093 314.176 398.225 317.662 394.067C319.505 391.248 320.535 387.974 320.638 384.607C321.226 381.289 321.117 377.886 320.318 374.613C319.519 371.34 318.048 368.27 315.998 365.597C314.632 363.956 312.917 362.641 310.979 361.747C309.04 360.853 306.927 360.402 304.792 360.429Z" fill="#B83138"/>
<path id="Vector_26" d="M336.315 361.131C337.298 364.282 338.807 367.244 340.78 369.891C342.356 368.401 346.383 369.278 348.397 369.278C350.192 369.173 351.976 368.939 353.737 368.577C356.714 368.051 360.653 367.701 360.741 363.934C360.828 360.167 355.401 358.503 351.986 358.503C346.996 358.503 341.656 357.452 337.979 361.394L336.315 361.131Z" fill="#B83138"/>
<path id="Vector_27" d="M227.495 411.325C232.222 411.968 236.949 412.493 241.677 412.902C246.396 413.101 251.086 413.747 255.684 414.829C258.661 415.705 260.675 416.143 262.25 418.859C263.826 421.575 263.651 421.137 262.951 422.714C261.544 424.906 259.351 426.474 256.823 427.094C253.243 428.667 249.557 429.984 245.792 431.036C237.963 433.354 229.875 434.678 221.716 434.978C219.61 434.996 217.53 434.504 215.654 433.543C213.779 432.582 212.164 431.181 210.948 429.459C209.934 427.818 209.34 425.953 209.217 424.028C209.095 422.102 209.449 420.177 210.248 418.421C211.196 416.274 212.757 414.455 214.736 413.192C216.714 411.93 219.02 411.28 221.366 411.325C223.087 411.25 224.808 411.488 226.444 412.026C227.582 412.377 229.596 412.464 227.495 411.325Z" fill="#B83138"/>
<path id="Vector_28" d="M25.4365 394.769C24.4036 401.904 23.9352 409.11 24.0357 416.319C23.9553 417.797 24.2506 419.27 24.8936 420.603C25.5366 421.936 26.5064 423.084 27.7128 423.94C31.1887 425.382 35.058 425.568 38.656 424.466C43.1074 422.778 47.3168 420.51 51.1751 417.721C53.7219 415.845 55.9156 413.531 57.6537 410.888C60.7634 406.558 62.776 401.538 63.5191 396.258C64.5247 390.266 64.7014 384.165 64.0444 378.125C63.2055 372.368 61.4623 366.78 58.8792 361.568C58.1706 359.132 56.6191 357.027 54.5019 355.631C52.3847 354.235 49.8398 353.638 47.323 353.947C42.8538 354.927 38.5883 356.676 34.7163 359.115C32.0843 360.811 29.9415 363.167 28.5006 365.948C27.2275 368.513 26.258 371.217 25.6117 374.007C25.0187 376.375 24.5511 378.773 24.211 381.191C23.2788 385.739 23.7049 390.461 25.4365 394.769Z" fill="#B83138"/>
<path id="Vector_29" d="M45.5712 338.879C44.7833 335.551 42.8572 330.82 44.3455 327.666C44.3455 327.141 45.221 326.265 45.5712 325.652C45.8524 325.055 46.2672 324.531 46.7834 324.121C47.2996 323.711 47.9034 323.425 48.5478 323.286C51.9621 322.673 55.0262 326.265 55.639 329.156C56.5638 332.297 56.2829 335.671 54.8511 338.617C53.713 340.281 49.3356 342.296 47.6722 340.368L45.5712 338.879Z" fill="#B83138"/>
<path id="Vector_30" d="M53.451 310.234C52.6631 300.948 49.3363 289.823 55.5521 281.589C57.5656 278.785 60.9801 274.493 65.0072 275.018C67.4585 275.018 69.8222 278.084 71.3105 279.836C73.6575 282.592 75.3886 285.818 76.3881 289.298C77.5532 292.091 78.291 295.044 78.5767 298.058C78.5554 301.705 77.9038 305.32 76.6507 308.745C75.9002 311.086 74.6275 313.225 72.9288 315C71.23 316.776 69.1498 318.142 66.8456 318.994C65.2798 319.407 63.6415 319.463 62.051 319.16C60.4604 318.857 58.958 318.202 57.6533 317.242C56.4696 316.467 55.4765 315.434 54.7487 314.221C54.0209 313.007 53.5772 311.644 53.451 310.234Z" fill="#B83138"/>
<path id="Vector_31" d="M46.9701 265.12C47.5931 268.273 48.876 271.258 50.7345 273.88C51.6099 273.179 52.9231 273.267 53.9736 272.829C55.3148 272.253 56.4676 271.312 57.3004 270.113C57.8395 269.329 58.2043 268.439 58.3705 267.502C58.5366 266.565 58.5 265.603 58.2633 264.682C57.738 262.93 54.849 260.915 53.3608 259.864C50.2966 257.586 48.4582 260.302 46.2695 262.579L46.9701 265.12Z" fill="#B83138"/>
<path id="Vector_32" d="M375.792 407.033C379.586 404.801 383.607 402.981 387.786 401.601C390.306 400.946 392.791 400.156 395.227 399.236C401.483 397.685 407.875 396.746 414.312 396.433C417.814 396.433 421.229 396.433 424.818 395.557L432.522 394.33C440.226 393.279 447.755 391.002 455.547 389.95C459.223 389.425 463.075 388.549 466.752 388.374C469.116 388.374 471.48 387.673 473.844 387.673C478.309 387.673 482.598 386.972 487.151 386.884C503.714 388.109 520.002 391.799 535.476 397.834C539.153 398.886 542.83 399.762 546.507 400.463C551.586 401.968 556.913 402.444 562.178 401.864C567.43 400.55 565.68 395.207 562.178 393.104C558.049 390.498 553.223 389.214 548.346 389.425C545.58 389.161 542.795 389.161 540.029 389.425C535.914 390.126 529.173 391.527 528.21 396.52C528.034 398.268 528.034 400.029 528.21 401.777C528.341 402.912 528.341 404.058 528.21 405.193C526.824 409.371 523.917 412.874 520.068 415.004C518.23 416.143 516.391 416.756 514.64 417.983C512.579 419.349 510.413 420.55 508.162 421.575C504.748 423.414 501.333 424.816 497.919 426.655C495.608 427.718 493.24 428.654 490.828 429.459C484.36 432.389 477.689 434.848 470.867 436.817C465.439 438.219 460.362 440.584 454.846 441.81C451.607 442.599 448.806 444.176 446.092 445.227C444.658 445.745 443.196 446.183 441.714 446.541C439.263 446.979 437.162 448.118 434.798 448.643C426.442 451.599 417.778 453.597 408.972 454.6C405.12 454.6 402.844 454.6 400.743 451.008C398.732 447.773 397.06 444.338 395.753 440.759C394.607 436.736 392.061 433.256 388.574 430.948C384.459 428.582 379.819 428.057 375.792 425.341C374.11 424.121 372.769 422.49 371.895 420.604C371.022 418.718 370.645 416.639 370.802 414.566C370.608 413.022 370.915 411.456 371.677 410.099C372.796 408.774 374.204 407.725 375.792 407.033Z" fill="#B83138"/>
<path id="Vector_33" d="M562.005 386.183C565.006 385.74 567.944 384.947 570.76 383.818L572.161 383.293C573.471 383.162 574.791 383.162 576.1 383.293C577.589 383.293 580.215 383.292 581.528 383.906C582.841 384.519 581.528 388.023 579.865 389.512C578.624 390.268 577.261 390.801 575.838 391.089C575.313 391.089 574.7 391.089 574.087 391.089C573.474 391.089 572.686 391.878 571.986 391.965C571.067 391.755 570.161 391.492 569.272 391.177C568.325 391.035 567.408 390.739 566.558 390.301C564.982 389.249 565.332 387.059 564.019 386.096L562.005 386.183Z" fill="#B83138"/>
<path id="Vector_34" d="M282.644 559.546C273.481 559.61 264.469 561.894 256.381 566.204C253.311 568.401 250.544 570.993 248.151 573.913C242.636 580.746 255.067 581.709 259.707 582.673C268.996 583.745 278.08 586.164 286.672 589.856C294.043 593.743 302.606 594.712 310.659 592.572C316 590.82 320.464 589.681 322.828 583.812C323.727 581.372 323.785 578.701 322.992 576.224C322.198 573.748 320.6 571.608 318.451 570.146C313.392 565.787 307.768 562.133 301.729 559.283C295.349 556.578 288.221 556.205 281.594 558.232L282.644 559.546Z" fill="#B83138"/>
<path id="Vector_35" d="M267.679 546.844C265.819 547.898 264.086 549.162 262.514 550.611C262.267 550.871 262.13 551.216 262.13 551.575C262.13 551.933 262.267 552.278 262.514 552.538C264.848 553.906 267.514 554.603 270.218 554.553C271.977 554.469 273.73 554.294 275.47 554.027C276.517 554.161 277.576 554.161 278.622 554.027C280.548 553.621 282.367 552.815 283.962 551.662C285.276 550.698 285.101 549.034 285.013 547.632C284.986 546.795 284.715 545.984 284.232 545.299C283.75 544.614 283.078 544.085 282.299 543.778C279.666 543.055 276.903 542.939 274.219 543.44C271.535 543.941 268.999 545.045 266.803 546.669L267.679 546.844Z" fill="#B83138"/>
<path id="Vector_36" d="M222.765 584.951C225.344 584.566 227.952 584.42 230.557 584.513L234.496 585.652C238.348 586.44 242.2 587.053 245.965 587.929C247.151 588.057 248.299 588.426 249.338 589.013C250.377 589.601 251.285 590.395 252.006 591.346C253.144 592.747 253.932 593.536 253.581 595.551C252.356 603.347 243.426 605.274 236.86 606.063C231.697 606.574 226.49 606.426 221.364 605.625C215.761 604.836 210.071 604.311 204.556 603.084C200.529 602.296 196.501 601.508 192.562 600.369C191.258 600.214 189.999 599.801 188.857 599.154C187.715 598.508 186.712 597.64 185.908 596.602C185.334 595.718 184.955 594.721 184.799 593.679C184.643 592.636 184.712 591.572 185.003 590.558C185.293 589.545 185.798 588.606 186.483 587.805C187.168 587.003 188.017 586.359 188.973 585.914C195.317 583.099 202.334 582.157 209.196 583.199C211.632 583.587 214.086 583.85 216.55 583.987C218.601 584.43 220.676 584.752 222.765 584.951Z" fill="#B83138"/>
</g>
<g id="Vector_37" style="mix-blend-mode:multiply" opacity="0.2">
<path d="M388.259 182.549C384.566 184.653 380.4 185.854 376.122 186.047C373.923 186.047 371.637 185.535 369.438 185.194L359.323 183.232C355.843 182.617 352.303 182.388 348.77 182.549C342.437 182.549 336.193 183.232 329.86 183.232C324.272 183.276 318.688 182.934 313.15 182.208C308.049 181.44 303.212 179.99 298.198 178.881C296.176 178.454 294.241 177.686 292.13 177.26C290.019 176.833 287.205 177.26 284.654 176.577C279.823 176.25 275.028 175.537 270.318 174.444C268.654 174.078 267.166 173.176 266.097 171.885C265.657 171.288 264.865 169.411 265.305 168.729C265.745 168.046 270.406 167.876 271.726 168.302C276 169.559 280.104 171.306 283.951 173.506C290.811 177.431 299.957 174.871 307.521 176.065C310.775 176.577 314.029 176.065 317.283 176.065C320.538 176.065 321.065 177.857 323.176 178.54C325.639 179.059 328.189 179.059 330.652 178.54C336.56 177.812 342.316 176.2 347.714 173.762C353.72 170.597 360.34 168.68 367.151 168.132C372.827 167.829 378.518 168.346 384.037 169.667C385.676 169.949 387.199 170.675 388.429 171.762C389.658 172.85 390.545 174.253 390.985 175.81C391.865 179.222 389.402 180.246 388.259 182.549Z" fill="#470024"/>
</g>
<g id="Vector_38" style="mix-blend-mode:multiply" opacity="0.2">
<path d="M363.498 71.0307C366.363 71.0022 369.223 71.3442 372.047 72.0533C369.761 72.0533 367.375 72.9303 365.089 73.661C363.555 74.1772 361.99 74.4709 360.417 74.5378C359.025 74.5378 351.967 75.5605 354.651 72.0533C357.335 68.546 361.808 71.0307 363.498 71.0307Z" fill="#470024"/>
</g>
<g id="Vector_39" style="mix-blend-mode:multiply" opacity="0.2">
<path d="M535.166 45.4866C531.922 51.1351 528.12 56.4323 523.82 61.2954C519.69 65.5622 514.917 69.1298 509.681 71.8638C503.327 75.4422 496.553 78.1877 489.521 80.0347C482.348 81.9519 475.013 83.1712 467.614 83.676C462.094 83.5863 456.584 83.1415 451.119 82.3439C444.312 81.6334 437.33 80.8341 430.522 79.8572C425.198 79.0578 419.874 78.3472 414.463 77.7255C409.052 77.1038 403.903 75.5052 398.579 74.9723C394.739 74.9723 390.812 74.3508 386.971 74.2619C384.615 74.2619 382.52 73.4627 380.164 73.4627C378.623 73.5512 377.079 73.5512 375.538 73.4627L372.047 72.8409L376.847 72.3081C381.124 71.6864 385.575 72.3079 389.764 71.5974C393.953 70.8869 397.968 71.5974 402.157 70.7981C409.223 69.8945 416.332 69.3906 423.453 69.2885C429.998 69.2885 436.719 69.7325 443.264 69.2885C444.255 69.3189 445.241 69.1368 446.158 68.7543C447.075 68.3718 447.903 67.7974 448.588 67.0682C449.548 65.2919 449.985 63.4267 448.588 62.1833C447.192 60.94 438.028 58.3645 439.25 54.7232C439.25 53.6574 441.868 53.4799 443.002 53.2135C447.017 52.5918 451.206 52.4141 455.221 51.7036C457.752 51.2595 459.934 50.2825 462.378 49.6608C464.821 49.0391 466.567 48.7728 468.574 48.1512C471.583 47.4112 474.649 46.9357 477.738 46.7301C484.48 47.7516 491.332 47.7516 498.074 46.7301C501.139 45.7142 503.801 43.7211 505.666 41.046C506.539 39.8915 507.674 39.0035 508.634 37.8489C509.594 36.6944 510.729 34.5628 512.038 33.053C519.107 36.4278 525.914 40.0692 532.635 43.977C531.849 43.977 531.413 45.0428 534.729 45.1316L535.166 45.4866Z" fill="#470024"/>
</g>
<g id="Vector_40" style="mix-blend-mode:multiply" opacity="0.2">
<path d="M531.659 64.724C526.819 69.9722 521.453 74.6966 515.646 78.8206C510.123 82.091 504.332 84.8738 498.336 87.1382C493.976 89.0073 489.416 90.3591 484.747 91.1659C482.48 91.5925 480.251 92.2074 478.083 93.0045C477.131 93.0045 475.4 93.5297 474.794 94.2301C474.188 94.9306 474.188 97.1196 475.746 97.6449C479.856 98.5188 484.1 98.5188 488.209 97.6449C496.473 96.9113 504.682 95.6539 512.79 93.8801C517.951 92.6614 522.888 90.6223 527.417 87.8388C533.515 84.8318 538.713 80.2386 542.478 74.5302C544.382 70.5026 545.42 66.4751 541.439 63.5858C539.888 62.1665 537.901 61.3317 535.813 61.2219C534.774 61.0468 529.928 61.2218 531.659 64.724Z" fill="#470024"/>
</g>
<g id="Vector_41" style="mix-blend-mode:soft-light">
<path d="M646.536 144.424C638.863 143.441 631.358 141.443 624.224 138.485C622.219 137.538 611.325 130.824 619.169 130.566C619.169 128.845 614.811 125.144 613.678 123.767C612.545 122.389 610.366 119.549 608.536 117.656C606.308 115.791 603.688 114.438 600.866 113.696C597.118 112.061 593.98 109.135 590.146 107.499C582.475 102.834 573.503 100.694 564.521 101.388C557.814 103.655 551.517 106.968 545.869 111.2C537.994 115.171 529.608 118.067 520.943 119.807C505.945 123.958 490.727 127.291 475.359 129.792C466.643 131.169 457.143 131.513 448.079 133.148C444.418 134.077 440.687 134.71 436.923 135.042C431.606 135.042 426.464 135.042 421.235 135.042C411.081 136.189 400.854 136.563 390.642 136.161C387.853 136.161 375.128 138.054 374.082 133.665C379.064 131.766 384.345 130.746 389.684 130.652C397.179 129.792 404.413 129.447 411.996 129.017C432.595 126.508 452.984 122.539 473.006 117.139C482.68 115.16 492.181 112.577 501.768 110.081C506.438 109.122 511.039 107.857 515.539 106.294C520.332 104.487 524.69 101.905 529.484 100.183C535.915 98.1287 541.848 94.7889 546.915 90.3715C548.686 89.3566 550.158 87.9027 551.186 86.1539C553.801 80.3011 544.911 77.1165 540.814 74.8787C537.089 72.5678 533.184 70.5533 529.135 68.8539C522.773 66.7883 516.41 65.1528 510.135 62.5707C502.486 59.8919 494.687 57.6503 486.777 55.8572C480.85 54.0498 475.011 52.1563 469.345 50.5209C465.075 49.402 460.629 48.2831 456.446 47.3364C454.616 47.3364 451.217 47.3361 450.955 44.9262C452.263 44.4097 453.57 44.9264 454.964 44.3239C454.354 41.5696 437.533 40.2784 434.831 40.3644C428.73 40.3644 422.891 38.9015 416.877 38.9876C410.863 39.0736 404.326 40.1924 398.051 40.4506C386.197 40.881 374.344 40.4506 362.49 40.4506C357.784 40.4506 352.99 40.4506 348.371 40.4506C345.929 40.009 343.514 39.4345 341.137 38.7294C341.137 35.803 352.467 33.8231 355.169 33.1346C353.339 28.745 337.738 29.1754 334.339 29.1754C327.147 29.1619 319.961 29.5355 312.811 30.2944C306.012 30.9829 299.214 30.2943 292.416 30.7246C287.326 31.8305 282.097 32.1785 276.902 31.7574C276.379 31.7574 271.498 30.6386 271.237 30.4664C269.319 28.0565 274.287 24.4414 275.42 23.4086C282.749 18.2884 290.959 14.5264 299.65 12.3057C298.809 10.1583 298.168 7.93993 297.732 5.67816C370.978 -6.93835 446.385 3.32148 513.447 35.0281C520.507 38.2988 527.305 41.8278 534.016 45.6149C534.741 45.9359 535.44 46.31 536.108 46.7338H536.892C579.767 71.2315 617.016 104.264 646.275 143.735L646.536 144.424Z" fill="#F9AEA4"/>
</g>
<path id="Vector_42" d="M716.284 356.054C716.284 364.34 716.284 372.627 715.322 380.739C713.261 410.641 707.386 440.158 697.837 468.576C697.745 468.918 697.598 469.242 697.4 469.536C698.18 466.132 698.562 462.648 698.537 459.156C698.905 457.226 699.431 455.33 700.11 453.486C700.329 451.194 700.329 448.887 700.11 446.595V416.328C700.11 410.396 701.596 404.814 701.509 398.882C701.509 395.829 701.509 392.776 701.509 389.723C701.509 386.67 702.733 383.966 702.995 381.001C702.706 372.217 701.741 363.469 700.11 354.833C700.11 350.733 700.11 346.633 700.11 342.621C700.002 340.913 699.619 339.235 698.974 337.649C698.751 335.387 698.751 333.108 698.974 330.845C698.583 328.692 698.058 326.565 697.4 324.478C697.225 322.446 697.225 320.403 697.4 318.372C697.512 314.761 697.13 311.151 696.264 307.643C695.826 305.724 696.264 303.892 695.652 301.886C695.04 299.88 694.34 298.572 693.816 296.914C692.679 293.251 691.018 289.936 689.882 286.273C687.004 279.468 685.205 272.258 684.549 264.902C683.914 257.514 682.114 250.272 679.216 243.444C676.3 236.615 672.413 230.24 667.676 224.516C665.316 220.94 666.802 218.061 665.841 214.31C664.951 211.877 663.409 209.735 661.382 208.117C658.159 206.285 654.583 205.155 650.891 204.803C647.132 204.803 644.247 207.332 640.313 206.024C640.837 203.843 647.132 201.227 649.492 200.79C651.853 200.354 657.797 200.79 658.234 196.342C658.672 193.202 655 190.846 653.077 188.84C652.037 187.56 651.074 186.22 650.192 184.828C648.88 183.083 647.044 183.083 645.471 181.775C643.897 180.466 642.936 178.809 641.275 177.501C640.126 176.313 639.046 175.06 638.04 173.75C635.513 171.054 632.764 168.574 629.822 166.336C623.778 162.151 616.882 159.351 609.627 158.136C606.725 158.178 603.873 157.375 601.42 155.826C598.967 154.277 597.02 152.049 595.815 149.414C593.629 145.837 593.629 145.14 596.601 142.261C597.832 141.209 598.746 139.836 599.24 138.296C599.734 136.755 599.789 135.108 599.399 133.538C598.638 127.412 595.837 121.718 591.446 117.368C587.056 113.019 581.328 110.266 575.183 109.551C572.298 108.94 569.325 109.551 566.44 108.941C564.615 108.388 562.742 108.008 560.845 107.807C556.474 107.807 552.977 106.324 548.606 106.411H534.269C530.414 106.978 526.497 106.978 522.642 106.411C523.254 103.794 528.849 102.398 531.384 101.352C535.927 99.3736 540.261 96.9484 544.322 94.112C547.415 92.0583 550.159 89.5259 552.453 86.6104C554.108 84.5806 555.952 82.7115 557.961 81.028C553.825 77.4834 549.203 74.5462 544.235 72.3054C538.727 69.6886 532.783 67.5951 526.751 65.5017C520.718 63.4082 516.085 62.972 510.752 61.5764C504.24 59.8648 498.374 56.2864 493.879 51.2837C490.017 47.1472 485.385 43.7995 480.241 41.427C475.541 39.6894 470.633 38.5749 465.642 38.1124C463.285 37.5514 460.888 37.1725 458.473 36.9786C455.938 36.9786 453.053 37.4148 450.605 36.9786C447.411 36.2288 444.169 35.704 440.901 35.4084C438.001 35.8176 435.058 35.8176 432.159 35.4084C429.361 34.7105 426.476 34.6233 423.416 34.0127C415.199 32.0065 410.74 23.8944 405.233 18.2247C402.399 15.6546 398.743 14.1711 394.917 14.038C389.21 12.4897 383.342 11.6113 377.432 11.421H357.412C353.681 11.3958 349.958 11.7761 346.309 12.555C342.99 12.7281 339.663 12.7281 336.343 12.555C330.398 13.2528 324.803 15.259 318.859 15.5207C316.416 15.2765 314.01 14.7497 311.69 13.9507C309.679 13.9507 306.182 14.9974 304.434 13.9507C300.675 12.2934 308.805 5.22802 299.975 6.62365C291.146 8.01928 281.004 10.8105 271.301 12.8167C261.339 14.8652 251.526 17.5752 241.926 20.9287C235.962 22.9661 230.123 25.3546 224.442 28.0814C215.459 32.5624 206.133 36.325 196.554 39.3337C246.765 13.6651 302.393 0.327795 358.811 0.430627C412.282 0.278982 465.094 12.2073 513.287 35.3213C520.369 38.6359 527.188 42.2121 533.919 46.05C534.646 46.3754 535.347 46.7545 536.017 47.184H536.804C579.809 72.0109 617.172 105.487 646.52 145.488C667.603 174.192 684.253 205.888 695.914 239.519C696.243 240.68 696.652 241.816 697.138 242.921C697.138 244.055 697.837 245.189 698.274 246.323C705.519 268.89 710.497 292.119 713.136 315.668C713.836 322.123 714.36 328.665 714.71 335.294C716.284 342.446 716.284 349.163 716.284 356.054Z" fill="url(#paint7_radial_400_190)"/>
<path id="Vector_43" d="M715.139 336.297C714.787 329.651 714.26 323.093 713.556 316.622C710.899 293.015 705.888 269.728 698.596 247.105C698.156 245.968 697.804 244.832 697.452 243.695C696.963 242.588 696.552 241.448 696.221 240.285C684.483 206.571 667.725 174.796 646.504 146.021C616.964 105.92 579.358 72.3607 536.071 47.4722H535.279C534.605 47.0416 533.899 46.6616 533.168 46.3354C526.392 42.4879 519.528 38.9029 512.401 35.5801C444.695 3.36761 368.565 -7.05588 294.616 5.76189C259.419 11.8248 225.357 23.1768 193.599 39.4276C152.815 60.1779 116.404 88.4942 86.3338 122.848L79.5581 130.981C109.174 97.8745 144.708 70.509 184.359 50.2705C233.636 25.3028 288.044 11.9667 343.352 11.2994C398.66 10.6321 453.377 22.6515 503.25 46.4229C510.289 49.7458 517.241 53.331 524.016 57.1785L526.128 58.3154H526.92C570.206 83.2038 607.813 116.763 637.353 156.864C646.575 169.404 654.981 182.518 662.519 196.126C672.263 213.732 680.477 232.132 687.069 251.128C687.069 252.264 687.773 253.401 688.213 254.538C688.653 255.674 689.005 256.811 689.357 257.948C696.649 280.571 701.66 303.858 704.316 327.466C705.02 333.936 705.636 340.495 705.988 347.14C706.34 353.786 706.516 360.519 706.516 367.34C706.516 375.647 706.516 383.954 705.636 392.086C703.6 422.067 697.685 451.663 688.037 480.141C688.087 480.46 688.087 480.784 688.037 481.103C683.842 493.624 678.906 505.888 673.254 517.829C662.566 540.672 649.438 562.308 634.097 582.363C631.545 585.773 628.817 588.921 626.177 592.156C632.161 585.423 637.969 578.602 643.336 571.519C658.678 551.434 671.806 529.77 682.494 506.899C688.145 494.957 693.082 482.694 697.277 470.173C697.475 469.878 697.624 469.553 697.716 469.211C707.327 440.722 713.241 411.132 715.315 381.156C715.931 373.023 716.283 364.716 716.283 356.409C715.667 349.676 715.667 342.943 715.139 336.297Z" fill="url(#paint8_radial_400_190)"/>
<path id="Vector_44" d="M478.918 273.473C484.397 274.572 489.923 275.046 495.448 274.889C495.448 272.056 498.238 271.899 498.031 268.593C495.793 265.948 493.008 264.608 490.179 264.815C488.216 264.815 482.741 266.389 482.328 270.009L478.918 273.473Z" fill="#F9AEA4"/>
<path id="Vector_45" d="M382.171 106.596C386.054 107.136 389.979 107.366 393.903 107.284C393.903 106.045 395.809 105.976 395.663 104.53C394.12 103.336 392.16 102.722 390.164 102.808C388.697 102.808 384.884 103.566 384.518 105.081L382.171 106.596Z" fill="#F9AEA4"/>
<path id="Vector_46" d="M325.924 608.872C331.403 609.845 336.929 610.266 342.454 610.131C342.454 607.612 345.244 607.472 345.037 604.533C342.799 602.182 340.014 600.991 337.185 601.175C335.222 601.175 329.747 602.574 329.333 605.793L325.924 608.872Z" fill="#F9AEA4"/>
<path id="Vector_47" d="M79.5579 333.898C85.0665 334.389 90.6223 334.599 96.1778 334.528C96.1778 333.268 98.8785 333.198 98.6707 331.729C96.4524 330.563 93.6907 329.968 90.8801 330.049C88.8026 330.049 83.4013 330.749 82.8819 332.358L79.5579 333.898Z" fill="#F9AEA4"/>
<path id="Vector_48" d="M569.352 479.274C571.242 475.559 573.656 472.264 576.486 469.536C577.022 471.925 579.4 472.2 580.474 474.221C581.011 475.667 581.289 477.232 581.289 478.815C581.289 480.397 581.011 481.962 580.474 483.408C578.719 487.353 576.188 490.727 573.102 493.24C570.015 495.753 566.464 497.329 562.755 497.832C560.377 498.383 557.999 499.669 555.928 497.832C555.065 497.063 554.492 495.915 554.334 494.641C554.176 493.367 554.446 492.07 555.085 491.033C556.811 488.902 558.804 487.104 560.991 485.705C562.218 484.878 564.903 483.592 565.133 482.03L569.352 479.274Z" fill="#F97F7C"/>
<path id="Vector_49" d="M603.414 474.036C600.823 477.718 598.368 481.189 595.913 484.555C596.8 486.975 600.073 482.662 601.164 482.031C602.255 481.4 603.21 482.031 603.96 480.453C604.71 478.875 605.664 476.14 603.96 476.035L603.414 474.036Z" fill="#F9AEA4"/>
<path id="Vector_50" d="M542.599 349.166C540.076 352.024 537.621 354.798 535.166 357.572C536.053 359.506 539.326 356.143 540.349 355.554C541.371 354.966 542.462 355.554 543.213 354.293C543.963 353.032 544.917 350.931 543.213 350.763L542.599 349.166Z" fill="#F9AEA4"/>
<path id="Vector_51" d="M250.178 28.5532C247.587 31.4986 245.132 34.2756 242.677 36.9685C243.564 38.904 246.837 35.4539 247.928 34.9489C249.019 34.444 249.974 34.9489 250.724 33.6025C251.474 32.256 252.429 30.2363 250.724 30.1522L250.178 28.5532Z" fill="#F9AEA4"/>
<path id="Vector_52" d="M103.653 381.864C102.864 385.538 103.069 389.335 104.249 392.918C104.249 394.094 104.249 394.8 105.525 394.878C106.801 394.957 108.332 396.525 109.523 397.309C110.714 398.093 113.946 400.131 115.733 399.739C117.553 398.887 119.106 397.619 120.241 396.054C121.241 394.012 121.451 391.715 120.836 389.547C119.731 386.098 118.199 381.159 114.372 379.747C112.868 379.15 111.3 378.703 109.693 378.415C107.311 378.415 106.886 378.415 105.525 380.139L103.653 381.864Z" fill="#F97F7C"/>
<path id="Vector_53" d="M249.27 163.548C248.371 164.012 247.657 164.647 247.203 165.387C247.203 165.387 247.203 165.387 247.203 165.846C247.168 166.152 247.168 166.46 247.203 166.766C247.292 167.215 247.542 167.638 247.927 167.991C248.473 168.068 249.034 168.068 249.58 167.991C250.119 167.767 250.579 167.453 250.923 167.072C250.923 166.383 252.059 165.387 251.543 164.621L250.923 163.778C250.76 163.685 250.56 163.634 250.355 163.634C250.149 163.634 249.949 163.685 249.786 163.778L249.27 163.548Z" fill="#F97F7C"/>
<path id="Vector_54" d="M252.175 180.86C251.34 184.921 251.557 189.116 252.807 193.078C252.807 194.378 252.807 195.158 254.163 195.244C255.519 195.331 257.146 197.064 258.412 197.93C259.677 198.797 263.112 201.05 265.011 200.617C266.945 199.675 268.595 198.273 269.801 196.544C270.864 194.287 271.087 191.748 270.434 189.352C269.259 185.539 267.632 180.08 263.564 178.52C261.967 177.86 260.3 177.367 258.593 177.047C256.062 177.047 255.61 177.047 254.163 178.954L252.175 180.86Z" fill="#F97F7C"/>
<path id="Vector_55" d="M131.306 129.792C135.746 130.973 140.458 131.235 145.042 130.555C146.846 129.608 148.576 128.566 150.224 127.436C152.817 126.277 155.177 124.78 157.215 123.001C157.687 122.55 158.02 122.009 158.186 121.425C158.352 120.841 158.345 120.232 158.166 119.651C157.988 119.069 157.643 118.534 157.161 118.091C156.68 117.648 156.077 117.311 155.406 117.11C149.402 115.031 132.951 116.764 133.116 124.525L131.306 129.792Z" fill="#F9AEA4"/>
<path id="Vector_56" d="M484.543 240.843C488.96 242.346 493.635 242.688 498.194 241.84C500.056 240.623 501.817 239.227 503.457 237.669C506.082 236.208 508.449 234.243 510.447 231.864C510.92 231.283 511.254 230.582 511.421 229.823C511.588 229.065 511.581 228.272 511.402 227.517C511.223 226.762 510.876 226.068 510.394 225.497C509.911 224.926 509.308 224.496 508.638 224.245C502.552 221.525 486.187 223.701 486.352 233.859L484.543 240.843Z" fill="#F97F7C"/>
<path id="Vector_57" d="M107.682 359.63C107.682 360.842 111.568 369.881 114.997 366.353C115.984 365.081 116.564 363.558 116.665 361.972C116.767 360.385 116.386 358.805 115.569 357.425C114.655 356.102 112.483 353.016 110.425 353.788C108.368 354.559 109.282 355.11 109.054 355.992C108.374 357.58 108.374 359.364 109.054 360.952L107.682 359.63Z" fill="#CF6854"/>
<path id="Vector_58" d="M121.182 375.852C121.243 374.391 121.675 372.961 122.446 371.665C122.933 372.092 123.711 371.665 124.295 372.263C124.878 372.861 125.17 373.288 125.559 373.716C126.053 374.143 126.418 374.671 126.621 375.252C126.825 375.834 126.861 376.451 126.726 377.048C126.515 377.44 126.186 377.775 125.775 378.016C125.364 378.257 124.885 378.394 124.392 378.415C123.419 378.415 121.571 377.988 121.571 376.877L121.182 375.852Z" fill="#CF6854"/>
<path id="Vector_59" d="M135.806 580.908C138.123 585.255 140.922 589.253 144.137 592.805C146.47 595.147 148.303 597.957 150.636 600.392C153.913 604.214 157.744 607.382 161.966 609.76C164.132 610.79 164.299 609.76 163.466 607.231C162.049 603.203 159.133 602.172 156.051 599.737C151.879 597.006 148.089 593.597 144.804 589.62C142.471 586.154 140.555 580.814 135.806 580.908Z" fill="#F9AEA4"/>
<path id="Vector_60" d="M139.156 573.032C137.572 570.526 136.445 567.875 135.806 565.148C136.086 564.786 136.454 564.464 136.89 564.199C137.184 564.094 137.506 564.037 137.833 564.033C138.16 564.028 138.484 564.076 138.784 564.173C139.083 564.27 139.351 564.414 139.568 564.595C139.786 564.776 139.947 564.99 140.043 565.221C140.394 567.647 140.394 570.095 140.043 572.521L139.156 573.032Z" fill="#F9AEA4"/>
<path id="Vector_61" d="M586.781 458.93C588.261 458.231 589.988 457.635 591.901 457.162C591.901 457.162 592.973 457.162 593.568 457.162C594.511 457.382 595.232 457.742 595.593 458.172C596.426 458.981 595.593 459.688 593.568 460.194C591.544 460.699 585.233 460.851 585.828 459.183L586.781 458.93Z" fill="#F9AEA4"/>
<path id="Vector_62" d="M140.797 277.277C141.452 276.345 142.216 275.55 143.062 274.919C143.062 274.919 143.536 274.919 143.799 274.919C144.188 275.238 144.484 275.711 144.642 276.267C145.063 277.345 144.642 278.288 143.799 278.962C142.956 279.636 140.06 279.838 140.323 277.614L140.797 277.277Z" fill="#F9AEA4"/>
<path id="Vector_63" d="M146.129 388.543C148.179 385.927 150.51 383.655 153.058 381.79C153.695 382.561 154.492 381.79 155.288 382.369C156.506 383.248 157.435 384.612 157.917 386.228C159.111 389.315 157.359 392.016 155.288 393.946C153.217 395.876 144.058 396.551 144.855 390.183L146.129 388.543Z" fill="#CF6854"/>
<path id="Vector_64" d="M229.504 168.031C231.743 166.299 234.291 164.792 237.079 163.548C237.776 164.053 238.647 163.548 239.517 163.927C240.849 164.502 241.864 165.395 242.391 166.453C242.825 167.412 242.764 168.453 242.219 169.382C241.675 170.311 240.684 171.065 239.43 171.504C236.47 173.146 227.24 173.209 228.11 169.042L229.504 168.031Z" fill="#D57A68"/>
<path id="Vector_65" d="M507.042 659.735C509.471 656.758 512.067 653.94 514.817 651.296C516.544 650.141 518.335 649.097 520.179 648.167C520.806 647.735 521.515 647.451 522.255 647.337C522.995 647.222 523.75 647.279 524.468 647.504C526.702 648.736 526.434 651.96 525.362 653.951C523.122 657.239 520.011 659.747 516.425 661.157C514.995 661.726 508.918 663.053 509.097 659.735H507.042Z" fill="#F9AEA4"/>
</g>
<defs>
<radialGradient id="paint0_radial_400_190" cx="0" cy="0" r="1" gradientUnits="userSpaceOnUse" gradientTransform="translate(131.306 160.647) rotate(180) scale(32.6237 34.3112)">
<stop stop-color="#2E00A7"/>
<stop offset="0.09" stop-color="#280091"/>
<stop offset="0.31" stop-color="#1A005E"/>
<stop offset="0.52" stop-color="#0F0035"/>
<stop offset="0.71" stop-color="#070018"/>
<stop offset="0.88" stop-color="#020006"/>
<stop offset="1"/>
</radialGradient>
<radialGradient id="paint1_radial_400_190" cx="0" cy="0" r="1" gradientUnits="userSpaceOnUse" gradientTransform="translate(525.699 171.939) rotate(-115.77) scale(13.97 13.97)">
<stop stop-color="#A93995"/>
<stop offset="0.09" stop-color="#913180"/>
<stop offset="0.32" stop-color="#5E2053"/>
<stop offset="0.53" stop-color="#35122F"/>
<stop offset="0.72" stop-color="#180815"/>
<stop offset="0.88" stop-color="#060206"/>
<stop offset="1"/>
</radialGradient>
<radialGradient id="paint2_radial_400_190" cx="0" cy="0" r="1" gradientUnits="userSpaceOnUse" gradientTransform="translate(351.897 527.456) rotate(-115.77) scale(16.6381 16.6381)">
<stop stop-color="#A93995"/>
<stop offset="0.09" stop-color="#913180"/>
<stop offset="0.32" stop-color="#5E2053"/>
<stop offset="0.53" stop-color="#35122F"/>
<stop offset="0.72" stop-color="#180815"/>
<stop offset="0.88" stop-color="#060206"/>
<stop offset="1"/>
</radialGradient>
<radialGradient id="paint3_radial_400_190" cx="0" cy="0" r="1" gradientUnits="userSpaceOnUse" gradientTransform="translate(91.5073 272.191) rotate(-115.77) scale(7.45846 7.45846)">
<stop stop-color="#A93995"/>
<stop offset="0.09" stop-color="#913180"/>
<stop offset="0.32" stop-color="#5E2053"/>
<stop offset="0.53" stop-color="#35122F"/>
<stop offset="0.72" stop-color="#180815"/>
<stop offset="0.88" stop-color="#060206"/>
<stop offset="1"/>
</radialGradient>
<radialGradient id="paint4_radial_400_190" cx="0" cy="0" r="1" gradientUnits="userSpaceOnUse" gradientTransform="translate(251.893 302.626) rotate(-114.436) scale(9.64754 9.28033)">
<stop stop-color="#A93995"/>
<stop offset="0.09" stop-color="#913180"/>
<stop offset="0.32" stop-color="#5E2053"/>
<stop offset="0.53" stop-color="#35122F"/>
<stop offset="0.72" stop-color="#180815"/>
<stop offset="0.88" stop-color="#060206"/>
<stop offset="1"/>
</radialGradient>
<radialGradient id="paint5_radial_400_190" cx="0" cy="0" r="1" gradientUnits="userSpaceOnUse" gradientTransform="translate(117.641 251.129) rotate(-116.721) scale(13.6104 13.9618)">
<stop stop-color="#A93995"/>
<stop offset="0.09" stop-color="#913180"/>
<stop offset="0.32" stop-color="#5E2053"/>
<stop offset="0.53" stop-color="#35122F"/>
<stop offset="0.72" stop-color="#180815"/>
<stop offset="0.88" stop-color="#060206"/>
<stop offset="1"/>
</radialGradient>
<radialGradient id="paint6_radial_400_190" cx="0" cy="0" r="1" gradientUnits="userSpaceOnUse" gradientTransform="translate(437.552 161.373) scale(415.332 413.626)">
<stop offset="0.28" stop-color="#E95059"/>
<stop offset="0.41" stop-color="#E44D59"/>
<stop offset="0.56" stop-color="#D6465A"/>
<stop offset="0.73" stop-color="#BF395C"/>
<stop offset="0.89" stop-color="#9F275E"/>
<stop offset="1" stop-color="#861960"/>
</radialGradient>
<radialGradient id="paint7_radial_400_190" cx="0" cy="0" r="1" gradientUnits="userSpaceOnUse" gradientTransform="translate(630.259 87.2212) scale(287.185 286.54)">
<stop stop-color="#FF953D"/>
<stop offset="0.21" stop-color="#FA873F"/>
<stop offset="0.61" stop-color="#EB6244"/>
<stop offset="1" stop-color="#DB384A"/>
</radialGradient>
<radialGradient id="paint8_radial_400_190" cx="0" cy="0" r="1" gradientUnits="userSpaceOnUse" gradientTransform="translate(613.242 78.4272) scale(350.832 348.636)">
<stop stop-color="#FFCC7A"/>
<stop offset="0.14" stop-color="#FCBE75"/>
<stop offset="0.42" stop-color="#F39969"/>
<stop offset="0.79" stop-color="#E45D56"/>
<stop offset="1" stop-color="#DB384A"/>
</radialGradient>
</defs>
</svg>
